<svg width="40" height="37" viewBox="0 0 40 37" fill="none" xmlns="http://www.w3.org/2000/svg">
<g clip-path="url(#clip0)">
<path d="M0.272415 17.57C0.963803 19.1256 -0.822282 25.2328 0.675724 28.5745C2.17373 31.9162 3.78697 32.55 7.76245 34.048C11.7955 35.6037 15.8863 36.9864 18.0756 36.007C20.3227 35.0275 23.2611 32.0891 27.9279 30.0149C32.5948 27.9408 32.1339 28.1136 35.9365 24.0805C39.7391 19.9898 40.7762 16.36 39.451 13.4792C38.1835 10.5985 35.7636 9.67661 32.8829 8.5243C30.0021 7.4296 30.0021 7.4296 26.1418 5.9316C22.2816 4.43359 20.2074 3.62697 17.7876 2.70512C15.3677 1.78327 14.2154 -0.86705 11.5075 0.285263C8.85714 1.49519 6.78298 0.112416 5.7459 2.87797C4.70882 5.5859 2.8075 5.06736 2.11612 6.73821C1.48234 8.40907 1.19427 7.83291 2.00088 9.619C2.8075 11.4051 3.84458 12.0389 3.49889 12.9607C3.09558 13.8826 -0.534204 15.8991 0.272415 17.57Z" fill="#F7941E"/>
<path d="M32.8252 8.5243C29.9445 7.4296 29.9445 7.4296 26.0842 5.9316C22.224 4.43359 20.1498 3.62697 17.7299 2.70512C15.3101 1.78327 14.1578 -0.86705 11.4498 0.285263C8.79953 1.49519 6.72536 0.112416 5.68828 2.87797C4.6512 5.5859 2.74989 5.06736 2.0585 6.73821C1.42473 8.40907 1.13665 7.83291 1.94327 9.619C2.74989 11.4051 3.78697 12.0389 3.44127 12.9607C3.09558 13.8826 -0.534205 15.8415 0.214798 17.57C0.906185 19.1256 -0.879899 25.2328 0.618107 28.5745C0.618107 28.5745 1.53996 30.0149 4.42074 26.9037C7.30152 23.7348 13.2935 21.0845 15.0796 20.2779C16.8657 19.4713 18.8246 19.7017 22.6273 19.2984C26.4299 18.9527 28.965 20.0474 30.0021 17.3395C31.0392 14.6892 38.2987 10.6561 32.8252 8.5243Z" fill="#DB6A1D"/>
</g>
<defs>
<clipPath id="clip0">
<rect width="40" height="36.3346" fill="white"/>
</clipPath>
</defs>
</svg>
