<svg width="227" height="134" viewBox="0 0 227 134" fill="none" xmlns="http://www.w3.org/2000/svg">
<g clip-path="url(#clip0)">
<path d="M116.791 120.345H91.5686L95.633 31.4246H112.727L116.791 120.345Z" fill="#CDB39D"/>
<path d="M112.727 31.4246H108.473L112.538 120.345H116.791L112.727 31.4246Z" fill="#E7D0C1"/>
<path d="M121.99 20.9786C134.165 35.6359 141.246 49.8605 132.095 57.5474C122.944 65.2343 101.027 63.4727 88.8518 48.8154C76.6769 34.1581 78.855 12.1556 88.0059 4.46862C97.1568 -3.21832 109.815 6.32128 121.99 20.9786Z" fill="#DB8E55"/>
<path d="M132.843 56.919C142.556 48.7601 140.56 30.2639 128.385 15.6066C116.21 0.949304 98.4668 -4.31867 88.754 3.84025C79.0412 11.9992 81.0371 30.4954 93.2121 45.1527C105.387 59.81 123.131 65.078 132.843 56.919Z" fill="#E7D0C1"/>
<path opacity="0.8" d="M132.843 56.919C142.556 48.7601 140.56 30.2639 128.385 15.6066C116.21 0.949304 98.4668 -4.31867 88.754 3.84025C79.0412 11.9992 81.0371 30.4954 93.2121 45.1527C105.387 59.81 123.131 65.078 132.843 56.919Z" fill="white"/>
<path d="M132.537 54.0826C141.583 46.4838 139.724 29.2574 128.385 15.6065C117.046 1.95547 100.521 -2.95082 91.4749 4.64795C82.4289 12.2467 84.2878 29.4731 95.6269 43.124C106.966 56.775 123.491 61.6813 132.537 54.0826Z" fill="#E7D0C1"/>
<path opacity="0.08" d="M91.4749 4.64799C82.4289 12.2467 84.2878 29.4731 95.6268 43.1241C96.3421 43.9851 97.077 44.8111 97.8315 45.6019C90.3443 35.059 89.5233 22.6717 96.2935 16.9846C103.573 10.8693 116.873 14.8178 125.998 25.8038C134.484 36.0204 136.371 48.7241 130.739 55.372C131.37 54.9889 131.971 54.5579 132.537 54.0827C141.583 46.4839 139.724 29.2575 128.385 15.6065C117.046 1.95556 100.521 -2.95069 91.4749 4.64799Z" fill="#A5450C"/>
<path opacity="0.34" d="M115.762 33.8876C117.339 32.5634 117.173 29.7517 115.392 27.6075C113.611 25.4633 110.889 24.7986 109.313 26.1228C107.736 27.447 107.902 30.2587 109.683 32.4029C111.464 34.5471 114.186 35.2118 115.762 33.8876Z" fill="#A5450C"/>
<path d="M124.898 20.9114L123.643 19.4004C123.643 19.4004 113.421 24.7067 110.907 27.5339C110.324 28.1888 110.732 29.4032 111.772 30.655C112.812 31.9069 114.009 32.4275 114.672 32.0668C117.989 30.2611 124.898 20.9114 124.898 20.9114Z" fill="white"/>
<path d="M125.812 22.4512C127.764 22.4512 129.347 20.8595 129.347 18.896C129.347 16.9325 127.764 15.3408 125.812 15.3408C123.859 15.3408 122.277 16.9325 122.277 18.896C122.277 20.8595 123.859 22.4512 125.812 22.4512Z" fill="white"/>
<g opacity="0.34">
<path opacity="0.34" d="M119.436 61.8765L119.44 61.96C119.62 61.9486 119.796 61.9304 119.975 61.9159C119.795 61.9021 119.616 61.8931 119.436 61.8765Z" fill="#A5450C"/>
<path opacity="0.34" d="M94.1688 48.8152C81.9939 34.1579 84.1721 12.1554 93.3231 4.46847C93.4787 4.33776 93.6356 4.21305 93.7931 4.09223C93.8872 4.0093 93.9749 3.92096 94.0711 3.84005C96.5321 1.77275 99.5093 0.569011 102.78 0.160076C97.4314 -0.451939 92.4964 0.696419 88.7539 3.84016C88.6577 3.92103 88.5699 4.00942 88.4759 4.09234C88.3183 4.21317 88.1614 4.33787 88.0059 4.46858C78.8549 12.1554 76.6768 34.1579 88.8518 48.8152C90.5512 50.8574 92.4752 52.6994 94.5871 54.3059L91.5686 120.344H96.8858L99.9042 54.3059C97.7923 52.6994 95.8682 50.8574 94.1688 48.8152V48.8152Z" fill="#A5450C"/>
</g>
<path d="M132.581 127.649H3.7369V91.7631C3.7369 89.4048 4.66848 87.1431 6.32672 85.4755C7.98496 83.8079 10.234 82.8711 12.5791 82.8711H70.3881C76.2915 82.8711 82.006 84.9631 86.5278 88.7795L132.581 127.649Z" fill="#E7D0C1"/>
<path d="M86.5278 88.7795C82.006 84.9631 76.2915 82.8711 70.3882 82.8711H64.0723C69.9756 82.8711 75.6901 84.9631 80.2119 88.7795L126.265 127.649H132.581L86.5278 88.7795Z" fill="white"/>
<path d="M5.2576 127.649H131.376C132.77 127.649 134.108 128.206 135.094 129.197C136.079 130.189 136.633 131.534 136.633 132.936V134H4.51907e-10V132.936C-9.05174e-06 132.242 0.135976 131.554 0.400191 130.913C0.664407 130.271 1.05168 129.688 1.53989 129.197C2.02811 128.706 2.6077 128.317 3.24559 128.051C3.88348 127.785 4.56716 127.649 5.2576 127.649V127.649Z" fill="#282C3B"/>
<path d="M27.9548 95.7793H32.6224C34.5621 95.7793 36.4223 96.5541 37.7938 97.9334C39.1653 99.3126 39.9358 101.183 39.9358 103.134V133.371H20.6414V103.134C20.6414 101.183 21.4119 99.3126 22.7834 97.9334C24.155 96.5541 26.0152 95.7793 27.9548 95.7793V95.7793Z" fill="#E7D0C1"/>
<path d="M40.5612 134H20.0161V102.037C20.0181 100.211 20.7403 98.4609 22.0242 97.1698C23.308 95.8787 25.0487 95.1525 26.8644 95.1504H33.7128C35.5285 95.1525 37.2692 95.8787 38.5531 97.1698C39.8369 98.4609 40.5591 100.211 40.5611 102.037L40.5612 134ZM21.2667 132.742H39.3104V102.037C39.3088 100.545 38.7185 99.114 37.6691 98.0587C36.6197 97.0033 35.1968 96.4097 33.7127 96.408H26.8644C25.3803 96.4097 23.9574 97.0033 22.908 98.0586C21.8586 99.114 21.2683 100.545 21.2667 102.037V132.742Z" fill="#DB8E55"/>
<path d="M30.2886 113.004C33.2394 113.004 35.6315 110.599 35.6315 107.631C35.6315 104.664 33.2394 102.258 30.2886 102.258C27.3379 102.258 24.9458 104.664 24.9458 107.631C24.9458 110.599 27.3379 113.004 30.2886 113.004Z" fill="#282C3B"/>
<path d="M30.2887 113.364C29.1613 113.364 28.0592 113.027 27.1218 112.398C26.1844 111.768 25.4538 110.872 25.0223 109.825C24.5908 108.778 24.4779 107.625 24.6979 106.513C24.9178 105.401 25.4606 104.38 26.2578 103.578C27.055 102.776 28.0707 102.23 29.1764 102.009C30.2821 101.788 31.4283 101.901 32.4698 102.335C33.5114 102.769 34.4017 103.504 35.0281 104.446C35.6544 105.389 35.9888 106.497 35.9888 107.631C35.9871 109.151 35.386 110.608 34.3174 111.683C33.2488 112.757 31.8 113.362 30.2887 113.364V113.364ZM30.2887 102.618C29.3026 102.618 28.3387 102.912 27.5188 103.462C26.6989 104.013 26.0599 104.796 25.6825 105.713C25.3051 106.629 25.2064 107.637 25.3988 108.609C25.5911 109.582 26.066 110.475 26.7632 111.176C27.4605 111.878 28.3488 112.355 29.316 112.549C30.2831 112.742 31.2855 112.643 32.1965 112.263C33.1075 111.884 33.8862 111.241 34.434 110.417C34.9818 109.592 35.2742 108.623 35.2742 107.631C35.2726 106.302 34.7469 105.028 33.8123 104.088C32.8776 103.148 31.6105 102.619 30.2887 102.618Z" fill="#DB8E55"/>
<path d="M59.5522 113.004C62.503 113.004 64.8951 110.599 64.8951 107.631C64.8951 104.664 62.503 102.258 59.5522 102.258C56.6014 102.258 54.2093 104.664 54.2093 107.631C54.2093 110.599 56.6014 113.004 59.5522 113.004Z" fill="#282C3B"/>
<path d="M59.5522 113.364C58.4248 113.364 57.3228 113.027 56.3854 112.398C55.448 111.768 54.7173 110.872 54.2859 109.825C53.8544 108.778 53.7415 107.625 53.9615 106.513C54.1814 105.401 54.7243 104.38 55.5215 103.578C56.3186 102.776 57.3343 102.23 58.44 102.009C59.5458 101.788 60.6919 101.901 61.7335 102.335C62.775 102.769 63.6653 103.504 64.2917 104.446C64.918 105.389 65.2524 106.497 65.2524 107.631C65.2507 109.151 64.6496 110.608 63.581 111.683C62.5124 112.757 61.0635 113.362 59.5522 113.364V113.364ZM59.5522 102.618C58.5662 102.618 57.6023 102.912 56.7824 103.462C55.9625 104.013 55.3235 104.796 54.9461 105.713C54.5687 106.629 54.47 107.637 54.6624 108.609C54.8547 109.582 55.3295 110.475 56.0268 111.176C56.724 111.878 57.6124 112.355 58.5795 112.549C59.5466 112.742 60.5491 112.643 61.4601 112.263C62.3711 111.884 63.1497 111.241 63.6975 110.417C64.2454 109.592 64.5378 108.623 64.5378 107.631C64.5362 106.302 64.0105 105.028 63.0759 104.088C62.1412 103.148 60.874 102.619 59.5522 102.618V102.618Z" fill="#DB8E55"/>
<path d="M78.2893 113.004C81.2401 113.004 83.6321 110.599 83.6321 107.631C83.6321 104.664 81.2401 102.258 78.2893 102.258C75.3385 102.258 72.9464 104.664 72.9464 107.631C72.9464 110.599 75.3385 113.004 78.2893 113.004Z" fill="#282C3B"/>
<path d="M78.2893 113.364C77.1619 113.364 76.0598 113.027 75.1224 112.398C74.185 111.768 73.4543 110.872 73.0229 109.825C72.5914 108.778 72.4785 107.625 72.6985 106.513C72.9184 105.401 73.4613 104.38 74.2585 103.578C75.0557 102.776 76.0714 102.23 77.1771 102.009C78.2828 101.788 79.4289 101.901 80.4705 102.335C81.5121 102.769 82.4024 103.504 83.0287 104.447C83.6551 105.389 83.9894 106.497 83.9894 107.631C83.9877 109.151 83.3866 110.608 82.318 111.683C81.2494 112.757 79.8005 113.362 78.2893 113.364V113.364ZM78.2893 102.618C77.3032 102.618 76.3393 102.912 75.5194 103.463C74.6995 104.013 74.0605 104.796 73.6831 105.713C73.3058 106.629 73.2071 107.637 73.3994 108.609C73.5918 109.582 74.0667 110.475 74.7639 111.176C75.4612 111.878 76.3495 112.355 77.3166 112.549C78.2838 112.742 79.2862 112.643 80.1972 112.263C81.1082 111.884 81.8868 111.241 82.4347 110.417C82.9825 109.592 83.2749 108.623 83.2748 107.631C83.2733 106.302 82.7475 105.028 81.8129 104.088C80.8782 103.148 79.611 102.619 78.2893 102.618V102.618Z" fill="#DB8E55"/>
<path d="M132.581 127.649H3.7369V91.7631C3.7369 89.4048 4.66848 87.1431 6.32672 85.4755C7.98496 83.8079 10.234 82.8711 12.5791 82.8711H70.3881C76.2915 82.8711 82.006 84.9631 86.5278 88.7795L132.581 127.649Z" fill="#CDB39D"/>
<path d="M86.5278 88.7795C82.006 84.9631 76.2915 82.8711 70.3882 82.8711H64.0723C69.9756 82.8711 75.6901 84.9631 80.2119 88.7795L126.265 127.649H132.581L86.5278 88.7795Z" fill="white"/>
<path d="M5.2576 127.649H131.376C132.77 127.649 134.108 128.206 135.094 129.197C136.079 130.189 136.633 131.534 136.633 132.936V134H4.51907e-10V132.936C-9.05174e-06 132.242 0.135976 131.554 0.400191 130.913C0.664407 130.271 1.05168 129.688 1.53989 129.197C2.02811 128.706 2.6077 128.317 3.24559 128.051C3.88348 127.785 4.56716 127.649 5.2576 127.649V127.649Z" fill="#282C3B"/>
<path d="M27.9548 95.7793H32.6224C34.5621 95.7793 36.4223 96.5541 37.7938 97.9334C39.1653 99.3126 39.9358 101.183 39.9358 103.134V133.371H20.6414V103.134C20.6414 101.183 21.4119 99.3126 22.7834 97.9334C24.155 96.5541 26.0152 95.7793 27.9548 95.7793V95.7793Z" fill="#E7D0C1"/>
<path d="M40.5612 134H20.0161V102.037C20.0181 100.211 20.7403 98.4609 22.0242 97.1698C23.308 95.8787 25.0487 95.1525 26.8644 95.1504H33.7128C35.5285 95.1525 37.2692 95.8787 38.5531 97.1698C39.8369 98.4609 40.5591 100.211 40.5611 102.037L40.5612 134ZM21.2667 132.742H39.3104V102.037C39.3088 100.545 38.7185 99.114 37.6691 98.0587C36.6197 97.0033 35.1968 96.4097 33.7127 96.408H26.8644C25.3803 96.4097 23.9574 97.0033 22.908 98.0586C21.8586 99.114 21.2683 100.545 21.2667 102.037V132.742Z" fill="#DB8E55"/>
<path d="M30.2886 113.004C33.2394 113.004 35.6315 110.599 35.6315 107.631C35.6315 104.664 33.2394 102.258 30.2886 102.258C27.3379 102.258 24.9458 104.664 24.9458 107.631C24.9458 110.599 27.3379 113.004 30.2886 113.004Z" fill="#282C3B"/>
<path d="M30.2887 113.364C29.1613 113.364 28.0592 113.027 27.1218 112.398C26.1844 111.768 25.4538 110.872 25.0223 109.825C24.5908 108.778 24.4779 107.625 24.6979 106.513C24.9178 105.401 25.4606 104.38 26.2578 103.578C27.055 102.776 28.0707 102.23 29.1764 102.009C30.2821 101.788 31.4283 101.901 32.4698 102.335C33.5114 102.769 34.4017 103.504 35.0281 104.446C35.6544 105.389 35.9888 106.497 35.9888 107.631C35.9871 109.151 35.386 110.608 34.3174 111.683C33.2488 112.757 31.8 113.362 30.2887 113.364V113.364ZM30.2887 102.618C29.3026 102.618 28.3387 102.912 27.5188 103.462C26.6989 104.013 26.0599 104.796 25.6825 105.713C25.3051 106.629 25.2064 107.637 25.3988 108.609C25.5911 109.582 26.066 110.475 26.7632 111.176C27.4605 111.878 28.3488 112.355 29.316 112.549C30.2831 112.742 31.2855 112.643 32.1965 112.263C33.1075 111.884 33.8862 111.241 34.434 110.417C34.9818 109.592 35.2742 108.623 35.2742 107.631C35.2726 106.302 34.7469 105.028 33.8123 104.088C32.8776 103.148 31.6105 102.619 30.2887 102.618Z" fill="#DB8E55"/>
<path d="M59.5522 113.004C62.503 113.004 64.8951 110.599 64.8951 107.631C64.8951 104.664 62.503 102.258 59.5522 102.258C56.6014 102.258 54.2093 104.664 54.2093 107.631C54.2093 110.599 56.6014 113.004 59.5522 113.004Z" fill="#282C3B"/>
<path d="M59.5522 113.364C58.4248 113.364 57.3228 113.027 56.3854 112.398C55.448 111.768 54.7173 110.872 54.2859 109.825C53.8544 108.778 53.7415 107.625 53.9615 106.513C54.1814 105.401 54.7243 104.38 55.5215 103.578C56.3186 102.776 57.3343 102.23 58.44 102.009C59.5458 101.788 60.6919 101.901 61.7335 102.335C62.775 102.769 63.6653 103.504 64.2917 104.446C64.918 105.389 65.2524 106.497 65.2524 107.631C65.2507 109.151 64.6496 110.608 63.581 111.683C62.5124 112.757 61.0635 113.362 59.5522 113.364V113.364ZM59.5522 102.618C58.5662 102.618 57.6023 102.912 56.7824 103.462C55.9625 104.013 55.3235 104.796 54.9461 105.713C54.5687 106.629 54.47 107.637 54.6624 108.609C54.8547 109.582 55.3295 110.475 56.0268 111.176C56.724 111.878 57.6124 112.355 58.5795 112.549C59.5466 112.742 60.5491 112.643 61.4601 112.263C62.3711 111.884 63.1497 111.241 63.6975 110.417C64.2454 109.592 64.5378 108.623 64.5378 107.631C64.5362 106.302 64.0105 105.028 63.0759 104.088C62.1412 103.148 60.874 102.619 59.5522 102.618V102.618Z" fill="#DB8E55"/>
<path d="M78.2893 113.004C81.2401 113.004 83.6321 110.599 83.6321 107.631C83.6321 104.664 81.2401 102.258 78.2893 102.258C75.3385 102.258 72.9464 104.664 72.9464 107.631C72.9464 110.599 75.3385 113.004 78.2893 113.004Z" fill="#282C3B"/>
<path d="M78.2893 113.364C77.1619 113.364 76.0598 113.027 75.1224 112.398C74.185 111.768 73.4543 110.872 73.0229 109.825C72.5914 108.778 72.4785 107.625 72.6985 106.513C72.9184 105.401 73.4613 104.38 74.2585 103.578C75.0557 102.776 76.0714 102.23 77.1771 102.009C78.2828 101.788 79.4289 101.901 80.4705 102.335C81.5121 102.769 82.4024 103.504 83.0287 104.447C83.6551 105.389 83.9894 106.497 83.9894 107.631C83.9877 109.151 83.3866 110.608 82.318 111.683C81.2494 112.757 79.8005 113.362 78.2893 113.364V113.364ZM78.2893 102.618C77.3032 102.618 76.3393 102.912 75.5194 103.463C74.6995 104.013 74.0605 104.796 73.6831 105.713C73.3058 106.629 73.2071 107.637 73.3994 108.609C73.5918 109.582 74.0667 110.475 74.7639 111.176C75.4612 111.878 76.3495 112.355 77.3166 112.549C78.2838 112.742 79.2862 112.643 80.1972 112.263C81.1082 111.884 81.8868 111.241 82.4347 110.417C82.9825 109.592 83.2749 108.623 83.2748 107.631C83.2733 106.302 82.7475 105.028 81.8129 104.088C80.8782 103.148 79.611 102.619 78.2893 102.618V102.618Z" fill="#DB8E55"/>
<path opacity="0.34" d="M11.779 127.649H11.0422V91.7631C11.0422 89.4048 11.9738 87.1431 13.632 85.4755C15.2902 83.8079 17.5393 82.8711 19.8844 82.8711H12.5791C10.234 82.8711 7.98496 83.8079 6.32672 85.4755C4.66849 87.1431 3.7369 89.4048 3.7369 91.7631V127.649H4.47372C3.88622 127.649 3.30448 127.765 2.7617 127.991C2.21892 128.217 1.72574 128.549 1.31031 128.966C0.894891 129.384 0.565359 129.88 0.340535 130.426C0.115711 130.972 -3.01732e-06 131.557 0 132.148L0 134H7.30528V132.148C7.30526 131.557 7.42095 130.972 7.64577 130.426C7.87058 129.88 8.20011 129.384 8.61553 128.966C9.03096 128.549 9.52414 128.217 10.0669 127.991C10.6097 127.765 11.1915 127.649 11.779 127.649V127.649Z" fill="#A5450C"/>
</g>
<path d="M189.414 47C171.607 47 157.171 53.7295 157.171 63.6779V93.5882H221.658V63.6779C221.658 53.7945 207.222 47 189.414 47Z" fill="#E7D0C1"/>
<path d="M189.414 47C171.607 47 157.171 53.7295 157.171 63.6779V93.5882H221.658V63.6779C221.658 53.7945 207.222 47 189.414 47Z" fill="#E7D0C1"/>
<path opacity="0.8" d="M189.414 47C188.659 47 187.91 47.0123 187.168 47.037C203.932 47.58 217.176 54.2116 217.176 63.6779V93.5882H221.658V63.6779C221.658 53.7945 207.222 47 189.414 47Z" fill="white"/>
<path d="M164.516 57.3057H163.022V93.5882H164.516V57.3057Z" fill="#282C3B"/>
<path d="M191.78 57.3057H190.286V93.5882H191.78V57.3057Z" fill="#282C3B"/>
<path d="M208.462 57.3057H206.968V93.5882H208.462V57.3057Z" fill="#282C3B"/>
<path d="M189.414 58.3037C201.999 58.3037 213.395 60.6989 221.658 64.8374V63.6779C221.658 53.7945 207.222 47 189.414 47C171.607 47 157.171 53.7295 157.171 63.6779V64.803C165.434 60.676 176.83 58.3037 189.414 58.3037Z" fill="#DB8E55"/>
<path d="M225.673 96.9455H153.157L154.615 92.9007C154.974 91.9054 155.615 91.048 156.452 90.4428C157.289 89.8376 158.283 89.5134 159.301 89.5134H219.528C220.546 89.5134 221.54 89.8376 222.378 90.4428C223.215 91.048 223.856 91.9054 224.215 92.9007L225.673 96.9455Z" fill="#282C3B"/>
<path d="M175.824 69.2795H180.596C181.746 69.2795 182.849 69.7568 183.663 70.6063C184.476 71.4558 184.933 72.608 184.933 73.8094V96.4903H171.488V73.8094C171.488 72.608 171.944 71.4558 172.758 70.6063C173.571 69.7568 174.674 69.2795 175.824 69.2795V69.2795Z" fill="#E7D0C1"/>
<path d="M185.368 96.9456H171.052V73.8095C171.053 72.4879 171.557 71.2208 172.451 70.2862C173.346 69.3517 174.559 68.826 175.824 68.8245H180.596C181.862 68.826 183.075 69.3517 183.969 70.2862C184.864 71.2208 185.367 72.4879 185.368 73.8095V96.9456ZM171.923 96.0353H184.497V73.8095C184.496 72.7292 184.085 71.6935 183.353 70.9296C182.622 70.1657 181.631 69.736 180.596 69.7348H175.824C174.79 69.736 173.798 70.1657 173.067 70.9296C172.336 71.6935 171.924 72.7292 171.923 73.8095V96.0353Z" fill="#DB8E55"/>
<path d="M178.21 81.7478C180.266 81.7478 181.933 80.0066 181.933 77.8587C181.933 75.7107 180.266 73.9695 178.21 73.9695C176.154 73.9695 174.487 75.7107 174.487 77.8587C174.487 80.0066 176.154 81.7478 178.21 81.7478Z" fill="#282C3B"/>
<path d="M178.21 82.0079C177.425 82.0079 176.657 81.7645 176.003 81.3086C175.35 80.8527 174.841 80.2047 174.54 79.4465C174.24 78.6883 174.161 77.854 174.314 77.0491C174.468 76.2442 174.846 75.5049 175.401 74.9246C175.957 74.3443 176.665 73.9491 177.435 73.789C178.206 73.6289 179.004 73.711 179.73 74.0251C180.456 74.3391 181.076 74.871 181.513 75.5533C181.949 76.2357 182.182 77.0379 182.182 77.8586C182.181 78.9586 181.762 80.0133 181.018 80.7912C180.273 81.569 179.263 82.0066 178.21 82.0079V82.0079ZM178.21 74.2294C177.523 74.2294 176.851 74.4423 176.28 74.841C175.709 75.2398 175.263 75.8066 175 76.4697C174.738 77.1329 174.669 77.8626 174.803 78.5665C174.937 79.2705 175.268 79.9172 175.754 80.4247C176.239 80.9323 176.858 81.2779 177.532 81.418C178.206 81.558 178.905 81.4861 179.54 81.2115C180.174 80.9368 180.717 80.4716 181.099 79.8748C181.481 79.278 181.684 78.5763 181.684 77.8586C181.683 76.8964 181.317 75.974 180.666 75.2936C180.014 74.6133 179.131 74.2306 178.21 74.2294V74.2294Z" fill="#DB8E55"/>
<path d="M199.623 75.1868C201.679 75.1868 203.346 73.4456 203.346 71.2976C203.346 69.1497 201.679 67.4084 199.623 67.4084C197.567 67.4084 195.9 69.1497 195.9 71.2976C195.9 73.4456 197.567 75.1868 199.623 75.1868Z" fill="#282C3B"/>
<path d="M199.623 75.4471C198.837 75.4471 198.069 75.2037 197.416 74.7478C196.763 74.2919 196.254 73.6439 195.953 72.8857C195.652 72.1275 195.574 71.2932 195.727 70.4883C195.88 69.6834 196.259 68.9441 196.814 68.3638C197.37 67.7835 198.077 67.3883 198.848 67.2282C199.618 67.0681 200.417 67.1502 201.143 67.4643C201.869 67.7783 202.489 68.3102 202.925 68.9925C203.362 69.6749 203.595 70.4771 203.595 71.2978C203.594 72.3978 203.175 73.4525 202.43 74.2304C201.686 75.0082 200.676 75.4458 199.623 75.4471ZM199.623 67.6686C198.936 67.6686 198.264 67.8815 197.693 68.2802C197.121 68.679 196.676 69.2458 196.413 69.9089C196.15 70.572 196.081 71.3017 196.215 72.0057C196.349 72.7097 196.68 73.3564 197.166 73.8639C197.652 74.3715 198.271 74.7171 198.945 74.8571C199.619 74.9972 200.317 74.9253 200.952 74.6506C201.587 74.376 202.13 73.9108 202.511 73.314C202.893 72.7172 203.097 72.0155 203.097 71.2978C203.096 70.3356 202.73 69.4132 202.078 68.7328C201.427 68.0525 200.544 67.6698 199.623 67.6686V67.6686Z" fill="#DB8E55"/>
<path d="M214.935 75.1868C216.992 75.1868 218.658 73.4456 218.658 71.2976C218.658 69.1497 216.992 67.4084 214.935 67.4084C212.879 67.4084 211.212 69.1497 211.212 71.2976C211.212 73.4456 212.879 75.1868 214.935 75.1868Z" fill="#282C3B"/>
<path d="M214.935 75.4471C214.15 75.4471 213.382 75.2037 212.729 74.7478C212.075 74.2919 211.566 73.6439 211.266 72.8857C210.965 72.1275 210.886 71.2932 211.039 70.4883C211.193 69.6834 211.571 68.9441 212.127 68.3638C212.682 67.7835 213.39 67.3883 214.16 67.2282C214.931 67.0681 215.73 67.1502 216.455 67.4643C217.181 67.7783 217.802 68.3102 218.238 68.9925C218.674 69.6749 218.907 70.4771 218.907 71.2978C218.906 72.3978 218.487 73.4525 217.743 74.2304C216.998 75.0082 215.988 75.4458 214.935 75.4471ZM214.935 67.6686C214.248 67.6686 213.577 67.8815 213.005 68.2802C212.434 68.679 211.989 69.2458 211.726 69.9089C211.463 70.5721 211.394 71.3018 211.528 72.0057C211.662 72.7097 211.993 73.3564 212.479 73.8639C212.965 74.3715 213.584 74.7171 214.258 74.8571C214.931 74.9972 215.63 74.9253 216.265 74.6506C216.9 74.376 217.442 73.9108 217.824 73.314C218.206 72.7172 218.409 72.0155 218.409 71.2978C218.408 70.3356 218.042 69.4132 217.391 68.7328C216.739 68.0525 215.856 67.6697 214.935 67.6686V67.6686Z" fill="#DB8E55"/>
<path opacity="0.34" d="M163.407 90.0114V63.6779C163.407 54.3173 176.188 47.8079 192.532 47.0712C191.506 47.0245 190.467 47.0008 189.414 47C189.059 47 188.706 47.0037 188.354 47.0089C188.301 47.0098 188.247 47.0108 188.194 47.0118C187.851 47.0178 187.509 47.0262 187.168 47.037H187.168C170.409 47.5777 157.171 54.1515 157.171 63.6779V90.0114C155.991 90.5902 155.074 91.6268 154.615 92.9008L153.157 96.9455H159.393L160.851 92.9008C161.31 91.6268 162.227 90.5902 163.407 90.0114V90.0114Z" fill="#A5450C"/>
<path d="M227 96.9999C227 96.9999 213.606 92.778 205.534 93.9091C197.462 95.0402 191.752 94.545 188.996 95.3582C186.239 96.1714 172.949 94.8346 166.748 94.5261C160.546 94.2176 147 96.9999 147 96.9999H227Z" fill="#EC703A"/>
<defs>
<clipPath id="clip0">
<rect width="139" height="134" fill="white"/>
</clipPath>
</defs>
</svg>
