<svg width="117" height="70" viewBox="0 0 117 70" fill="none" xmlns="http://www.w3.org/2000/svg">
<path d="M62.0311 0C35.9876 0 14.8751 9.42125 14.8751 23.3491V65.2235H109.187V23.3491C109.187 9.51228 88.0747 0 62.0311 0Z" fill="#E7D0C1"/>
<path d="M62.0311 0C35.9876 0 14.8751 9.42125 14.8751 23.3491V65.2235H109.187V23.3491C109.187 9.51228 88.0747 0 62.0311 0Z" fill="#E7D0C1"/>
<path opacity="0.8" d="M62.0311 0C60.9263 0 59.8311 0.0172875 58.7454 0.0518624C83.2636 0.811968 102.633 10.0962 102.633 23.3491V65.2235H109.187V23.3491C109.187 9.51228 88.0747 0 62.0311 0Z" fill="white"/>
<path d="M25.6172 14.428H23.4324V65.2235H25.6172V14.428Z" fill="#282C3B"/>
<path d="M65.4905 14.428H63.3056V65.2235H65.4905V14.428Z" fill="#282C3B"/>
<path d="M89.8878 14.428H87.7029V65.2235H89.8878V14.428Z" fill="#282C3B"/>
<path d="M62.0311 15.8252C80.4365 15.8252 97.1032 19.1785 109.187 24.9724V23.3491C109.187 9.51228 88.0747 0 62.0311 0C35.9876 0 14.8751 9.42125 14.8751 23.3491V24.9242C26.9591 19.1464 43.6259 15.8252 62.0311 15.8252Z" fill="#DB8E55"/>
<path d="M115.059 69.9239H9.00421L11.137 64.2612C11.6619 62.8678 12.599 61.6674 13.8235 60.8202C15.048 59.9729 16.5017 59.519 17.9908 59.519H106.073C107.562 59.519 109.015 59.9729 110.24 60.8202C111.464 61.6674 112.401 62.8678 112.926 64.2612L115.059 69.9239Z" fill="#282C3B"/>
<path d="M42.1552 31.1914H49.1346C50.8166 31.1914 52.4297 31.8596 53.6191 33.0489C54.8085 34.2382 55.4767 35.8513 55.4767 37.5333V69.2865H35.8131V37.5333C35.8131 35.8513 36.4813 34.2382 37.6707 33.0489C38.86 31.8596 40.4732 31.1914 42.1552 31.1914V31.1914Z" fill="#E7D0C1"/>
<path d="M56.1139 69.9238H35.1759V37.5333C35.178 35.683 35.9139 33.909 37.2223 32.6007C38.5308 31.2923 40.3048 30.5563 42.1551 30.5542H49.1346C50.985 30.5563 52.759 31.2923 54.0674 32.6007C55.3758 33.9091 56.1118 35.683 56.1139 37.5333V69.9238ZM36.4504 68.6494H54.8394V37.5333C54.8377 36.0209 54.2361 34.5709 53.1666 33.5014C52.0972 32.4319 50.6471 31.8303 49.1346 31.8286H42.1551C40.6427 31.8303 39.1926 32.4319 38.1231 33.5014C37.0536 34.5709 36.4521 36.0209 36.4504 37.5333V68.6494Z" fill="#DB8E55"/>
<path d="M45.6449 48.647C48.6521 48.647 51.09 46.2093 51.09 43.2022C51.09 40.1951 48.6521 37.7573 45.6449 37.7573C42.6377 37.7573 40.1999 40.1951 40.1999 43.2022C40.1999 46.2093 42.6377 48.647 45.6449 48.647Z" fill="#282C3B"/>
<path d="M45.645 49.0112C44.496 49.0112 43.3728 48.6705 42.4175 48.0322C41.4621 47.3939 40.7175 46.4867 40.2778 45.4252C39.8381 44.3637 39.7231 43.1957 39.9472 42.0689C40.1714 40.942 40.7246 39.9069 41.5371 39.0945C42.3495 38.2821 43.3846 37.7288 44.5115 37.5047C45.6384 37.2805 46.8064 37.3956 47.868 37.8353C48.9295 38.2749 49.8368 39.0195 50.4751 39.9748C51.1134 40.9301 51.4541 42.0532 51.4541 43.2021C51.4524 44.7422 50.8398 46.2187 49.7507 47.3078C48.6617 48.3968 47.1851 49.0094 45.645 49.0112V49.0112ZM45.645 38.1214C44.64 38.1213 43.6577 38.4193 42.8221 38.9776C41.9865 39.5359 41.3353 40.3294 40.9507 41.2577C40.5661 42.1861 40.4655 43.2077 40.6615 44.1933C40.8576 45.1789 41.3415 46.0842 42.0521 46.7948C42.7627 47.5053 43.668 47.9892 44.6536 48.1853C45.6392 48.3813 46.6608 48.2807 47.5893 47.8962C48.5177 47.5116 49.3112 46.8604 49.8695 46.0249C50.4278 45.1893 50.7258 44.207 50.7258 43.2021C50.7243 41.8551 50.1885 40.5637 49.236 39.6112C48.2835 38.6587 46.992 38.1229 45.645 38.1214V38.1214Z" fill="#DB8E55"/>
<path d="M76.9609 39.4615C79.9681 39.4615 82.406 37.0238 82.406 34.0166C82.406 31.0095 79.9681 28.5718 76.9609 28.5718C73.9537 28.5718 71.5158 31.0095 71.5158 34.0166C71.5158 37.0238 73.9537 39.4615 76.9609 39.4615Z" fill="#282C3B"/>
<path d="M76.9609 39.8256C75.8119 39.8256 74.6888 39.485 73.7334 38.8467C72.7781 38.2084 72.0335 37.3011 71.5938 36.2397C71.1541 35.1782 71.039 34.0102 71.2632 32.8833C71.4873 31.7565 72.0406 30.7214 72.853 29.909C73.6654 29.0966 74.7006 28.5433 75.8274 28.3191C76.9543 28.095 78.1224 28.21 79.1839 28.6497C80.2454 29.0894 81.1527 29.8339 81.791 30.7892C82.4294 31.7445 82.7701 32.8676 82.7701 34.0166C82.7683 35.5567 82.1557 37.0332 81.0667 38.1222C79.9776 39.2112 78.5011 39.8238 76.9609 39.8256ZM76.9609 28.9358C75.956 28.9358 74.9736 29.2337 74.1381 29.792C73.3025 30.3503 72.6512 31.1438 72.2667 32.0722C71.8821 33.0006 71.7814 34.0221 71.9775 35.0077C72.1735 35.9933 72.6574 36.8986 73.368 37.6092C74.0786 38.3198 74.9839 38.8037 75.9696 38.9997C76.9552 39.1958 77.9768 39.0951 78.9052 38.7106C79.8336 38.326 80.6272 37.6748 81.1855 36.8393C81.7438 36.0038 82.0418 35.0215 82.0418 34.0166C82.0403 32.6695 81.5045 31.3781 80.5519 30.4257C79.5994 29.4732 78.308 28.9374 76.9609 28.9358V28.9358Z" fill="#DB8E55"/>
<path d="M99.3554 39.4615C102.363 39.4615 104.8 37.0238 104.8 34.0166C104.8 31.0095 102.363 28.5718 99.3554 28.5718C96.3482 28.5718 93.9104 31.0095 93.9104 34.0166C93.9104 37.0238 96.3482 39.4615 99.3554 39.4615Z" fill="#282C3B"/>
<path d="M99.3555 39.8256C98.2065 39.8256 97.0833 39.485 96.128 38.8467C95.1727 38.2084 94.4281 37.3011 93.9883 36.2397C93.5486 35.1782 93.4336 34.0102 93.6577 32.8833C93.8819 31.7565 94.4351 30.7214 95.2476 29.909C96.06 29.0966 97.0951 28.5433 98.222 28.3191C99.3489 28.095 100.517 28.21 101.578 28.6497C102.64 29.0894 103.547 29.8339 104.186 30.7892C104.824 31.7445 105.165 32.8676 105.165 34.0166C105.163 35.5567 104.55 37.0332 103.461 38.1222C102.372 39.2112 100.896 39.8238 99.3555 39.8256ZM99.3555 28.9358C98.3506 28.9358 97.3682 29.2337 96.5326 29.792C95.6971 30.3503 95.0458 31.1438 94.6612 32.0722C94.2767 33.0006 94.176 34.0222 94.3721 35.0077C94.5681 35.9933 95.052 36.8986 95.7626 37.6092C96.4732 38.3198 97.3785 38.8037 98.3641 38.9997C99.3498 39.1958 100.371 39.0951 101.3 38.7106C102.228 38.326 103.022 37.6748 103.58 36.8393C104.138 36.0038 104.436 35.0215 104.436 34.0166C104.435 32.6695 103.899 31.3781 102.947 30.4256C101.994 29.4732 100.703 28.9374 99.3555 28.9358V28.9358Z" fill="#DB8E55"/>
<path opacity="0.34" d="M23.995 60.2159V23.3491C23.995 10.2442 42.6873 1.13106 66.5906 0.0996534C65.09 0.0343453 63.5702 0.00112744 62.0311 0C61.5119 0 60.9955 0.00511525 60.4802 0.0125271C60.402 0.0137172 60.324 0.0151787 60.2459 0.016515C59.744 0.0248664 59.244 0.0366349 58.746 0.0518206H58.7453C34.2352 0.808794 14.8751 10.0121 14.8751 23.3491V60.2159C13.15 61.0263 11.8089 62.4775 11.137 64.2611L9.00421 69.9238H18.1241L20.257 64.2611C20.9288 62.4775 22.2699 61.0263 23.995 60.2159V60.2159Z" fill="#A5450C"/>
<path d="M117 70C117 70 97.4116 64.0893 85.6058 65.6729C73.8001 67.2564 65.4497 66.5632 61.4185 67.7017C57.3873 68.8401 37.9511 66.9685 28.8809 66.5367C19.8106 66.1048 0 70 0 70H117Z" fill="#EC703A"/>
</svg>
