<svg width="117" height="70" viewBox="0 0 117 70" fill="none" xmlns="http://www.w3.org/2000/svg">
<path d="M62.031 0C35.9875 0 14.875 9.42125 14.875 23.3491V65.2235H109.187V23.3491C109.187 9.51228 88.0746 0 62.031 0Z" fill="#98603B"/>
<path d="M62.031 0C35.9875 0 14.875 9.42125 14.875 23.3491V65.2235H109.187V23.3491C109.187 9.51228 88.0746 0 62.031 0Z" fill="#98603B"/>
<path opacity="0.8" d="M62.0311 0C60.9263 0 59.8311 0.0172875 58.7454 0.0518624C83.2636 0.811968 102.633 10.0962 102.633 23.3491V65.2235H109.187V23.3491C109.187 9.51228 88.0747 0 62.0311 0Z" fill="#7F7F7F"/>
<path d="M25.6172 14.428H23.4324V65.2235H25.6172V14.428Z" fill="#13151D"/>
<path d="M65.4905 14.428H63.3057V65.2235H65.4905V14.428Z" fill="#13151D"/>
<path d="M89.8877 14.428H87.7029V65.2235H89.8877V14.428Z" fill="#13151D"/>
<path d="M62.0313 15.8252C80.4366 15.8252 97.1033 19.1785 109.187 24.9724V23.3491C109.187 9.51228 88.0748 0 62.0313 0C35.9877 0 14.8752 9.42125 14.8752 23.3491V24.9242C26.9593 19.1464 43.626 15.8252 62.0313 15.8252Z" fill="#7D441A"/>
<path d="M115.059 69.9239H9.00415L11.137 64.2612C11.6618 62.8678 12.599 61.6674 13.8235 60.8202C15.048 59.9729 16.5017 59.519 17.9907 59.519H106.073C107.562 59.519 109.015 59.9729 110.24 60.8202C111.464 61.6674 112.401 62.8678 112.926 64.2612L115.059 69.9239Z" fill="#13151D"/>
<path d="M42.1551 31.1914H49.1344C50.8165 31.1914 52.4296 31.8596 53.619 33.0489C54.8083 34.2382 55.4765 35.8513 55.4765 37.5333V69.2865H35.813V37.5333C35.813 35.8513 36.4812 34.2382 37.6705 33.0489C38.8599 31.8596 40.4731 31.1914 42.1551 31.1914V31.1914Z" fill="#98603B"/>
<path d="M56.1138 69.9238H35.1758V37.5333C35.1779 35.683 35.9138 33.909 37.2223 32.6007C38.5307 31.2923 40.3047 30.5563 42.1551 30.5542H49.1345C50.9849 30.5563 52.7589 31.2923 54.0673 32.6007C55.3757 33.9091 56.1117 35.683 56.1138 37.5333V69.9238ZM36.4503 68.6494H54.8393V37.5333C54.8376 36.0209 54.236 34.5709 53.1665 33.5014C52.0971 32.4319 50.647 31.8303 49.1345 31.8286H42.1551C40.6426 31.8303 39.1925 32.4319 38.123 33.5014C37.0535 34.5709 36.452 36.0209 36.4503 37.5333V68.6494Z" fill="#7D441A"/>
<path d="M45.645 48.647C48.6522 48.647 51.0901 46.2093 51.0901 43.2022C51.0901 40.1951 48.6522 37.7573 45.645 37.7573C42.6378 37.7573 40.2 40.1951 40.2 43.2022C40.2 46.2093 42.6378 48.647 45.645 48.647Z" fill="#13151D"/>
<path d="M45.6451 49.0112C44.4961 49.0112 43.3729 48.6705 42.4176 48.0322C41.4622 47.3939 40.7176 46.4867 40.2779 45.4252C39.8382 44.3637 39.7232 43.1957 39.9473 42.0689C40.1714 40.942 40.7247 39.9069 41.5372 39.0945C42.3496 38.2821 43.3847 37.7288 44.5116 37.5047C45.6385 37.2805 46.8065 37.3956 47.868 37.8353C48.9296 38.2749 49.8368 39.0195 50.4752 39.9748C51.1135 40.9301 51.4542 42.0532 51.4542 43.2021C51.4524 44.7422 50.8398 46.2187 49.7508 47.3078C48.6618 48.3968 47.1852 49.0094 45.6451 49.0112V49.0112ZM45.6451 38.1214C44.6401 38.1213 43.6578 38.4193 42.8222 38.9776C41.9866 39.5359 41.3354 40.3294 40.9508 41.2577C40.5662 42.1861 40.4656 43.2077 40.6616 44.1933C40.8577 45.1789 41.3416 46.0842 42.0522 46.7948C42.7627 47.5053 43.6681 47.9892 44.6537 48.1853C45.6393 48.3813 46.6609 48.2807 47.5894 47.8962C48.5178 47.5116 49.3113 46.8604 49.8696 46.0249C50.4279 45.1893 50.7259 44.207 50.7259 43.2021C50.7244 41.8551 50.1886 40.5637 49.2361 39.6112C48.2836 38.6587 46.9921 38.1229 45.6451 38.1214V38.1214Z" fill="#7D441A"/>
<path d="M76.9609 39.4615C79.9682 39.4615 82.406 37.0238 82.406 34.0166C82.406 31.0095 79.9682 28.5718 76.9609 28.5718C73.9537 28.5718 71.5159 31.0095 71.5159 34.0166C71.5159 37.0238 73.9537 39.4615 76.9609 39.4615Z" fill="#13151D"/>
<path d="M76.961 39.8256C75.812 39.8256 74.6888 39.485 73.7335 38.8467C72.7782 38.2084 72.0336 37.3011 71.5938 36.2397C71.1541 35.1782 71.0391 34.0102 71.2632 32.8833C71.4874 31.7565 72.0406 30.7214 72.8531 29.909C73.6655 29.0966 74.7006 28.5433 75.8275 28.3191C76.9544 28.095 78.1224 28.21 79.184 28.6497C80.2455 29.0894 81.1528 29.8339 81.7911 30.7892C82.4294 31.7445 82.7701 32.8676 82.7701 34.0166C82.7684 35.5567 82.1558 37.0332 81.0667 38.1222C79.9777 39.2112 78.5011 39.8238 76.961 39.8256ZM76.961 28.9358C75.9561 28.9358 74.9737 29.2337 74.1381 29.792C73.3026 30.3503 72.6513 31.1438 72.2667 32.0722C71.8821 33.0006 71.7815 34.0221 71.9775 35.0077C72.1736 35.9933 72.6575 36.8986 73.3681 37.6092C74.0787 38.3198 74.984 38.8037 75.9696 38.9997C76.9552 39.1958 77.9768 39.0951 78.9053 38.7106C79.8337 38.326 80.6273 37.6748 81.1856 36.8393C81.7439 36.0038 82.0419 35.0215 82.0419 34.0166C82.0403 32.6695 81.5045 31.3781 80.552 30.4257C79.5995 29.4732 78.308 28.9374 76.961 28.9358V28.9358Z" fill="#7D441A"/>
<path d="M99.3555 39.4615C102.363 39.4615 104.801 37.0238 104.801 34.0166C104.801 31.0095 102.363 28.5718 99.3555 28.5718C96.3482 28.5718 93.9104 31.0095 93.9104 34.0166C93.9104 37.0238 96.3482 39.4615 99.3555 39.4615Z" fill="#13151D"/>
<path d="M99.3555 39.8256C98.2065 39.8256 97.0834 39.485 96.128 38.8467C95.1727 38.2084 94.4281 37.3011 93.9884 36.2397C93.5487 35.1782 93.4336 34.0102 93.6578 32.8833C93.8819 31.7565 94.4352 30.7214 95.2476 29.909C96.06 29.0966 97.0951 28.5433 98.222 28.3191C99.3489 28.095 100.517 28.21 101.578 28.6497C102.64 29.0894 103.547 29.8339 104.186 30.7892C104.824 31.7445 105.165 32.8676 105.165 34.0166C105.163 35.5567 104.55 37.0332 103.461 38.1222C102.372 39.2112 100.896 39.8238 99.3555 39.8256ZM99.3555 28.9358C98.3506 28.9358 97.3682 29.2337 96.5327 29.792C95.6971 30.3503 95.0458 31.1438 94.6613 32.0722C94.2767 33.0006 94.1761 34.0222 94.3721 35.0077C94.5681 35.9933 95.0521 36.8986 95.7626 37.6092C96.4732 38.3198 97.3786 38.8037 98.3642 38.9997C99.3498 39.1958 100.371 39.0951 101.3 38.7106C102.228 38.326 103.022 37.6748 103.58 36.8393C104.138 36.0038 104.436 35.0215 104.436 34.0166C104.435 32.6695 103.899 31.3781 102.947 30.4256C101.994 29.4732 100.703 28.9374 99.3555 28.9358V28.9358Z" fill="#7D441A"/>
<path opacity="0.34" d="M23.9949 60.2159V23.3491C23.9949 10.2442 42.6873 1.13106 66.5905 0.0996534C65.0899 0.0343453 63.5701 0.00112744 62.0311 0C61.5118 0 60.9954 0.00511525 60.4802 0.0125271C60.4019 0.0137172 60.324 0.0151787 60.2459 0.016515C59.7439 0.0248664 59.2439 0.0366349 58.7459 0.0518206H58.7453C34.2351 0.808794 14.875 10.0121 14.875 23.3491V60.2159C13.1499 61.0263 11.8088 62.4775 11.137 64.2611L9.00415 69.9238H18.124L20.2569 64.2611C20.9288 62.4775 22.2698 61.0263 23.9949 60.2159V60.2159Z" fill="#522205"/>
<path d="M117 70C117 70 97.4116 64.0893 85.6058 65.6729C73.8001 67.2564 65.4497 66.5632 61.4185 67.7017C57.3873 68.8401 37.9511 66.9685 28.8809 66.5367C19.8106 66.1048 0 70 0 70H117Z" fill="#86310C"/>
</svg>
