<svg width="80" height="50" viewBox="0 0 80 50" fill="none" xmlns="http://www.w3.org/2000/svg">
<path d="M42.4145 0C24.6069 0 10.171 6.72946 10.171 16.6779V46.5882H74.6579V16.6779C74.6579 6.79449 60.222 0 42.4145 0Z" fill="#E7D0C1"/>
<path d="M42.4145 0C24.6069 0 10.171 6.72946 10.171 16.6779V46.5882H74.6579V16.6779C74.6579 6.79449 60.222 0 42.4145 0Z" fill="#E7D0C1"/>
<path opacity="0.8" d="M42.4144 0C41.659 0 40.9101 0.0123482 40.1678 0.0370446C56.9324 0.579977 70.1762 7.21157 70.1762 16.6779V46.5882H74.6579V16.6779C74.6579 6.79449 60.222 0 42.4144 0Z" fill="white"/>
<path d="M17.516 10.3057H16.0221V46.5882H17.516V10.3057Z" fill="#282C3B"/>
<path d="M44.7798 10.3057H43.2859V46.5882H44.7798V10.3057Z" fill="#282C3B"/>
<path d="M61.4617 10.3057H59.9678V46.5882H61.4617V10.3057Z" fill="#282C3B"/>
<path d="M42.4145 11.3037C54.9993 11.3037 66.3953 13.6989 74.6579 17.8374V16.6779C74.6579 6.79449 60.222 0 42.4145 0C24.6069 0 10.171 6.72947 10.171 16.6779V17.803C18.4336 13.676 29.8296 11.3037 42.4145 11.3037Z" fill="#DB8E55"/>
<path d="M78.673 49.9455H6.15673L7.61507 45.9007C7.97394 44.9054 8.61473 44.048 9.452 43.4428C10.2893 42.8376 11.2832 42.5134 12.3014 42.5134H72.5283C73.5464 42.5134 74.5404 42.8376 75.3777 43.4428C76.2149 44.048 76.8557 44.9054 77.2146 45.9007L78.673 49.9455Z" fill="#282C3B"/>
<path d="M28.8241 22.2795H33.5963C34.7464 22.2795 35.8494 22.7568 36.6626 23.6063C37.4759 24.4558 37.9328 25.608 37.9328 26.8094V49.4903H24.4876V26.8094C24.4876 25.608 24.9445 24.4558 25.7577 23.6063C26.571 22.7568 27.674 22.2795 28.8241 22.2795V22.2795Z" fill="#E7D0C1"/>
<path d="M38.3685 49.9456H24.0519V26.8095C24.0533 25.4879 24.5565 24.2208 25.4512 23.2862C26.3458 22.3517 27.5588 21.826 28.824 21.8245H33.5963C34.8615 21.826 36.0745 22.3517 36.9692 23.2862C37.8638 24.2208 38.367 25.4879 38.3685 26.8095V49.9456ZM24.9233 49.0353H37.497V26.8095C37.4959 25.7292 37.0845 24.6935 36.3533 23.9296C35.622 23.1657 34.6305 22.736 33.5963 22.7348H28.824C27.7899 22.736 26.7984 23.1657 26.0671 23.9296C25.3358 24.6935 24.9245 25.7292 24.9233 26.8095V49.0353Z" fill="#DB8E55"/>
<path d="M31.2102 34.7478C33.2664 34.7478 34.9333 33.0066 34.9333 30.8587C34.9333 28.7107 33.2664 26.9695 31.2102 26.9695C29.154 26.9695 27.4871 28.7107 27.4871 30.8587C27.4871 33.0066 29.154 34.7478 31.2102 34.7478Z" fill="#282C3B"/>
<path d="M31.2102 35.0079C30.4246 35.0079 29.6566 34.7645 29.0034 34.3086C28.3502 33.8527 27.841 33.2047 27.5404 32.4465C27.2397 31.6883 27.1611 30.854 27.3143 30.0491C27.4676 29.2442 27.8459 28.5049 28.4014 27.9246C28.9569 27.3443 29.6647 26.9491 30.4352 26.789C31.2057 26.6289 32.0044 26.711 32.7302 27.0251C33.456 27.3391 34.0764 27.871 34.5129 28.5533C34.9493 29.2357 35.1823 30.0379 35.1823 30.8586C35.1811 31.9586 34.7622 33.0133 34.0176 33.7912C33.2729 34.569 32.2633 35.0066 31.2102 35.0079V35.0079ZM31.2102 27.2294C30.5231 27.2294 29.8514 27.4423 29.2801 27.841C28.7087 28.2398 28.2634 28.8066 28.0005 29.4697C27.7375 30.1329 27.6687 30.8626 27.8027 31.5665C27.9368 32.2705 28.2677 32.9172 28.7535 33.4247C29.2394 33.9323 29.8584 34.2779 30.5324 34.418C31.2063 34.558 31.9048 34.4861 32.5397 34.2115C33.1745 33.9368 33.7171 33.4716 34.0988 32.8748C34.4806 32.278 34.6843 31.5763 34.6843 30.8586C34.6833 29.8964 34.3169 28.974 33.6656 28.2936C33.0143 27.6133 32.1313 27.2306 31.2102 27.2294V27.2294Z" fill="#DB8E55"/>
<path d="M52.6228 28.1868C54.6791 28.1868 56.346 26.4456 56.346 24.2976C56.346 22.1497 54.6791 20.4084 52.6228 20.4084C50.5666 20.4084 48.8997 22.1497 48.8997 24.2976C48.8997 26.4456 50.5666 28.1868 52.6228 28.1868Z" fill="#282C3B"/>
<path d="M52.6229 28.4471C51.8372 28.4471 51.0693 28.2037 50.416 27.7478C49.7628 27.2919 49.2537 26.6439 48.953 25.8857C48.6524 25.1275 48.5737 24.2932 48.727 23.4883C48.8802 22.6834 49.2585 21.9441 49.814 21.3638C50.3695 20.7835 51.0773 20.3883 51.8478 20.2282C52.6184 20.0681 53.417 20.1502 54.1428 20.4643C54.8687 20.7783 55.489 21.3102 55.9255 21.9925C56.362 22.6749 56.5949 23.4771 56.5949 24.2978C56.5937 25.3978 56.1749 26.4525 55.4302 27.2304C54.6856 28.0082 53.676 28.4458 52.6229 28.4471ZM52.6229 20.6686C51.9357 20.6686 51.264 20.8815 50.6927 21.2802C50.1214 21.679 49.6761 22.2458 49.4131 22.9089C49.1501 23.572 49.0813 24.3017 49.2154 25.0057C49.3494 25.7097 49.6803 26.3564 50.1662 26.8639C50.652 27.3715 51.2711 27.7171 51.945 27.8571C52.6189 27.9972 53.3175 27.9253 53.9523 27.6506C54.5871 27.376 55.1297 26.9108 55.5115 26.314C55.8932 25.7172 56.097 25.0155 56.097 24.2978C56.0959 23.3356 55.7295 22.4132 55.0783 21.7328C54.427 21.0525 53.5439 20.6698 52.6229 20.6686V20.6686Z" fill="#DB8E55"/>
<path d="M67.9353 28.1868C69.9915 28.1868 71.6584 26.4456 71.6584 24.2976C71.6584 22.1497 69.9915 20.4084 67.9353 20.4084C65.8791 20.4084 64.2122 22.1497 64.2122 24.2976C64.2122 26.4456 65.8791 28.1868 67.9353 28.1868Z" fill="#282C3B"/>
<path d="M67.9354 28.4471C67.1498 28.4471 66.3818 28.2037 65.7286 27.7478C65.0753 27.2919 64.5662 26.6439 64.2655 25.8857C63.9649 25.1275 63.8862 24.2932 64.0395 23.4883C64.1927 22.6834 64.571 21.9441 65.1266 21.3638C65.6821 20.7835 66.3898 20.3883 67.1604 20.2282C67.9309 20.0681 68.7295 20.1502 69.4554 20.4643C70.1812 20.7783 70.8015 21.3102 71.238 21.9925C71.6745 22.6749 71.9074 23.4771 71.9074 24.2978C71.9062 25.3978 71.4874 26.4525 70.7427 27.2304C69.9981 28.0082 68.9885 28.4458 67.9354 28.4471ZM67.9354 20.6686C67.2483 20.6686 66.5766 20.8815 66.0052 21.2802C65.4339 21.679 64.9886 22.2458 64.7256 22.9089C64.4627 23.5721 64.3939 24.3018 64.5279 25.0057C64.662 25.7097 64.9928 26.3564 65.4787 26.8639C65.9646 27.3715 66.5836 27.7171 67.2575 27.8571C67.9315 27.9972 68.63 27.9253 69.2648 27.6506C69.8997 27.376 70.4422 26.9108 70.824 26.314C71.2057 25.7172 71.4095 25.0155 71.4095 24.2978C71.4084 23.3356 71.0421 22.4132 70.3908 21.7328C69.7395 21.0525 68.8565 20.6697 67.9354 20.6686V20.6686Z" fill="#DB8E55"/>
<path opacity="0.34" d="M16.4068 43.0114V16.6779C16.4068 7.3173 29.1879 0.807896 45.532 0.071181C44.506 0.0245323 43.4668 0.000805317 42.4144 0C42.0594 0 41.7063 0.00365375 41.354 0.00894796C41.3005 0.00979802 41.2472 0.0108419 41.1938 0.0117964C40.8506 0.0177617 40.5087 0.0261678 40.1682 0.0370147H40.1678C23.4087 0.57771 10.171 7.15149 10.171 16.6779V43.0114C8.99143 43.5902 8.07447 44.6268 7.61507 45.9008L6.15673 49.9455H12.3925L13.8509 45.9008C14.3103 44.6268 15.2273 43.5902 16.4068 43.0114V43.0114Z" fill="#A5450C"/>
<path d="M80 49.9999C80 49.9999 66.6062 45.778 58.5339 46.9091C50.4616 48.0402 44.752 47.545 41.9956 48.3582C39.2392 49.1714 25.9495 47.8346 19.7476 47.5261C13.5457 47.2176 0 49.9999 0 49.9999H80Z" fill="#EC703A"/>
</svg>
