<svg width="47" height="20" viewBox="0 0 47 20" fill="none" xmlns="http://www.w3.org/2000/svg">
<g opacity="0.7">
<path opacity="0.7" d="M4.93511 9.61605C5.19218 7.61856 6.02387 5.81927 7.26442 4.5768C8.50497 3.33432 10.0633 2.73993 11.6287 2.91209C13.1942 3.08425 14.6518 4.01031 15.711 5.50571C16.7703 7.0011 17.3534 8.95599 17.3441 10.9807C17.3441 11.0205 17.3441 11.0593 17.3441 11.0991C17.5752 11.1442 17.8039 11.2073 18.029 11.2882C18.3173 9.80853 18.9555 8.48101 19.8551 7.48943C20.7547 6.49785 21.8713 5.8913 23.0503 5.75374C24.2293 5.61619 25.4123 5.95444 26.4354 6.72168C27.4586 7.48891 28.2714 8.64716 28.7612 10.036C29.2661 9.78503 29.7963 9.62889 30.3357 9.57241V9.57241C30.4217 8.94302 30.5659 8.32921 30.7654 7.74412C30.859 5.89798 31.4893 4.1652 32.5304 2.89147C33.5716 1.61774 34.9471 0.896709 36.3826 0.872226C37.818 0.847744 39.2078 1.52161 40.2748 2.75939C41.3417 3.99716 42.0074 5.70784 42.1388 7.55013C42.4344 8.35659 42.6231 9.22108 42.6973 10.1078C44.0037 10.8083 45.0618 12.1089 45.6665 13.7575C46.2713 15.4061 46.3795 17.2854 45.9704 19.031H0.243341C0.00498486 18.0128 -0.0592583 16.9402 0.0550321 15.8869C0.169323 14.8336 0.459432 13.8248 0.905374 12.9299C1.35132 12.035 1.94249 11.2754 2.63817 10.7033C3.33384 10.1312 4.11749 9.76027 4.93511 9.61605V9.61605Z" fill="url(#paint0_linear)"/>
</g>
<path d="M35.9336 15.358C32.9064 15.358 30.4523 12.1954 30.4523 8.29413C30.4523 4.39284 32.9064 1.23022 35.9336 1.23022C38.9608 1.23022 41.4148 4.39284 41.4148 8.29413C41.4148 12.1954 38.9608 15.358 35.9336 15.358Z" fill="url(#paint1_linear)"/>
<path d="M35.9607 18.6779C32.6458 18.6779 29.9586 15.2148 29.9586 10.9429C29.9586 6.67088 32.6458 3.20776 35.9607 3.20776C39.2755 3.20776 41.9627 6.67088 41.9627 10.9429C41.9627 15.2148 39.2755 18.6779 35.9607 18.6779Z" fill="url(#paint2_linear)"/>
<path d="M11.5686 18.6779C8.25377 18.6779 5.56656 15.2148 5.56656 10.9429C5.56656 6.67088 8.25377 3.20776 11.5686 3.20776C14.8835 3.20776 17.5707 6.67088 17.5707 10.9429C17.5707 15.2148 14.8835 18.6779 11.5686 18.6779Z" fill="url(#paint3_linear)"/>
<path d="M11.8704 18.6779C8.84319 18.6779 6.38914 15.5152 6.38914 11.614C6.38914 7.71267 8.84319 4.55005 11.8704 4.55005C14.8976 4.55005 17.3517 7.71267 17.3517 11.614C17.3517 15.5152 14.8976 18.6779 11.8704 18.6779Z" fill="url(#paint4_linear)"/>
<path d="M18.0644 12.9565C18.0635 14.0736 18.2686 15.1749 18.6627 16.1698C19.0568 17.1648 19.6287 18.0248 20.3312 18.679H26.7608C27.5218 17.9702 28.1288 17.0214 28.5237 15.9235C28.9186 14.8256 29.0881 13.6155 29.016 12.409C28.9439 11.2025 28.6326 10.04 28.1119 9.03303C27.5913 8.02602 26.8787 7.20818 26.0425 6.65786C25.2062 6.10754 24.2743 5.84317 23.3361 5.89008C22.3978 5.93699 21.4846 6.29361 20.684 6.92578C19.8833 7.55794 19.2221 8.44447 18.7635 9.50044C18.305 10.5564 18.0645 11.7464 18.0651 12.9565H18.0644Z" fill="url(#paint5_linear)"/>
<path d="M11.2668 18.0427C11.2668 18.2541 11.2741 18.4633 11.2886 18.6702C11.2881 18.6731 11.2881 18.6761 11.2886 18.6789H22.2075C22.2225 18.4694 22.2301 18.257 22.2301 18.0436C22.231 16.3533 21.7611 14.7187 20.9059 13.4371C20.0507 12.1555 18.8669 11.3121 17.5699 11.0602C17.2989 11.0077 17.0252 10.9811 16.7511 10.9807C16.6111 10.9807 16.4719 10.9875 16.3341 11.0001C15.3517 11.0969 14.4076 11.533 13.6011 12.2624C12.7946 12.9919 12.1554 13.9878 11.7507 15.1455C11.7282 15.2096 11.7063 15.2745 11.686 15.3395C11.4092 16.1961 11.2668 17.1148 11.2668 18.0427V18.0427Z" fill="url(#paint6_linear)"/>
<path d="M0.907128 16.6293C0.906532 17.3234 0.985661 18.0137 1.14194 18.6778H11.6333C11.887 17.5916 11.9352 16.4429 11.7741 15.3277C11.765 15.2666 11.756 15.2045 11.7455 15.1444C11.4813 13.5651 10.8053 12.1501 9.83001 11.1351C8.85469 10.1202 7.63897 9.56651 6.38537 9.56641C6.21303 9.56641 6.04369 9.57611 5.87586 9.59744C5.80059 9.6052 5.72533 9.61684 5.65007 9.62945C4.33635 9.85981 3.13191 10.6959 2.25986 11.983C1.3878 13.27 0.907219 14.9207 0.907128 16.6293V16.6293Z" fill="url(#paint7_linear)"/>
<path d="M34.5781 18.679C34.5601 18.6053 34.5443 18.5315 34.5285 18.4569C34.2789 17.2542 34.2803 15.9879 34.5324 14.7861C34.7846 13.5843 35.2785 12.4897 35.9643 11.6128C36.6501 10.736 37.5034 10.1082 38.4379 9.79283C39.3724 9.47746 40.3549 9.48574 41.2861 9.81684C41.5042 9.89395 41.7181 9.9892 41.9266 10.102C43.1819 10.775 44.1986 12.0248 44.7796 13.6089C45.3605 15.1931 45.4644 16.9988 45.071 18.6761H34.5781V18.679Z" fill="url(#paint8_linear)"/>
<defs>
<linearGradient id="paint0_linear" x1="-26783.5" y1="15164.9" x2="-26783.5" y2="11764.4" gradientUnits="userSpaceOnUse">
<stop stop-color="#808080" stop-opacity="0.25"/>
<stop offset="0.54" stop-color="#808080" stop-opacity="0.12"/>
<stop offset="1" stop-color="#808080" stop-opacity="0.1"/>
</linearGradient>
<linearGradient id="paint1_linear" x1="35.9336" y1="1.23022" x2="35.9336" y2="15.358" gradientUnits="userSpaceOnUse">
<stop stop-color="#F2F2F2"/>
<stop offset="0.31" stop-color="#E6E6E6"/>
<stop offset="0.77" stop-color="#CCCCCC"/>
</linearGradient>
<linearGradient id="paint2_linear" x1="-3227.36" y1="9392.21" x2="-3227.36" y2="11859.7" gradientUnits="userSpaceOnUse">
<stop stop-color="#F2F2F2"/>
<stop offset="0.31" stop-color="#E6E6E6"/>
<stop offset="0.77" stop-color="#CCCCCC"/>
</linearGradient>
<linearGradient id="paint3_linear" x1="-7142.29" y1="9392.21" x2="-7142.29" y2="11859.7" gradientUnits="userSpaceOnUse">
<stop stop-color="#F2F2F2"/>
<stop offset="0.31" stop-color="#E6E6E6"/>
<stop offset="0.77" stop-color="#CCCCCC"/>
</linearGradient>
<linearGradient id="paint4_linear" x1="-6477.28" y1="8774.39" x2="-6477.28" y2="10832.2" gradientUnits="userSpaceOnUse">
<stop stop-color="#F2F2F2"/>
<stop offset="0.31" stop-color="#E6E6E6"/>
<stop offset="0.77" stop-color="#CCCCCC"/>
</linearGradient>
<linearGradient id="paint5_linear" x1="-6274.37" y1="8955.98" x2="-6274.37" y2="10642.6" gradientUnits="userSpaceOnUse">
<stop stop-color="#F2F2F2"/>
<stop offset="0.31" stop-color="#E6E6E6"/>
<stop offset="0.77" stop-color="#CCCCCC"/>
</linearGradient>
<linearGradient id="paint6_linear" x1="-7268.67" y1="5799.9" x2="-7268.67" y2="6411.06" gradientUnits="userSpaceOnUse">
<stop stop-color="#F2F2F2"/>
<stop offset="0.31" stop-color="#E6E6E6"/>
<stop offset="0.77" stop-color="#CCCCCC"/>
</linearGradient>
<linearGradient id="paint7_linear" x1="-8785.76" y1="6728.4" x2="-8785.76" y2="7584.51" gradientUnits="userSpaceOnUse">
<stop stop-color="#F2F2F2"/>
<stop offset="0.31" stop-color="#E6E6E6"/>
<stop offset="0.77" stop-color="#CCCCCC"/>
</linearGradient>
<linearGradient id="paint8_linear" x1="-3884.07" y1="6732.32" x2="-3884.07" y2="7588.93" gradientUnits="userSpaceOnUse">
<stop stop-color="#F2F2F2"/>
<stop offset="0.31" stop-color="#E6E6E6"/>
<stop offset="0.77" stop-color="#CCCCCC"/>
</linearGradient>
</defs>
</svg>
