<svg width="1920" height="185" viewBox="0 0 1920 185" fill="none" xmlns="http://www.w3.org/2000/svg">
<mask id="mask0" mask-type="alpha" maskUnits="userSpaceOnUse" x="0" y="0" width="1921" height="185">
<rect width="1921" height="185" fill="#C4C4C4"/>
</mask>
<g mask="url(#mask0)">
<path d="M-4.6626 41.3628C-4.6626 41.3628 3.62171 36.0975 18.8572 35.6033C34.0927 35.09 50.2805 24.2554 59.8026 13.4207C69.3248 2.58596 86.4648 0.875222 95.0348 7.71819C103.605 14.5612 133.124 17.3364 140.741 22.5066C148.359 27.6768 149.311 34.0256 173.117 32.2768C196.922 30.5281 200.731 24.3314 210.253 32.2768C219.775 40.2223 221.299 43.6438 233.392 48.2057C245.485 52.7677 275.956 47.1033 287.383 36.8198C298.81 26.5363 291.192 15.7016 322.615 16.8421C354.038 17.9826 371.178 9.99918 383.557 20.2636C395.936 30.5281 407.363 32.2578 417.837 27.981C428.311 23.7041 441.198 1.44547 471.415 6.57769V92.1148H-4.6626V41.3628Z" fill="#D15007"/>
<g clip-path="url(#clip0)">
<path d="M931.989 41.3628C931.989 41.3628 923.704 36.0975 908.469 35.6033C893.233 35.09 877.046 24.2554 867.524 13.4207C858.001 2.58596 840.861 0.875222 832.291 7.71819C823.721 14.5612 794.203 17.3364 786.585 22.5066C778.967 27.6768 778.015 34.0256 754.209 32.2768C730.404 30.5281 726.595 24.3314 717.073 32.2768C707.551 40.2223 706.027 43.6438 693.934 48.2057C681.841 52.7677 651.37 47.1033 639.943 36.8198C628.517 26.5363 636.134 15.7016 604.711 16.8421C573.288 17.9826 556.148 9.99918 543.769 20.2636C531.39 30.5281 519.964 32.2578 509.489 27.981C499.015 23.7041 486.128 1.44547 455.911 6.57769V92.1148H931.989V41.3628Z" fill="#D15007"/>
</g>
<g clip-path="url(#clip1)">
<path d="M913.748 37.7146C913.748 37.7146 922.033 32.4493 937.268 31.9551C952.504 31.4419 968.691 20.6072 978.214 9.77247C987.736 -1.06223 1004.88 -2.77297 1013.45 4.06999C1022.02 10.913 1051.53 13.6882 1059.15 18.8584C1066.77 24.0286 1067.72 30.3774 1091.53 28.6286C1115.33 26.8799 1119.14 20.6832 1128.66 28.6286C1138.19 36.5741 1139.71 39.9956 1151.8 44.5575C1163.9 49.1195 1194.37 43.4551 1205.79 33.1716C1217.22 22.8882 1209.6 12.0535 1241.03 13.1939C1272.45 14.3344 1289.59 6.35098 1301.97 16.6154C1314.35 26.8799 1325.77 28.6096 1336.25 24.3328C1346.72 20.0559 1359.61 -2.20272 1389.83 2.9295V88.4666H913.748V37.7146Z" fill="#D15007"/>
</g>
<g clip-path="url(#clip2)">
<path d="M1847.17 41.3628C1847.17 41.3628 1855.46 36.0975 1870.69 35.6033C1885.93 35.09 1902.12 24.2554 1911.64 13.4207C1921.16 2.58596 1938.3 0.875222 1946.87 7.71819C1955.44 14.5612 1984.96 17.3364 1992.58 22.5066C2000.2 27.6768 2001.15 34.0256 2024.95 32.2768C2048.76 30.5281 2052.57 24.3314 2062.09 32.2768C2071.61 40.2223 2073.14 43.6438 2085.23 48.2057C2097.32 52.7677 2127.79 47.1033 2139.22 36.8198C2150.65 26.5363 2143.03 15.7016 2174.45 16.8421C2205.88 17.9826 2223.02 9.99918 2235.39 20.2636C2247.77 30.5281 2259.2 32.2578 2269.67 27.981C2280.15 23.7041 2293.04 1.44547 2323.25 6.57769V92.1148H1847.17V41.3628Z" fill="#D15007"/>
</g>
<g clip-path="url(#clip3)">
<path d="M1865.42 37.7146C1865.42 37.7146 1857.13 32.4493 1841.9 31.9551C1826.66 31.4419 1810.47 20.6072 1800.95 9.77247C1791.43 -1.06223 1774.29 -2.77297 1765.72 4.06999C1757.15 10.913 1727.63 13.6882 1720.01 18.8584C1712.39 24.0286 1711.44 30.3774 1687.64 28.6286C1663.83 26.8799 1660.02 20.6832 1650.5 28.6286C1640.98 36.5741 1639.45 39.9956 1627.36 44.5575C1615.27 49.1195 1584.8 43.4551 1573.37 33.1716C1561.94 22.8882 1569.56 12.0535 1538.14 13.1939C1506.71 14.3344 1489.57 6.35098 1477.2 16.6154C1464.82 26.8799 1453.39 28.6096 1442.92 24.3328C1432.44 20.0559 1419.55 -2.20272 1389.34 2.9295V88.4666H1865.42V37.7146Z" fill="#D15007"/>
</g>
<path d="M-19.255 21.5581C-18.848 20.0074 -9.89362 22.0353 -7.99421 22.1545C-4.73808 22.3335 -0.803581 21.7967 2.31688 22.3335C1.36717 23.1684 0.824486 23.2281 2.04554 24.1824C2.85957 24.7788 4.62331 25.077 5.43734 25.6734C7.87944 27.2241 5.30167 29.4308 6.65839 31.1604C8.28646 30.8622 8.69347 29.7887 10.9999 30.0272C12.221 30.1465 13.9847 30.9219 15.2057 31.2201C16.9695 31.6376 19.2759 32.1147 21.4467 31.8165C23.2104 31.5779 24.1601 30.8622 26.0595 30.6237C29.8583 30.2062 33.7928 31.3394 37.3203 31.9358C40.7121 32.5322 43.5612 34.5004 47.0887 34.7986C49.9378 35.0371 55.3647 34.7986 57.2641 35.9318C59.2992 37.1842 56.9928 39.3313 58.2138 40.7627C58.8922 41.5977 60.3846 41.9556 60.6559 42.7906C60.9273 43.5659 59.8419 44.8184 60.5203 45.5341C61.3343 46.3094 68.7963 46.9655 71.2384 47.2637C73.2735 44.5798 70.0173 40.9417 70.0173 38.1385C69.9682 36.5746 70.3325 35.0134 71.1027 33.4865C71.6454 32.5918 71.6454 30.3254 72.8664 29.6097C75.5799 27.9994 82.7705 27.2241 86.9764 26.9855C92.9459 26.6277 100.544 25.912 106.513 26.4487C106.242 29.3712 114.518 27.1644 118.588 27.6416C121.468 28.0507 124.279 28.5489 127 29.1326C128.221 29.3712 131.341 29.729 132.155 30.0272C135.547 31.399 134.462 34.7389 139.21 35.8125C141.652 36.3493 145.858 36.0511 147.758 36.886C149.114 37.4825 148.572 38.1982 148.979 38.9735C149.521 39.9278 150.2 40.047 151.149 40.7627C152.099 41.5381 151.963 43.0888 153.049 43.6852C154.948 44.8184 158.34 44.1623 160.782 43.6255C166.48 42.3731 166.616 44.043 167.43 46.4884C167.9 47.7218 168.58 48.9379 169.465 50.1265C170.112 50.686 170.526 51.292 170.686 51.9157C172.45 52.1543 173.807 51.7368 175.57 52.1543C177.877 52.6911 179.098 54.1225 180.726 54.9575C183.575 56.3889 187.102 56.9256 191.173 57.5221C193.343 57.8203 195.65 57.9992 197.821 58.357C199.449 58.5956 201.484 59.3113 203.383 59.2517C206.232 59.1324 204.333 59.3113 206.232 58.4763C207.453 57.9992 207.182 56.5678 209.624 56.8064C210.031 57.5817 211.659 59.0131 213.694 59.192C215.594 59.371 216.408 58.7745 218.036 58.4763C220.613 57.9396 224.684 58.4167 226.312 57.701C228.618 56.6274 226.176 54.9575 227.804 54.0032C228.754 53.4664 232.146 53.2279 233.231 53.0489C235.944 52.5122 238.251 51.7368 241.236 51.5579C243.034 51.4386 244.864 51.4386 246.663 51.5579C247.657 51.66 248.615 51.8205 249.512 52.035C253.989 52.5122 254.803 52.1543 254.667 54.7189C254.532 56.4485 252.225 60.5638 257.245 60.5638C260.365 60.5638 264.707 58.9535 267.692 60.4445C270.134 61.697 266.606 64.4405 270.27 65.5737C271.762 65.9912 272.847 65.7526 274.475 65.8123C276.103 65.8719 280.309 66.6472 281.802 66.528C285.329 66.1701 285.465 63.5459 285.872 62.2338C286.415 60.1463 286.55 58.0588 287.229 56.031C287.5 55.3153 287.364 53.7646 288.45 53.2279C291.299 51.7965 299.846 53.3471 303.509 53.9436C305.897 54.403 308.343 54.8012 310.836 55.1364C311.973 55.119 313.111 55.1591 314.227 55.2557C326.709 57.2239 315.177 64.5001 324.403 66.4087C327.93 65.2158 326.981 63.2477 329.287 61.8163C330.915 60.8024 331.051 61.1006 333.493 61.1006C338.941 61.0495 344.389 61.2091 349.773 61.5777C354.658 61.9356 363.748 61.5181 365.647 64.2616C367.547 67.0051 361.17 70.2257 366.054 72.9096C371.345 70.345 374.466 73.9832 378.4 75.4742C380.651 76.4815 382.737 77.5578 384.641 78.6949C385.32 79.0527 386.541 79.9473 387.355 80.1263C389.298 80.3947 391.381 80.3947 393.324 80.1263C396.445 79.5299 395.359 79.2316 395.359 78.0985C395.359 75.4146 394.138 72.7307 394.274 70.0468C394.481 69.0495 394.344 68.0441 393.867 67.0647C396.58 65.9912 406.891 67.7804 410.69 67.7804C413.404 67.7804 416.931 67.9594 419.509 67.6612C423.579 67.2437 426.7 65.6333 429.549 64.3809C431.991 63.3073 433.348 63.1284 437.282 62.9495C442.438 62.7705 452.206 60.3252 453.698 63.8441C454.105 64.7387 453.563 67.3629 455.191 68.0786C456.548 68.6154 459.804 68.5558 461.432 68.6154C466.216 68.7924 470.972 69.0911 475.677 69.51C475.406 70.524 478.119 70.5836 478.526 71.5379C479.069 72.6114 479.476 73.685 480.019 74.6989C484.225 72.1939 486.124 69.51 488.159 66.528C489.245 65.0966 488.566 63.7844 489.516 62.353C490.02 61.7751 490.384 61.1754 490.601 60.5638C490.509 59.8278 490.554 59.0898 490.737 58.357C494.129 59.3113 496.435 60.9216 501.048 60.6234C503.761 60.4445 505.39 59.4902 508.239 59.3113C510.681 59.1324 513.123 59.2517 515.701 59.0727C521.127 58.5956 536.187 57.8203 540.936 59.7288C540.957 59.6064 540.911 59.4836 540.8 59.371C540.529 60.4445 542.564 62.2338 543.513 63.188C544.049 63.7201 544.733 64.2209 545.548 64.6791C549.89 65.9912 551.789 61.9356 555.995 64.6791C558.573 66.349 558.98 66.4683 563.864 66.4683C567.799 66.4683 572.14 66.7069 576.075 66.4683C579.874 66.2894 581.095 64.7387 582.18 63.1284C583.265 61.4584 582.587 59.8481 582.723 58.1781C582.858 56.7467 583.401 56.6274 585.707 57.4624C587.878 58.2378 587.743 58.9535 590.727 58.2974C593.305 57.7606 594.526 56.3292 596.833 55.6732C601.244 54.4451 606.187 53.6328 611.35 53.2875C616.776 52.87 621.389 53.4664 626.816 52.6911C630.615 52.1543 634.55 52.2736 638.213 51.5579C641.893 50.7158 646.005 50.3049 650.152 50.3651C652.865 50.3054 654.9 49.8879 657.478 49.709C661.413 49.4108 665.483 50.0669 669.282 49.5897C672.266 49.2319 672.945 48.7547 675.522 50.0072C677.422 50.9018 677.286 51.5579 680.271 51.5579C683.391 51.5579 682.713 50.9018 685.02 50.0669C687.225 49.422 689.653 48.9385 692.21 48.6355C694.245 48.3969 696.145 48.3372 697.908 47.8005C700.079 47.2041 701.029 45.8919 703.335 45.4744C704.963 45.1762 709.712 45.5341 711.204 45.5341C714.534 45.4657 717.869 45.6063 721.108 45.9516C723.686 46.2498 725.993 46.9655 728.435 47.2637C730.741 47.5023 733.59 47.2637 735.897 47.3233C747.293 47.4426 752.449 44.2816 761.674 41.9556C765.066 41.1206 768.865 39.3313 772.528 38.9735C776.87 38.4964 781.89 39.5103 786.231 39.6296C791.658 39.7488 796.814 38.8542 802.105 38.4964C807.794 38.0513 813.557 37.812 819.335 37.7807C827.747 37.8403 836.158 37.7807 844.434 37.7807V148.953H-14.2351L-19.255 21.5581Z" fill="#D32B00"/>
<path d="M832.578 36.0757C832.932 34.7248 840.733 36.4914 842.388 36.5953C845.225 36.7512 848.652 36.2836 851.371 36.7512C850.543 37.4786 850.071 37.5306 851.134 38.3619C851.843 38.8815 853.38 39.1413 854.089 39.6608C856.217 41.0118 853.971 42.9342 855.153 44.441C856.571 44.1812 856.926 43.246 858.935 43.4538C859.999 43.5577 861.535 44.2332 862.599 44.493C864.136 44.8567 866.145 45.2723 868.036 45.0125C869.573 44.8047 870.4 44.1812 872.055 43.9734C875.364 43.6097 878.792 44.5969 881.865 45.1165C884.82 45.636 887.302 47.3507 890.375 47.6104C892.857 47.8183 897.585 47.6104 899.239 48.5977C901.012 49.6888 899.003 51.5593 900.067 52.8063C900.658 53.5337 901.958 53.8454 902.194 54.5728C902.43 55.2483 901.485 56.3394 902.076 56.9629C902.785 57.6384 909.286 58.2099 911.413 58.4697C913.186 56.1316 910.349 52.9621 910.349 50.5201C910.307 49.1577 910.624 47.7976 911.295 46.4674C911.768 45.688 911.768 43.7136 912.832 43.0901C915.195 41.6872 921.46 41.0118 925.124 40.8039C930.324 40.4922 936.943 39.8687 942.144 40.3363C941.907 42.8823 949.117 40.9598 952.663 41.3755C955.172 41.7319 957.621 42.1659 959.991 42.6744C961.055 42.8823 963.773 43.194 964.482 43.4538C967.437 44.6488 966.492 47.5585 970.628 48.4937C972.756 48.9614 976.42 48.7016 978.075 49.429C979.256 49.9486 978.784 50.5721 979.138 51.2475C979.611 52.0789 980.202 52.1828 981.029 52.8063C981.857 53.4817 981.739 54.8326 982.684 55.3522C984.339 56.3394 987.294 55.7679 989.421 55.3003C994.385 54.2091 994.504 55.664 995.213 57.7943C995.622 58.8688 996.215 59.9283 996.986 60.9637C997.549 61.4512 997.91 61.9791 998.049 62.5224C999.586 62.7303 1000.77 62.3666 1002.3 62.7303C1004.31 63.1979 1005.38 64.4449 1006.8 65.1723C1009.28 66.4193 1012.35 66.8869 1015.9 67.4065C1017.79 67.6663 1019.8 67.8222 1021.69 68.1339C1023.11 68.3418 1024.88 68.9653 1026.53 68.9133C1029.02 68.8094 1027.36 68.9653 1029.02 68.2378C1030.08 67.8222 1029.84 66.5752 1031.97 66.783C1032.33 67.4585 1033.74 68.7055 1035.52 68.8613C1037.17 69.0172 1037.88 68.4976 1039.3 68.2378C1041.54 67.7702 1045.09 68.1859 1046.51 67.5624C1048.52 66.6271 1046.39 65.1723 1047.81 64.341C1048.64 63.8734 1051.59 63.6655 1052.54 63.5097C1054.9 63.042 1056.91 62.3666 1059.51 62.2107C1061.08 62.1068 1062.67 62.1068 1064.24 62.2107C1065.1 62.2997 1065.94 62.4395 1066.72 62.6264C1070.62 63.042 1071.33 62.7303 1071.21 64.9645C1071.09 66.4713 1069.08 70.0564 1073.46 70.0564C1076.18 70.0564 1079.96 68.6535 1082.56 69.9525C1084.69 71.0436 1081.61 73.4337 1084.8 74.4209C1086.1 74.7846 1087.05 74.5767 1088.47 74.6287C1089.89 74.6807 1093.55 75.3561 1094.85 75.2522C1097.92 74.9405 1098.04 72.6543 1098.4 71.5112C1098.87 69.6927 1098.99 67.8741 1099.58 66.1076C1099.81 65.4841 1099.7 64.1332 1100.64 63.6655C1103.12 62.4185 1110.57 63.7694 1113.76 64.289C1115.84 64.6892 1117.97 65.0362 1120.14 65.3282C1121.13 65.3131 1122.13 65.3479 1123.1 65.4321C1133.97 67.1467 1123.93 73.4856 1131.96 75.1483C1135.04 74.1091 1134.21 72.3945 1136.22 71.1475C1137.64 70.2642 1137.75 70.524 1139.88 70.524C1144.63 70.4795 1149.37 70.6186 1154.07 70.9397C1158.32 71.2514 1166.24 70.8877 1167.89 73.2778C1169.55 75.6679 1163.99 78.4736 1168.25 80.8117C1172.86 78.5775 1175.58 81.747 1179 83.0459C1180.97 83.9234 1182.78 84.8611 1184.44 85.8517C1185.03 86.1634 1186.1 86.9428 1186.8 87.0987C1188.5 87.3326 1190.31 87.3326 1192.01 87.0987C1194.72 86.5791 1193.78 86.3193 1193.78 85.3321C1193.78 82.994 1192.71 80.6559 1192.83 78.3177C1193.01 77.4489 1192.89 76.573 1192.48 75.7198C1194.84 74.7846 1203.82 76.3433 1207.13 76.3433C1209.5 76.3433 1212.57 76.4992 1214.82 76.2394C1218.36 75.8757 1221.08 74.4728 1223.56 73.3817C1225.69 72.4465 1226.87 72.2906 1230.3 72.1347C1234.79 71.9788 1243.3 69.8486 1244.6 72.9141C1244.96 73.6935 1244.48 75.9796 1245.9 76.6031C1247.08 77.0707 1249.92 77.0188 1251.34 77.0707C1255.51 77.2249 1259.65 77.4851 1263.75 77.8501C1263.51 78.7334 1265.88 78.7854 1266.23 79.6167C1266.7 80.5519 1267.06 81.4872 1267.53 82.3705C1271.2 80.1882 1272.85 77.8501 1274.62 75.2522C1275.57 74.0052 1274.98 72.8621 1275.8 71.6151C1276.24 71.1117 1276.56 70.5892 1276.75 70.0564C1276.67 69.4152 1276.71 68.7722 1276.87 68.1339C1279.82 68.9653 1281.83 70.3681 1285.85 70.1083C1288.22 69.9525 1289.63 69.1211 1292.12 68.9653C1294.24 68.8094 1296.37 68.9133 1298.62 68.7574C1303.34 68.3418 1316.46 67.6663 1320.6 69.329C1320.62 69.2224 1320.58 69.1154 1320.48 69.0172C1320.25 69.9525 1322.02 71.5112 1322.85 72.3425C1323.31 72.806 1323.91 73.2423 1324.62 73.6415C1328.4 74.7846 1330.06 71.2514 1333.72 73.6415C1335.97 75.0963 1336.32 75.2002 1340.58 75.2002C1344 75.2002 1347.79 75.4081 1351.21 75.2002C1354.52 75.0444 1355.59 73.6935 1356.53 72.2906C1357.48 70.8358 1356.89 69.4329 1357 67.9781C1357.12 66.7311 1357.6 66.6271 1359.6 67.3546C1361.5 68.03 1361.38 68.6535 1363.98 68.082C1366.22 67.6144 1367.29 66.3674 1369.3 65.7958C1373.14 64.726 1377.45 64.0183 1381.94 63.7175C1386.67 63.3538 1390.69 63.8734 1395.42 63.1979C1398.73 62.7303 1402.15 62.8342 1405.35 62.2107C1408.55 61.4771 1412.13 61.1192 1415.75 61.1715C1418.11 61.1196 1419.88 60.7559 1422.13 60.6C1425.56 60.3402 1429.1 60.9117 1432.41 60.4961C1435.01 60.1843 1435.6 59.7687 1437.85 60.8598C1439.5 61.6392 1439.39 62.2107 1441.99 62.2107C1444.7 62.2107 1444.11 61.6392 1446.12 60.9117C1448.04 60.3499 1450.16 59.9288 1452.39 59.6647C1454.16 59.4569 1455.81 59.405 1457.35 58.9373C1459.24 58.4178 1460.07 57.2747 1462.08 56.911C1463.5 56.6512 1467.63 56.9629 1468.93 56.9629C1471.83 56.9033 1474.74 57.0258 1477.56 57.3266C1479.81 57.5864 1481.82 58.2099 1483.94 58.4697C1485.95 58.6775 1488.44 58.4697 1490.45 58.5217C1500.37 58.6256 1504.86 55.8718 1512.9 53.8454C1515.86 53.118 1519.17 51.5593 1522.36 51.2475C1526.14 50.8319 1530.51 51.7151 1534.3 51.8191C1539.02 51.923 1543.51 51.1436 1548.12 50.8319C1553.08 50.4441 1558.1 50.2356 1563.13 50.2084C1570.46 50.2603 1577.79 50.2084 1585 50.2084V147.058H836.951L832.578 36.0757Z" fill="#D32B00"/>
<path d="M2181.42 36.5066C2181.07 35.1557 2173.27 36.9223 2171.61 37.0262C2168.78 37.1821 2165.35 36.7145 2162.63 37.1821C2163.46 37.9095 2163.93 37.9615 2162.87 38.7928C2162.16 39.3124 2160.62 39.5722 2159.91 40.0918C2157.78 41.4427 2160.03 43.3651 2158.85 44.8719C2157.43 44.6121 2157.07 43.6769 2155.07 43.8847C2154 43.9886 2152.46 44.6641 2151.4 44.9239C2149.86 45.2876 2147.86 45.7032 2145.96 45.4434C2144.43 45.2356 2143.6 44.6121 2141.95 44.4043C2138.64 44.0406 2135.21 45.0278 2132.14 45.5474C2129.18 46.0669 2126.7 47.7816 2123.63 48.0414C2121.14 48.2492 2116.42 48.0414 2114.76 49.0286C2112.99 50.1197 2115 51.9902 2113.93 53.2372C2113.34 53.9646 2112.04 54.2763 2111.81 55.0038C2111.57 55.6792 2112.52 56.7703 2111.92 57.3938C2111.22 58.0693 2104.71 58.6408 2102.59 58.9006C2100.81 56.5625 2103.65 53.393 2103.65 50.951C2103.69 49.5886 2103.38 48.2285 2102.71 46.8983C2102.23 46.1189 2102.23 44.1445 2101.17 43.521C2098.8 42.1181 2092.54 41.4427 2088.88 41.2348C2083.68 40.9231 2077.06 40.2996 2071.86 40.7672C2072.09 43.3132 2064.88 41.3907 2061.34 41.8064C2058.83 42.1628 2056.38 42.5968 2054.01 43.1053C2052.95 43.3132 2050.23 43.6249 2049.52 43.8847C2046.56 45.0797 2047.51 47.9894 2043.37 48.9246C2041.24 49.3923 2037.58 49.1325 2035.93 49.8599C2034.74 50.3795 2035.22 51.003 2034.86 51.6784C2034.39 52.5098 2033.8 52.6137 2032.97 53.2372C2032.14 53.9126 2032.26 55.2635 2031.32 55.7831C2029.66 56.7703 2026.71 56.1988 2024.58 55.7312C2019.61 54.64 2019.5 56.0949 2018.79 58.2252C2018.38 59.2997 2017.79 60.3592 2017.01 61.3946C2016.45 61.8821 2016.09 62.41 2015.95 62.9534C2014.41 63.1612 2013.23 62.7975 2011.7 63.1612C2009.69 63.6288 2008.62 64.8758 2007.2 65.6032C2004.72 66.8502 2001.65 67.3178 1998.1 67.8374C1996.21 68.0972 1994.2 68.2531 1992.31 68.5648C1990.89 68.7727 1989.12 69.3962 1987.47 69.3442C1984.98 69.2403 1986.64 69.3962 1984.98 68.6688C1983.92 68.2531 1984.16 67.0061 1982.03 67.2139C1981.67 67.8894 1980.26 69.1364 1978.48 69.2923C1976.83 69.4481 1976.12 68.9285 1974.7 68.6688C1972.46 68.2011 1968.91 68.6168 1967.49 67.9933C1965.48 67.0581 1967.61 65.6032 1966.19 64.7719C1965.36 64.3043 1962.41 64.0964 1961.46 63.9406C1959.1 63.4729 1957.09 62.7975 1954.49 62.6416C1952.92 62.5377 1951.33 62.5377 1949.76 62.6416C1948.9 62.7306 1948.06 62.8704 1947.28 63.0573C1943.38 63.4729 1942.67 63.1612 1942.79 65.3954C1942.91 66.9022 1944.92 70.4873 1940.54 70.4873C1937.82 70.4873 1934.04 69.0844 1931.44 70.3834C1929.31 71.4745 1932.39 73.8646 1929.2 74.8518C1927.9 75.2155 1926.95 75.0077 1925.53 75.0596C1924.11 75.1116 1920.45 75.787 1919.15 75.6831C1916.08 75.3714 1915.96 73.0852 1915.6 71.9421C1915.13 70.1236 1915.01 68.305 1914.42 66.5385C1914.19 65.915 1914.3 64.5641 1913.36 64.0964C1910.88 62.8494 1903.43 64.2004 1900.24 64.7199C1898.16 65.1201 1896.03 65.4671 1893.86 65.7591C1892.87 65.744 1891.87 65.7788 1890.9 65.863C1880.03 67.5776 1890.07 73.9165 1882.04 75.5792C1878.96 74.54 1879.79 72.8254 1877.78 71.5784C1876.36 70.6951 1876.25 70.9549 1874.12 70.9549C1869.37 70.9104 1864.63 71.0495 1859.93 71.3706C1855.68 71.6823 1847.76 71.3186 1846.11 73.7087C1844.45 76.0988 1850.01 78.9045 1845.75 81.2426C1841.14 79.0084 1838.42 82.1779 1835 83.4768C1833.04 84.3544 1831.22 85.292 1829.56 86.2826C1828.97 86.5943 1827.9 87.3737 1827.2 87.5296C1825.5 87.7635 1823.69 87.7635 1821.99 87.5296C1819.28 87.01 1820.22 86.7502 1820.22 85.763C1820.22 83.4249 1821.29 81.0868 1821.17 78.7486C1820.99 77.8798 1821.11 77.0039 1821.52 76.1507C1819.16 75.2155 1810.18 76.7742 1806.87 76.7742C1804.5 76.7742 1801.43 76.9301 1799.18 76.6703C1795.64 76.3066 1792.92 74.9037 1790.44 73.8126C1788.31 72.8774 1787.13 72.7215 1783.7 72.5656C1779.21 72.4097 1770.7 70.2795 1769.4 73.345C1769.04 74.1244 1769.52 76.4105 1768.1 77.034C1766.92 77.5016 1764.08 77.4497 1762.66 77.5016C1758.49 77.6558 1754.35 77.916 1750.25 78.281C1750.49 79.1643 1748.12 79.2163 1747.77 80.0476C1747.3 80.9828 1746.94 81.9181 1746.47 82.8014C1742.8 80.6191 1741.15 78.281 1739.38 75.6831C1738.43 74.4361 1739.02 73.293 1738.2 72.046C1737.76 71.5426 1737.44 71.0201 1737.25 70.4873C1737.33 69.8461 1737.29 69.2032 1737.13 68.5648C1734.18 69.3962 1732.17 70.799 1728.15 70.5393C1725.78 70.3834 1724.37 69.552 1721.88 69.3962C1719.76 69.2403 1717.63 69.3442 1715.38 69.1883C1710.66 68.7727 1697.54 68.0972 1693.4 69.7599C1693.38 69.6533 1693.42 69.5463 1693.52 69.4481C1693.75 70.3834 1691.98 71.9421 1691.15 72.7735C1690.69 73.2369 1690.09 73.6732 1689.38 74.0724C1685.6 75.2155 1683.94 71.6823 1680.28 74.0724C1678.03 75.5272 1677.68 75.6312 1673.43 75.6312C1670 75.6312 1666.22 75.839 1662.79 75.6312C1659.48 75.4753 1658.41 74.1244 1657.47 72.7215C1656.52 71.2667 1657.11 69.8638 1657 68.409C1656.88 67.162 1656.41 67.0581 1654.4 67.7855C1652.5 68.4609 1652.62 69.0844 1650.02 68.5129C1647.78 68.0453 1646.71 66.7983 1644.7 66.2267C1640.86 65.1569 1636.55 64.4492 1632.06 64.1484C1627.33 63.7847 1623.31 64.3043 1618.58 63.6288C1615.27 63.1612 1611.85 63.2651 1608.65 62.6416C1605.45 61.908 1601.87 61.5501 1598.25 61.6024C1595.89 61.5505 1594.12 61.1868 1591.87 61.0309C1588.44 60.7711 1584.9 61.3427 1581.59 60.927C1578.99 60.6152 1578.4 60.1996 1576.15 61.2907C1574.5 62.0701 1574.61 62.6416 1572.01 62.6416C1569.3 62.6416 1569.89 62.0701 1567.88 61.3427C1565.96 60.7808 1563.84 60.3597 1561.61 60.0957C1559.84 59.8878 1558.19 59.8359 1556.65 59.3682C1554.76 58.8487 1553.93 57.7056 1551.92 57.3419C1550.5 57.0821 1546.37 57.3938 1545.07 57.3938C1542.17 57.3342 1539.26 57.4567 1536.44 57.7575C1534.19 58.0173 1532.18 58.6408 1530.06 58.9006C1528.05 59.1084 1525.56 58.9006 1523.56 58.9526C1513.63 59.0565 1509.14 56.3027 1501.1 54.2763C1498.14 53.5489 1494.83 51.9902 1491.64 51.6784C1487.86 51.2628 1483.49 52.1461 1479.71 52.25C1474.98 52.3539 1470.49 51.5745 1465.88 51.2628C1460.92 50.8751 1455.9 50.6665 1450.87 50.6393C1443.54 50.6912 1436.21 50.6393 1429 50.6393V147.489H2177.05L2181.42 36.5066Z" fill="#D32B00"/>
<g clip-path="url(#clip4)">
<path d="M1341.49 134.39C1341.49 134.39 1333.2 129.124 1317.97 128.63C1302.73 128.117 1286.55 117.282 1277.02 106.448C1267.5 95.6128 1250.36 93.9021 1241.79 100.745C1233.22 107.588 1203.7 110.363 1196.08 115.533C1188.47 120.704 1187.51 127.052 1163.71 125.304C1139.9 123.555 1136.1 117.358 1126.57 125.304C1117.05 133.249 1115.53 136.671 1103.43 141.233C1091.34 145.795 1060.87 140.13 1049.44 129.847C1038.02 119.563 1045.63 108.729 1014.21 109.869C982.788 111.009 965.648 103.026 953.269 113.29C940.89 123.555 929.464 125.285 918.989 121.008C908.515 116.731 895.628 94.4723 865.411 99.6045V185.142H1341.49V134.39Z" fill="#C12806"/>
</g>
<g clip-path="url(#clip5)">
<path d="M404.837 134.39C404.837 134.39 413.122 129.124 428.357 128.63C443.593 128.117 459.78 117.282 469.303 106.448C478.825 95.6128 495.965 93.9021 504.535 100.745C513.105 107.588 542.624 110.363 550.241 115.533C557.859 120.704 558.811 127.052 582.617 125.304C606.422 123.555 610.231 117.358 619.753 125.304C629.275 133.249 630.799 136.671 642.892 141.233C654.985 145.795 685.456 140.13 696.883 129.847C708.31 119.563 700.692 108.729 732.115 109.869C763.538 111.009 780.678 103.026 793.057 113.29C805.436 123.555 816.863 125.285 827.337 121.008C837.811 116.731 850.698 94.4723 880.915 99.6045V185.142H404.837V134.39Z" fill="#C12806"/>
</g>
<g clip-path="url(#clip6)">
<path d="M423.078 134.17C423.078 134.17 414.794 128.905 399.558 128.41C384.323 127.897 368.135 117.062 358.613 106.228C349.09 95.3931 331.95 93.6824 323.381 100.525C314.811 107.368 285.292 110.143 277.674 115.314C270.056 120.484 269.104 126.833 245.299 125.084C221.493 123.335 217.684 117.139 208.162 125.084C198.64 133.029 197.116 136.451 185.023 141.013C172.93 145.575 142.459 139.91 131.032 129.627C119.606 119.343 127.223 108.509 95.8001 109.649C64.3769 110.79 47.237 102.806 34.8581 113.071C22.4793 123.335 11.0526 125.065 0.578208 120.788C-9.8962 116.511 -22.7829 94.2526 -53 99.3848V184.922H423.078V134.17Z" fill="#C12806"/>
</g>
<g clip-path="url(#clip7)">
<path d="M1323 134.39C1323 134.39 1331.28 129.124 1346.52 128.63C1361.76 128.117 1377.94 117.282 1387.47 106.448C1396.99 95.6128 1414.13 93.9021 1422.7 100.745C1431.27 107.588 1460.79 110.363 1468.4 115.533C1476.02 120.704 1476.97 127.052 1500.78 125.304C1524.58 123.555 1528.39 117.358 1537.92 125.304C1547.44 133.249 1548.96 136.671 1561.05 141.233C1573.15 145.795 1603.62 140.13 1615.05 129.847C1626.47 119.563 1618.85 108.729 1650.28 109.869C1681.7 111.009 1698.84 103.026 1711.22 113.29C1723.6 123.555 1735.03 125.285 1745.5 121.008C1755.97 116.731 1768.86 94.4723 1799.08 99.6045V185.142H1323V134.39Z" fill="#C12806"/>
</g>
<g clip-path="url(#clip8)">
<path d="M2259.65 134.39C2259.65 134.39 2251.37 129.124 2236.13 128.63C2220.9 128.117 2204.71 117.282 2195.19 106.448C2185.66 95.6128 2168.52 93.9021 2159.95 100.745C2151.38 107.588 2121.87 110.363 2114.25 115.533C2106.63 120.704 2105.68 127.052 2081.87 125.304C2058.07 123.555 2054.26 117.358 2044.74 125.304C2035.21 133.249 2033.69 136.671 2021.6 141.233C2009.5 145.795 1979.03 140.13 1967.61 129.847C1956.18 119.563 1963.8 108.729 1932.37 109.869C1900.95 111.009 1883.81 103.026 1871.43 113.29C1859.05 123.555 1847.63 125.285 1837.15 121.008C1826.68 116.731 1813.79 94.4723 1783.57 99.6045V185.142H2259.65V134.39Z" fill="#C12806"/>
</g>
</g>
<defs>
<clipPath id="clip0">
<rect width="476.078" height="88.4666" fill="white" transform="matrix(-1 0 0 1 931.989 3.64819)"/>
</clipPath>
<clipPath id="clip1">
<rect width="476.078" height="88.4666" fill="white" transform="translate(913.748)"/>
</clipPath>
<clipPath id="clip2">
<rect width="476.078" height="88.4666" fill="white" transform="translate(1847.17 3.64819)"/>
</clipPath>
<clipPath id="clip3">
<rect width="476.078" height="88.4666" fill="white" transform="matrix(-1 0 0 1 1865.42 0)"/>
</clipPath>
<clipPath id="clip4">
<rect width="476.078" height="88.4666" fill="white" transform="matrix(-1 0 0 1 1341.49 96.675)"/>
</clipPath>
<clipPath id="clip5">
<rect width="476.078" height="88.4666" fill="white" transform="translate(404.837 96.675)"/>
</clipPath>
<clipPath id="clip6">
<rect width="476.078" height="88.4666" fill="white" transform="matrix(-1 0 0 1 423.078 96.4553)"/>
</clipPath>
<clipPath id="clip7">
<rect width="476.078" height="88.4666" fill="white" transform="translate(1323 96.675)"/>
</clipPath>
<clipPath id="clip8">
<rect width="476.078" height="88.4666" fill="white" transform="matrix(-1 0 0 1 2259.65 96.675)"/>
</clipPath>
</defs>
</svg>
