<svg width="1920" height="430" viewBox="0 0 1920 430" fill="none" xmlns="http://www.w3.org/2000/svg">
<mask id="mask0" mask-type="alpha" maskUnits="userSpaceOnUse" x="0" y="0" width="1920" height="430">
<rect width="1920" height="430" fill="#C4C4C4"/>
</mask>
<g mask="url(#mask0)">
<path d="M715.024 322.046C718.122 322.106 721.194 322.617 724.144 323.564C729.312 324.171 734.48 324.171 739.648 324.778C751.195 325.844 762.829 325.539 774.304 323.867C788.896 322.349 803.792 320.832 818.384 319.314C825.073 318.707 831.457 317.189 838.145 315.975C844.225 314.761 850.305 314.458 856.385 312.94C861.553 311.726 866.417 309.601 871.585 308.691C876.449 307.78 881.617 307.173 886.785 306.262C890.433 305.352 893.777 303.834 897.729 302.62C899.553 302.013 901.985 302.62 903.809 301.406C908.673 297.46 898.641 294.728 895.905 293.514C883.745 287.747 870.977 285.622 857.905 282.89C831.457 276.82 804.096 280.766 777.648 281.373C759.104 281.676 739.952 286.836 722.32 292.907C714.416 295.639 697.392 299.585 696.784 310.512C696.176 317.796 706.208 320.225 715.024 322.046Z" fill="#4E2120"/>
<path d="M898.945 244.646C896.513 245.253 896.209 243.735 894.385 242.824C891.306 241.717 888.352 240.293 885.569 238.575C882.142 235.961 878.985 233.013 876.145 229.773C871.755 226.016 867.962 221.615 864.897 216.721C859.425 207.008 860.033 197.598 859.425 186.975C859.121 179.994 851.217 179.69 846.049 176.958C839.059 172.581 831.485 169.209 823.552 166.942C817.168 165.424 811.088 161.782 804.4 161.175C799.84 160.871 795.584 159.657 790.72 159.657H784.032C778.256 159.657 775.824 161.175 770.656 163.299C767.411 164.133 764.396 165.689 761.84 167.852C760.476 169.518 758.948 171.043 757.28 172.405C753.632 175.441 749.072 177.565 745.424 180.601C739.648 185.761 732.352 188.796 725.36 192.438C721.712 194.259 715.328 198.509 715.936 203.365C716.24 206.097 717.76 207.311 717.456 210.347C715.94 215.742 713.58 220.864 710.464 225.523C701.648 241.003 698.912 256.483 699.216 274.392C698.99 279.912 700.593 285.352 703.776 289.872C708.944 296.549 714.72 297.763 722.928 298.674C733.872 300.192 744.816 301.406 755.456 303.53C771.568 306.566 787.376 308.387 803.488 310.512C813.216 311.726 822.944 313.243 832.672 313.851C842.705 314.458 852.433 311.726 862.161 308.994C877.969 304.441 898.337 302.923 909.281 289.568C915.361 281.98 919.617 265.589 909.889 259.519C907.356 258.283 904.917 256.863 902.593 255.269C900.161 253.448 900.465 252.537 898.945 244.646Z" fill="#BC7A04"/>
<path d="M910.497 259.822C907.964 258.587 905.525 257.167 903.201 255.573C900.465 253.448 900.465 252.537 898.945 244.646C896.513 245.253 896.209 243.735 894.385 242.824C891.307 241.717 888.352 240.293 885.569 238.575C882.142 235.961 878.985 233.013 876.145 229.773C871.755 226.016 867.962 221.615 864.897 216.721C859.425 207.008 860.033 197.598 859.425 186.975C859.121 182.118 855.473 180.601 851.521 179.083C849.224 180.81 846.656 182.143 843.921 183.029C835.105 186.368 827.809 189.1 818.081 188.492C814.969 187.815 811.823 187.308 808.656 186.975C803.54 186.56 798.39 187.074 793.456 188.492C787.449 190.709 781.563 193.242 775.824 196.081C774.608 196.688 765.184 200.634 764.88 201.848C768.224 203.062 772.176 202.455 775.824 203.669C780.08 205.187 783.424 207.615 787.376 209.436C792.24 211.864 800.448 213.078 804.096 217.024C799.232 220.667 791.024 221.274 785.552 223.398C780.812 224.736 776.302 226.782 772.176 229.469C767.889 233.322 764.381 237.958 761.84 243.128C759.712 247.984 754.24 251.93 749.68 254.966C745.974 257.283 741.838 258.832 737.52 259.519C733.264 260.429 729.312 260.126 725.056 261.036C719.751 262.368 714.37 263.381 708.944 264.072C705.815 264.435 702.669 264.637 699.52 264.679C699.216 268.017 699.216 271.356 699.216 274.999C698.991 280.519 700.593 285.959 703.776 290.479C708.944 297.156 714.72 298.371 722.928 299.281C733.872 300.799 744.816 302.013 755.456 304.138C771.568 307.173 787.376 308.994 803.488 311.119C813.216 312.333 822.945 313.851 832.673 314.458C842.705 315.065 852.433 312.333 862.161 309.601C877.969 305.048 898.337 303.531 909.281 290.175C915.969 282.283 920.225 265.893 910.497 259.822Z" fill="#2F1E00"/>
<path d="M777.344 323.564C777.349 312.379 778.264 301.212 780.08 290.175C780.742 284.445 782.174 278.83 784.336 273.481C786.16 268.928 789.2 264.679 791.328 260.126C796.8 247.681 808.352 242.217 818.688 234.629C824.768 230.076 830.848 224.916 836.928 220.06C841.832 216.416 846.409 212.354 850.609 207.918C852.869 205.549 854.81 202.896 856.385 200.027C857.297 197.902 857.297 195.777 858.209 193.349C860.377 188.7 862.919 184.234 865.809 179.994C870.369 173.316 876.145 167.852 881.009 161.478C885.485 155.033 890.575 149.036 896.209 143.57C908.065 133.25 921.745 131.125 936.641 128.09C965.217 122.323 995.01 122.93 1023.89 120.502C1049.12 118.377 1075.27 120.198 1100.5 120.198C1109.62 120.198 1120.87 118.377 1129.99 120.502C1139.71 122.626 1150.66 129.911 1158.26 136.285C1166.47 143.266 1170.42 151.765 1175.89 160.568C1178.02 164.21 1179.84 167.852 1181.97 171.191C1184.4 175.137 1187.75 178.476 1190.48 182.422C1197.01 192.568 1202.9 203.111 1208.12 213.989C1213.28 225.827 1219.67 237.057 1224.84 248.592C1226.66 252.537 1227.27 256.787 1228.79 260.733C1230.31 265.286 1233.04 268.928 1234.26 273.481C1235.93 279.102 1236.85 284.92 1237 290.782V308.387C1237 313.851 1234.87 315.368 1230.31 318.1C1222.87 322.751 1214.91 326.519 1206.6 329.331C1200.21 331.759 1195.95 337.83 1189.27 338.437C1182.58 339.347 1175.89 339.651 1169.2 340.865C1161.6 342.383 1154.61 344.204 1147.01 345.114C1139.55 345.759 1132.14 346.874 1124.82 348.453C1111.69 351.54 1098.39 353.871 1084.99 355.434C1067.06 358.166 1049.12 360.594 1031.19 363.326C1014.06 365.648 996.77 366.461 979.505 365.754C971.858 365.502 964.285 364.174 957.009 361.808C949.11 359.98 941.08 358.762 932.993 358.166C904.417 353.917 876.145 359.684 847.569 359.684C836.813 359.886 826.054 359.48 815.344 358.47C808.656 357.559 800.144 357.255 794.976 352.399C790.705 348.41 786.131 344.757 781.296 341.472C779.188 340.202 777.247 338.672 775.52 336.919C772.784 333.884 777.648 328.42 777.344 323.564Z" fill="#BC7A04"/>
<path d="M816.864 350.881C812.608 350.274 808.048 353.006 803.792 353.917C799.84 354.827 795.28 353.006 791.632 354.827C788.896 356.345 785.552 357.863 782.816 359.684C777.648 363.63 783.728 364.54 787.68 365.754C790.979 366.515 794.152 367.742 797.104 369.397C798.746 370.286 800.479 370.998 802.272 371.522C804.956 372.175 807.729 372.38 810.48 372.129C814.077 372.186 817.652 372.696 821.12 373.646C829.024 375.164 838.752 373.95 846.656 373.646C859.425 373.646 871.585 375.771 884.353 376.682C895.905 377.592 907.153 378.199 918.705 378.199H959.137C976.769 378.199 994.097 374.86 1012.03 375.164C1022.37 375.164 1032.4 373.95 1041.83 378.503C1050.64 382.752 1058.85 382.449 1068.27 381.234C1078.92 379.695 1089.48 377.567 1099.89 374.86C1110.53 372.432 1121.17 371.825 1131.81 370.307C1145.12 368.531 1158.52 367.517 1171.94 367.272C1187.75 366.969 1203.55 363.326 1219.36 361.505C1241.56 359.077 1263.44 357.256 1285.03 350.578C1292.02 348.453 1298.4 345.418 1305.09 342.99C1307.83 342.079 1313.3 340.865 1313.91 337.223C1302.96 333.884 1289.59 340.258 1278.95 333.58C1276.52 332.063 1275.3 329.634 1272.56 328.117C1269.29 326.755 1265.76 326.133 1262.23 326.295C1255.24 325.992 1247.33 328.117 1241.25 324.474C1236.25 321.378 1230.41 319.894 1224.53 320.225C1216.94 319.717 1209.31 319.818 1201.73 320.528C1196.69 321.234 1191.62 321.64 1186.53 321.743C1181.67 322.046 1177.11 323.26 1172.24 323.564C1157.04 324.171 1141.84 325.992 1126.64 327.206C1099.59 329.938 1071.92 327.206 1044.56 327.813C1021.15 328.117 997.441 331.152 974.033 330.848C962.785 330.848 951.841 332.366 940.593 332.366C933.074 332.165 925.551 332.571 918.097 333.58C909.244 334.509 900.494 336.236 891.953 338.74C889.825 339.347 888.609 341.168 886.785 342.079C883.753 343.096 880.551 343.509 877.361 343.293C873.105 343.9 868.849 345.114 864.897 345.721C858.817 346.632 852.737 345.418 846.961 346.328C839.968 347.543 832.976 346.328 826.288 347.543C824.16 347.846 822.032 348.757 819.904 349.06C816.864 349.971 817.472 349.667 816.864 350.881Z" fill="#4E2120"/>
<path d="M1236.39 290.782C1236.39 284.907 1235.47 279.068 1233.65 273.481C1232.44 268.928 1229.7 265.286 1228.18 260.733C1226.66 256.483 1226.05 252.537 1224.23 248.591C1218.75 236.754 1212.67 225.827 1207.51 213.989C1202.53 202.99 1196.63 192.43 1189.87 182.422C1187.44 178.476 1184.1 175.137 1181.36 171.191C1179.23 167.852 1177.41 163.906 1175.28 160.568C1169.81 151.462 1165.86 143.266 1157.65 136.285C1150.35 129.911 1139.11 122.626 1129.38 120.502C1128.16 120.198 1127.25 120.198 1126.03 119.895C1128.3 122.963 1130.74 125.901 1133.33 128.697C1137.59 133.553 1142.45 138.106 1146.71 142.963C1150.33 147.592 1153.3 152.699 1155.52 158.139C1157.04 161.478 1161.6 166.031 1159.78 169.977C1158.26 173.316 1151.57 176.351 1148.53 178.476C1144.74 181.452 1141.36 184.923 1138.5 188.796C1135.15 193.045 1130.9 194.26 1126.64 197.598C1123.91 199.42 1116 205.49 1116 209.436C1119.23 209.892 1122.5 209.892 1125.73 209.436C1130.59 209.436 1141.23 209.74 1143.97 214.596C1146.4 218.845 1142.75 226.13 1140.02 229.469C1136.67 233.415 1132.72 234.326 1128.16 236.147C1121.38 238.927 1115.11 242.826 1109.62 247.681C1104.75 251.627 1098.37 261.643 1091.68 261.947C1087.73 261.947 1087.12 258.001 1083.78 257.09C1078.61 255.269 1072.83 260.126 1067.36 260.126C1070.71 253.752 1079.22 249.806 1084.08 244.342C1087.12 241.003 1093.81 234.933 1092.9 229.469C1089.55 229.166 1085.6 232.504 1082.87 234.022C1078.31 236.754 1074.35 239.486 1070.1 242.521C1060.78 250.783 1049.63 256.713 1037.57 259.822C1025.63 262.822 1013.85 266.47 1002.31 270.749C1001.09 271.053 986.802 274.695 992.578 279.248C995.314 281.373 1004.43 279.248 1007.47 279.552C1010.37 280.256 1013.32 280.763 1016.29 281.069H1033.31C1035.75 281.069 1039.09 280.159 1040 282.587C1040.61 284.408 1037.87 287.443 1036.66 288.354C1032.1 293.818 1027.23 297.46 1019.94 297.46C1015.15 297.485 1010.4 298.412 1005.95 300.192C998.658 302.923 987.106 314.761 984.673 301.709C984.065 298.067 983.154 298.371 978.897 298.674C971.601 298.978 964.305 301.709 957.009 303.227C941.107 307.213 924.96 310.153 908.673 312.029C896.513 313.244 884.049 312.333 871.889 312.333C869.153 312.333 854.561 310.512 857.297 316.582C857.601 317.493 862.465 319.314 863.377 319.921L869.761 324.474C873.713 327.509 874.017 328.42 873.713 332.973C873.409 336.312 874.017 336.615 870.673 336.919C868.241 337.222 866.113 335.705 863.681 335.401C857.203 334.176 850.807 332.554 844.529 330.545C838.753 328.42 833.888 323.564 829.024 320.225C825.666 317.856 821.564 316.778 817.472 317.189C814.846 316.886 812.194 316.886 809.568 317.189C806.224 318.1 804.4 322.653 803.792 325.688C802.88 331.152 804.4 334.187 797.712 333.884C793.072 333.398 788.383 334.022 784.032 335.705C782.343 336.598 780.423 336.959 778.524 336.743C776.625 336.526 774.836 335.741 773.392 334.491C773.343 335.212 773.447 335.936 773.696 336.615C775.423 338.368 777.364 339.898 779.472 341.168C784.222 344.568 788.788 348.215 793.152 352.095C798.32 356.952 806.832 357.255 813.52 358.166C824.23 359.183 834.989 359.588 845.745 359.38C874.321 359.38 902.593 353.613 931.169 357.863C939.073 359.077 947.281 359.684 955.185 361.505C962.461 363.87 970.034 365.198 977.681 365.451C995.01 365.451 1012.34 365.754 1029.36 363.023C1047.3 359.987 1065.23 357.863 1083.17 355.131C1096.55 353.006 1109.92 351.488 1122.99 348.15C1130.32 346.592 1137.73 345.477 1145.19 344.811C1152.79 343.9 1159.78 342.079 1167.38 340.561C1173.76 339.347 1180.75 339.044 1187.44 338.133C1194.13 337.222 1198.39 331.455 1204.77 329.027C1213.03 326.089 1220.98 322.326 1228.48 317.796C1233.04 314.761 1235.17 313.547 1235.17 308.083C1236.19 302.376 1236.6 296.576 1236.39 290.782V290.782Z" fill="#2F1E00"/>
<path d="M557.854 341.169C563.122 346.753 569.162 351.556 575.791 355.434C585.519 360.898 596.463 362.112 607.407 363.63C617.371 365.346 627.22 367.678 636.895 370.611C648.751 373.343 660.607 376.378 672.463 377.896C677.327 378.503 681.887 379.717 686.751 380.628C692.831 381.842 698.911 382.449 704.687 383.663C715.382 385.889 726.293 386.907 737.216 386.698C746.164 386.706 755.103 386.098 763.968 384.877C766.096 384.573 770.96 384.573 772.176 382.449C772.882 380.292 772.987 377.983 772.48 375.771C771.782 372.21 770.659 368.745 769.136 365.451C767.351 357.849 766.032 350.145 765.184 342.383C764.576 338.437 765.488 331.759 763.36 328.117C760.016 322.653 750.896 322.957 745.728 322.35C737.824 321.439 729.616 321.439 721.712 320.832C713.807 320.225 705.903 319.618 697.999 319.618C677.023 319.314 655.439 318.404 634.767 321.743C628.383 322.653 622.303 324.171 615.919 325.385C607.103 326.903 598.591 329.027 590.079 331.152C581.485 333.287 573.053 336.025 564.847 339.347C562.719 339.954 560.895 340.561 558.767 341.169C557.551 341.472 556.638 342.686 557.854 341.169Z" fill="#4E2120"/>
<path d="M739.344 113.52C734.176 112.913 729.008 117.77 724.144 119.591C715.024 123.233 705.904 127.179 696.784 130.518C689.488 132.946 682.496 135.982 675.199 138.713C669.836 140.948 665.054 144.374 661.215 148.73C658.946 150.835 656.908 153.175 655.135 155.711C652.703 159.354 651.183 163.906 649.055 167.852C643.887 178.172 640.543 189.1 634.767 199.116C630.932 205.321 626.105 210.858 620.479 215.507C616.761 218.958 613.584 222.949 611.055 227.344C607.103 234.022 605.279 242.521 600.111 248.288C596.016 253.143 591.197 257.341 585.823 260.733C580.351 264.375 575.487 268.321 570.015 271.963C565.688 274.34 561.868 277.536 558.767 281.373C555.119 286.836 554.207 292.907 552.079 298.978C550.482 303.445 549.162 308.007 548.127 312.636C547.215 316.279 545.391 319.618 544.783 322.957C544.378 326.178 544.276 329.429 544.479 332.669C544.479 336.312 546.303 339.651 546.607 343.293C558.463 346.328 570.623 348.15 582.175 351.185C594.335 354.22 605.887 358.166 618.351 359.987C630.511 361.505 643.279 360.898 655.439 361.808C675.199 363.023 695.264 361.808 715.024 363.023C719.964 363.658 724.985 363.032 729.616 361.201C735.696 358.47 739.04 351.792 741.776 346.025C749.68 331.152 753.632 314.761 757.28 298.371C759.639 287.3 762.892 276.438 767.008 265.893C769.44 259.822 772.784 254.055 774.608 247.984C776.736 241.307 776.736 233.111 777.344 226.13C778.055 218.461 778.157 210.747 777.648 203.062C776.432 189.707 771.264 177.262 769.136 164.21C767.494 155.65 764.627 147.37 760.624 139.624C757.879 134.41 753.917 129.933 749.072 126.572C746.315 124.823 743.674 122.897 741.168 120.805C740.344 119.801 739.753 118.627 739.438 117.367C739.122 116.107 739.09 114.794 739.344 113.52V113.52Z" fill="#BC7A04"/>
<path d="M778.56 203.366C777.344 190.01 772.176 177.565 770.048 164.514C768.406 155.953 765.539 147.673 761.536 139.928C760.928 139.017 760.32 137.803 759.712 136.892C760.32 143.266 760.32 149.641 760.32 156.015C760.32 160.264 760.624 166.638 758.192 170.281C755.833 174.087 752.853 177.472 749.376 180.297C745.895 182.746 741.972 184.499 737.824 185.457C733.682 186.898 729.404 187.915 725.056 188.493C723.032 188.341 721 188.341 718.976 188.493C716.701 188.845 714.525 189.672 712.592 190.921C708.944 192.135 704.688 192.135 703.168 196.688C702.415 199.386 701.806 202.121 701.344 204.883C699.936 209.27 697.168 213.097 693.44 215.81C686.448 222.184 679.456 228.559 672.159 234.933C668.207 238.272 663.647 241.61 659.695 244.646C657.567 246.467 653.919 251.02 651.487 251.627C657.036 251.084 662.528 250.069 667.903 248.592C670.67 248.13 673.41 247.522 676.111 246.77C677.743 245.937 679.274 244.919 680.672 243.735C680.976 247.377 677.631 251.93 676.719 255.573C676.168 257.667 675.762 259.797 675.504 261.947C673.59 262.251 671.641 262.251 669.727 261.947C667.273 262.203 664.836 262.609 662.431 263.161C658.284 263.667 654.085 263.565 649.967 262.858C646.319 261.947 646.319 262.25 643.887 265.286C641.207 268.304 638.14 270.957 634.767 273.178C630.691 277.143 626.321 280.795 621.695 284.105C618.85 286.295 616.205 288.733 613.791 291.389C611.967 293.211 611.359 295.639 609.231 297.156C606.009 300.026 602.433 302.474 598.591 304.441C601.631 304.138 605.279 305.048 608.319 304.441C611.967 303.834 614.399 300.192 618.047 299.281C619.945 298.878 621.894 298.776 623.823 298.978C625.343 299.585 624.735 299.888 625.951 300.799C627.799 301.942 629.53 303.264 631.119 304.745C632.943 306.869 632.639 310.512 634.767 312.94C639.023 317.797 646.015 318.1 650.271 323.26C652.312 326.848 653.063 331.025 652.399 335.098C652.463 335.523 652.442 335.956 652.337 336.372C652.233 336.789 652.047 337.181 651.791 337.526C650.575 339.347 646.319 339.651 644.191 339.954C638.719 340.561 633.551 338.74 628.079 339.044C624.431 339.347 619.567 341.775 616.223 341.168C611.663 340.258 611.967 334.187 606.495 333.884C601.735 334.16 597.081 335.399 592.815 337.526C587.377 339.503 581.785 341.026 576.095 342.079C570.015 343.597 563.935 345.418 557.855 346.328C566.063 348.15 574.575 349.667 582.783 351.488C594.943 354.524 606.495 358.47 618.959 360.291C631.119 361.808 643.887 361.201 656.047 362.112C675.808 363.326 695.872 362.112 715.632 363.326C720.572 363.962 725.593 363.335 730.224 361.505C736.304 358.773 739.648 352.096 742.384 346.328C750.288 331.455 754.24 315.065 757.888 298.674C760.246 287.604 763.5 276.742 767.616 266.196C770.048 260.126 773.392 254.359 775.216 248.288C777.344 241.61 777.344 233.415 777.952 226.434C779.066 218.795 779.27 211.052 778.56 203.366V203.366Z" fill="#2F1E00"/>
<path d="M1867.19 9.71298C1855.34 7.28473 1848.95 0 1835.88 0C1833.45 3.03531 1827.67 3.9459 1824.02 5.16002C1816.42 7.89179 1808.82 10.6236 1801.53 13.6589C1773.56 24.2824 1746.81 37.9413 1719.14 48.5649C1702.12 54.939 1686.01 61.0096 1669.29 68.9014C1655.64 75.2688 1640.86 78.8792 1625.81 79.525C1619.43 79.8285 1612.74 78.3109 1606.66 79.525C1598.76 81.0427 1590.25 85.8992 1582.65 88.9345C1554.68 100.469 1529.14 115.645 1503 131.125C1482.93 142.963 1460.44 145.998 1438.24 152.069C1424.26 155.711 1409.97 158.443 1396.29 163.299C1387.78 166.335 1379.27 171.191 1370.45 173.012C1363.46 174.53 1354.95 173.619 1347.65 173.619C1339.07 174.061 1330.46 173.243 1322.12 171.191C1318.77 170.281 1316.04 171.191 1313 170.584C1309.65 169.977 1307.22 167.852 1303.88 167.245C1294.15 165.424 1281.99 167.549 1272.26 167.549C1261.62 167.549 1251.89 166.942 1241.56 170.584C1228.18 175.137 1217.24 184.243 1203.55 188.796C1187.75 194.26 1172.85 201.848 1157.65 208.222C1147.16 212.39 1136.39 215.838 1125.43 218.542C1115.09 221.274 1104.75 225.523 1094.42 227.648C1083.17 230.076 1068.27 230.38 1059.76 222.184C1057.33 219.756 1056.72 217.631 1053.38 216.114C1050.03 214.9 1044.87 215.81 1041.22 216.114C1034.62 215.793 1028.09 214.672 1021.76 212.775C1011.43 210.954 998.962 213.078 988.321 213.078C969.777 213.078 948.193 216.114 929.649 212.471C917.489 210.347 908.673 204.883 896.209 207.615C869.153 213.078 843.313 222.184 816.56 229.773C764.88 244.646 713.808 261.947 661.519 275.302C641.05 280.918 620.231 285.176 599.199 288.051C583.391 290.175 569.103 294.121 553.599 297.46C539.918 300.495 524.414 296.549 511.95 290.175C507.694 287.747 504.654 284.105 499.79 282.89C494.318 281.373 488.542 283.194 483.07 284.408C472.126 286.533 461.182 286.836 450.238 288.961C439.347 291.273 428.236 292.392 417.102 292.3C401.785 291.663 386.683 288.483 372.413 282.89C348.397 274.392 325.293 267.41 299.757 267.714C261.909 268.491 224.089 265.132 186.972 257.697C162.044 252.234 136.812 249.502 112.188 243.735C85.1314 237.361 57.7712 232.201 30.715 226.434C17.6851 223.949 4.45938 222.628 -8.8053 222.488L-3.33326 533H1921V9.71298C1902.76 10.6236 1884.22 12.7483 1867.19 9.71298Z" fill="#B85C07"/>
<path d="M-33.7334 292.907C-30.6356 292.967 -27.5632 293.478 -24.6133 294.425C-19.4453 295.032 -14.2773 295.032 -9.10925 295.639C2.43823 296.705 14.0717 296.4 25.547 294.728C40.1391 293.211 55.0352 291.693 69.6273 290.175C76.3153 289.568 82.6994 288.051 89.3874 286.836C95.4675 285.622 101.548 285.319 107.628 283.801C112.796 282.587 117.66 280.462 122.828 279.552C127.692 278.641 132.86 278.034 138.028 277.123C141.676 276.213 145.02 274.695 148.972 273.481C150.796 272.874 153.228 273.481 155.052 272.267C159.916 268.321 149.884 265.589 147.148 264.375C134.988 258.608 122.22 256.483 109.148 253.752C82.6994 247.681 55.3392 251.627 28.891 252.234C10.3469 252.537 -8.80524 257.697 -26.4374 263.768C-34.3414 266.5 -51.3655 270.446 -51.9735 281.373C-52.5815 288.658 -42.5495 291.389 -33.7334 292.907Z" fill="#4E2120"/>
<path d="M150.188 215.507C147.756 216.114 147.452 214.596 145.628 213.685C142.549 212.578 139.595 211.154 136.812 209.436C133.385 206.823 130.228 203.874 127.388 200.634C122.998 196.877 119.205 192.476 116.14 187.582C110.668 177.869 111.276 168.459 110.668 157.836C110.364 150.855 102.46 150.551 97.2915 147.819C90.3014 143.442 82.7282 140.07 74.7953 137.803C68.4113 136.285 62.3312 132.643 55.6432 132.036C51.0832 131.732 46.8271 130.518 41.9631 130.518H35.275C29.499 130.518 27.067 132.036 21.899 134.16C18.6535 134.994 15.6394 136.55 13.0829 138.713C11.7187 140.379 10.1911 141.904 8.52287 143.266C4.87484 146.302 0.314805 148.426 -3.33322 151.462C-9.10926 156.622 -16.4053 159.657 -23.3974 163.299C-27.0454 165.121 -33.4294 169.37 -32.8214 174.226C-32.5174 176.958 -30.9974 178.172 -31.3014 181.208C-32.8171 186.603 -35.1769 191.725 -38.2935 196.384C-47.1095 211.864 -49.8455 227.344 -49.5415 245.253C-49.7665 250.773 -48.1639 256.213 -44.9815 260.733C-39.8135 267.41 -34.0374 268.624 -25.8294 269.535C-14.8853 271.053 -3.94122 272.267 6.69885 274.392C22.811 277.427 38.6191 279.248 54.7312 281.373C64.4592 282.587 74.1873 284.105 83.9154 284.712C93.9474 285.319 103.676 282.587 113.404 279.855C129.212 275.302 149.58 273.785 160.524 260.429C166.604 252.841 170.86 236.45 161.132 230.38C158.598 229.144 156.16 227.724 153.836 226.13C151.404 224.309 151.708 223.398 150.188 215.507Z" fill="#BC7A04"/>
<path d="M161.74 230.683C159.206 229.448 156.768 228.028 154.444 226.434C151.708 224.309 151.708 223.399 150.188 215.507C147.756 216.114 147.452 214.596 145.628 213.686C142.549 212.578 139.595 211.154 136.812 209.436C133.385 206.823 130.228 203.874 127.388 200.634C122.998 196.877 119.205 192.476 116.14 187.582C110.668 177.869 111.276 168.459 110.668 157.836C110.364 152.979 106.716 151.462 102.763 149.944C100.467 151.671 97.8983 153.004 95.1634 153.89C86.3474 157.229 79.0513 159.961 69.3233 159.354C66.212 158.676 63.066 158.17 59.8992 157.836C54.7823 157.421 49.6324 157.935 44.6991 159.354C38.6915 161.57 32.8059 164.103 27.067 166.942C25.851 167.549 16.4269 171.495 16.1229 172.709C19.4669 173.923 23.419 173.316 27.067 174.53C31.323 176.048 34.667 178.476 38.6191 180.297C43.4831 182.725 51.6912 183.94 55.3392 187.885C50.4751 191.528 42.2671 192.135 36.7951 194.26C32.0548 195.597 27.5448 197.643 23.419 200.33C19.1321 204.183 15.6236 208.819 13.0829 213.989C10.9549 218.846 5.48284 222.791 0.922812 225.827C-2.78324 228.144 -6.91884 229.693 -11.2373 230.38C-15.4933 231.29 -19.4453 230.987 -23.7014 231.897C-29.0066 233.229 -34.387 234.243 -39.8135 234.933C-42.9424 235.296 -46.0878 235.498 -49.2375 235.54C-49.5415 238.879 -49.5415 242.217 -49.5415 245.86C-49.7666 251.38 -48.164 256.82 -44.9815 261.34C-39.8135 268.018 -34.0374 269.232 -25.8294 270.142C-14.8853 271.66 -3.94122 272.874 6.69885 274.999C22.811 278.034 38.6191 279.855 54.7312 281.98C64.4592 283.194 74.1873 284.712 83.9154 285.319C93.9474 285.926 103.676 283.194 113.404 280.462C129.212 275.909 149.58 274.392 160.524 261.036C167.212 253.448 171.468 236.754 161.74 230.683Z" fill="#2F1E00"/>
<path d="M28.587 294.424C28.5916 283.239 29.5066 272.073 31.3231 261.036C31.9852 255.306 33.4167 249.691 35.5791 244.342C37.4031 239.789 40.4431 235.54 42.5711 230.987C48.0432 218.542 59.5952 213.078 69.9313 205.49C76.0113 200.937 82.0914 195.777 88.1714 190.921C93.0751 187.277 97.6524 183.214 101.852 178.779C104.112 176.41 106.053 173.757 107.628 170.888C108.54 168.763 108.54 166.638 109.452 164.21C111.62 159.561 114.162 155.095 117.052 150.855C121.612 144.177 127.388 138.713 132.252 132.339C136.728 125.894 141.818 119.897 147.452 114.431C159.308 104.111 172.988 101.986 187.884 98.9508C216.46 93.1837 246.253 93.7908 275.133 91.3625C300.365 89.2378 326.509 91.059 351.741 91.059C360.861 91.059 372.109 89.2378 381.229 91.3625C390.957 93.4872 401.902 100.772 409.502 107.146C417.71 114.127 421.662 122.626 427.134 131.429C429.262 135.071 431.086 138.713 433.214 142.052C435.646 145.998 438.99 149.337 441.726 153.283C448.255 163.429 454.144 173.972 459.358 184.85C464.526 196.688 470.91 207.918 476.078 219.452C477.902 223.398 478.51 227.648 480.03 231.594C481.55 236.147 484.286 239.789 485.502 244.342C487.175 249.963 488.095 255.781 488.238 261.643V279.248C488.238 284.711 486.11 286.229 481.55 288.961C474.11 293.611 466.152 297.38 457.838 300.192C451.454 302.62 447.198 308.69 440.51 309.297C433.822 310.208 427.134 310.512 420.446 311.726C412.846 313.243 405.854 315.065 398.254 315.975C390.793 316.619 383.381 317.735 376.061 319.314C362.932 322.401 349.635 324.732 336.237 326.295C318.301 329.027 300.365 331.455 282.429 334.187C265.307 336.509 248.013 337.322 230.748 336.615C223.101 336.363 215.528 335.034 208.252 332.669C200.352 330.841 192.323 329.623 184.236 329.027C155.66 324.778 127.388 330.545 98.8115 330.545C88.0558 330.746 77.2972 330.341 66.5873 329.33C59.8992 328.42 51.3872 328.116 46.2191 323.26C41.9477 319.271 37.3741 315.618 32.5391 312.333C30.4305 311.062 28.49 309.533 26.763 307.78C24.027 304.745 28.891 299.281 28.587 294.424Z" fill="#BC7A04"/>
<path d="M68.1072 321.743C63.8512 321.135 59.2912 323.867 55.0351 324.778C51.0831 325.688 46.5231 323.867 42.8751 325.688C40.139 327.206 36.795 328.724 34.059 330.545C28.891 334.491 34.971 335.401 38.923 336.616C42.2218 337.376 45.3951 338.603 48.3471 340.258C49.9893 341.147 51.7218 341.86 53.5151 342.383C56.1988 343.036 58.9724 343.242 61.7232 342.99C65.3196 343.047 68.8945 343.557 72.3633 344.507C80.2673 346.025 89.9954 344.811 97.8994 344.507C110.668 344.507 122.828 346.632 135.596 347.543C147.148 348.453 158.396 349.06 169.948 349.06H210.38C228.012 349.06 245.34 345.721 263.277 346.025C273.613 346.025 283.645 344.811 293.069 349.364C301.885 353.613 310.093 353.31 319.517 352.096C330.166 350.556 340.721 348.428 351.133 345.721C361.773 343.293 372.413 342.686 383.053 341.169C396.36 339.392 409.759 338.378 423.182 338.133C438.99 337.83 454.798 334.187 470.606 332.366C492.798 329.938 514.686 328.117 536.27 321.439C543.263 319.314 549.647 316.279 556.335 313.851C559.071 312.94 564.543 311.726 565.151 308.084C554.207 304.745 540.831 311.119 530.19 304.441C527.758 302.924 526.542 300.495 523.806 298.978C520.538 297.616 517.008 296.994 513.47 297.157C506.478 296.853 498.574 298.978 492.494 295.335C487.49 292.239 481.652 290.756 475.774 291.086C468.178 290.578 460.554 290.679 452.974 291.389C447.936 292.095 442.86 292.501 437.774 292.604C432.91 292.907 428.35 294.121 423.486 294.425C408.286 295.032 393.086 296.853 377.885 298.067C350.829 300.799 323.165 298.067 295.805 298.674C272.397 298.978 248.685 302.013 225.276 301.71C214.028 301.71 203.084 303.227 191.836 303.227C184.317 303.026 176.794 303.432 169.34 304.441C160.487 305.37 151.737 307.097 143.196 309.601C141.068 310.208 139.852 312.03 138.028 312.94C134.996 313.957 131.794 314.37 128.604 314.154C124.348 314.761 120.092 315.975 116.14 316.583C110.06 317.493 103.979 316.279 98.2034 317.19C91.2114 318.404 84.2193 317.19 77.5313 318.404C75.4033 318.707 73.2753 319.618 71.1473 319.921C68.1072 320.832 68.7152 320.528 68.1072 321.743Z" fill="#4E2120"/>
<path d="M487.63 261.947C487.637 256.072 486.714 250.233 484.894 244.646C483.678 240.093 480.942 236.45 479.422 231.897C477.902 227.648 477.294 223.702 475.47 219.756C469.998 207.918 463.918 196.991 458.75 185.154C453.773 174.155 447.874 163.595 441.118 153.586C438.686 149.64 435.342 146.302 432.606 142.356C430.478 139.017 428.654 135.071 426.526 131.732C421.054 122.626 417.102 114.431 408.894 107.45C401.598 101.076 390.35 93.7909 380.621 91.6661C379.405 91.3626 378.493 91.3626 377.277 91.0591C379.543 94.1271 381.979 97.0659 384.573 99.8615C388.83 104.718 393.694 109.271 397.95 114.127C401.575 118.756 404.542 123.863 406.766 129.304C408.286 132.643 412.846 137.196 411.022 141.142C409.502 144.48 402.814 147.516 399.774 149.64C395.982 152.617 392.608 156.088 389.742 159.961C386.397 164.21 382.141 165.424 377.885 168.763C375.149 170.584 367.245 176.655 367.245 180.601C370.472 181.056 373.747 181.056 376.973 180.601C381.837 180.601 392.478 180.904 395.214 185.761C397.646 190.01 393.998 197.295 391.262 200.634C387.917 204.58 383.965 205.49 379.405 207.311C372.62 210.091 366.352 213.99 360.861 218.845C355.997 222.791 349.613 232.808 342.925 233.111C338.973 233.111 338.365 229.165 335.021 228.255C329.853 226.434 324.077 231.29 318.605 231.29C321.949 224.916 330.461 220.97 335.325 215.507C338.365 212.168 345.053 206.097 344.141 200.634C340.797 200.33 336.845 203.669 334.109 205.187C329.549 207.918 325.597 210.65 321.341 213.685C312.026 221.947 300.877 227.878 288.813 230.987C276.868 233.987 265.096 237.635 253.549 241.914C252.333 242.217 238.044 245.86 243.821 250.413C246.557 252.537 255.677 250.413 258.717 250.716C261.618 251.42 264.563 251.927 267.533 252.234H284.557C286.989 252.234 290.333 251.323 291.245 253.751C291.853 255.573 289.117 258.608 287.901 259.519C283.341 264.982 278.477 268.624 271.181 268.624C266.389 268.65 261.645 269.576 257.197 271.356C249.901 274.088 238.348 285.926 235.916 272.874C235.308 269.232 234.396 269.535 230.14 269.839C222.844 270.142 215.548 272.874 208.252 274.392C192.35 278.377 176.203 281.318 159.916 283.194C147.756 284.408 135.292 283.497 123.132 283.497C120.396 283.497 105.804 281.676 108.54 287.747C108.844 288.658 113.708 290.479 114.62 291.086L121.004 295.639C124.956 298.674 125.26 299.585 124.956 304.138C124.652 307.476 125.26 307.78 121.916 308.083C119.484 308.387 117.356 306.869 114.924 306.566C108.446 305.34 102.05 303.718 95.7715 301.709C89.9955 299.585 85.1314 294.728 80.2674 291.389C76.9088 289.021 72.8065 287.943 68.7153 288.354C66.0894 288.05 63.4372 288.05 60.8113 288.354C57.4673 289.265 55.6432 293.818 55.0352 296.853C54.1232 302.316 55.6432 305.352 48.9552 305.048C44.315 304.563 39.6258 305.187 35.2751 306.869C33.5859 307.762 31.6657 308.124 29.7668 307.907C27.8678 307.691 26.079 306.906 24.635 305.655C24.5863 306.377 24.6898 307.101 24.939 307.78C26.666 309.533 28.6065 311.063 30.7151 312.333C35.4647 315.732 40.0311 319.38 44.3952 323.26C49.5632 328.116 58.0753 328.42 64.7633 329.331C75.4728 330.347 86.2317 330.752 96.9875 330.545C125.564 330.545 153.836 324.778 182.412 329.027C190.316 330.241 198.524 330.848 206.428 332.669C213.704 335.035 221.277 336.363 228.924 336.615C246.253 336.615 263.581 336.919 280.605 334.187C298.541 331.152 316.477 329.027 334.413 326.295C347.789 324.171 361.165 322.653 374.237 319.314C381.561 317.757 388.972 316.642 396.43 315.975C404.03 315.065 411.022 313.243 418.622 311.726C425.006 310.512 431.998 310.208 438.686 309.298C445.374 308.387 449.63 302.62 456.014 300.192C464.276 297.253 472.22 293.491 479.726 288.961C484.286 285.926 486.414 284.712 486.414 279.248C487.423 273.539 487.831 267.74 487.63 261.947V261.947Z" fill="#2F1E00"/>
<path d="M390.349 338.437C389.741 333.58 386.093 329.634 384.269 325.385C381.533 319.618 380.317 315.672 382.749 309.601C384.269 305.352 387.005 297.763 391.869 296.246C393.46 295.645 395.084 295.138 396.734 294.728C399.361 294.481 401.999 294.38 404.638 294.425C411.022 292.907 413.15 286.533 413.15 280.766C413.204 277.538 413.935 274.358 415.296 271.43C416.658 268.502 418.619 265.892 421.054 263.768C424.842 259.92 429.55 257.099 434.734 255.573C443.246 253.448 452.062 253.752 460.574 251.627C469.998 249.502 479.422 249.502 488.846 247.984C492.581 247.58 496.343 247.479 500.094 247.681C505.979 247.436 511.806 246.415 517.422 244.646C521.07 243.431 525.934 240.396 529.887 241.914C531.711 242.521 533.231 244.949 535.055 245.86C541.743 249.502 550.559 250.716 554.207 258.608C555.423 261.34 555.119 262.554 557.551 264.982C559.574 267.508 561.925 269.754 564.543 271.66C567.583 273.785 570.927 275.909 573.967 278.337C576.222 279.773 578.02 281.82 579.15 284.239C580.281 286.658 580.698 289.349 580.351 291.996C580.351 298.067 578.527 307.78 573.359 311.726C572.751 312.029 570.015 312.94 569.407 313.243C567.21 314.465 564.858 315.384 562.415 315.975C553.662 318.028 545.115 320.873 536.879 324.474C528.156 328.309 519.224 331.653 510.126 334.491C502.728 336.543 495.217 338.165 487.63 339.347C476.686 341.472 466.046 345.114 455.71 348.149C452.67 349.06 449.63 349.364 446.59 349.971C441.422 350.881 436.558 353.006 431.39 353.917C426.546 354.473 421.661 354.574 416.798 354.22C411.022 353.917 405.55 350.578 399.774 349.971C395.214 348.757 385.485 349.364 390.349 338.437Z" fill="#BC7A04"/>
<path d="M572.751 298.978C576.703 298.674 580.047 300.495 583.999 300.495H596.159C602.847 300.495 608.927 299.888 615.311 302.924C616.831 303.531 617.743 303.531 618.351 305.048C618.572 305.872 618.545 306.743 618.275 307.552C618.005 308.362 617.503 309.074 616.831 309.601C615.062 310.286 613.229 310.794 611.359 311.119C609.687 311.86 607.959 312.469 606.191 312.94C602.239 313.851 598.591 314.458 594.639 315.672C590.991 316.886 587.951 319.011 584.607 320.225C583.087 320.832 580.959 320.528 579.439 321.743C578.223 322.957 578.527 324.778 577.311 326.295C574.271 329.634 566.975 330.241 563.023 330.545C558.195 331.351 553.321 331.857 548.431 332.063C544.885 331.708 541.309 331.81 537.79 332.366C533.301 333.976 528.933 335.903 524.718 338.133C518.361 340.632 511.727 342.364 504.958 343.293C498.878 344.204 492.798 345.721 486.718 346.936C482.229 347.989 477.647 348.599 473.038 348.757C466.958 348.757 461.79 350.274 455.71 350.274C452.67 350.274 449.63 349.971 446.59 350.274C444.106 350.488 441.656 350.997 439.294 351.792C433.862 352.651 428.337 352.753 422.878 352.096C418.926 351.792 415.886 350.274 411.934 350.578C409.502 350.578 405.246 351.792 404.03 349.06C405.246 347.239 409.806 346.632 411.63 346.025C416.494 344.811 421.358 343.597 426.222 342.686C437.166 340.258 447.806 337.223 458.446 335.098C465.134 333.884 471.518 332.973 477.902 331.455C495.23 326.599 511.95 319.921 529.582 315.368C532.05 314.566 534.4 313.444 536.574 312.03C539.066 311.181 541.604 310.472 544.175 309.905C548.735 308.691 552.991 305.959 557.551 304.441C561.923 303.008 566.393 301.893 570.927 301.102C573.967 300.495 578.223 301.102 572.751 298.978Z" fill="#4E2120"/>
<path d="M573.967 277.73C570.927 275.606 567.583 273.481 564.543 271.053C561.925 269.147 559.574 266.901 557.551 264.375C555.423 261.947 555.727 261.036 554.207 258.001C553.109 255.866 551.552 254 549.647 252.537C549.951 252.841 549.951 253.144 550.255 253.751C553.903 261.643 547.519 263.161 541.135 264.375C541.743 267.107 543.871 266.196 543.567 269.232C543.263 271.963 539.007 276.516 537.487 278.337C535.359 280.766 533.838 280.462 530.798 280.766C526.592 281.019 522.469 282.048 518.638 283.801C515.294 285.015 511.342 287.14 507.998 288.05C504.654 288.961 501.918 288.658 498.574 289.872C489.189 292.69 479.486 294.321 469.694 294.728C464.222 295.335 458.75 297.156 453.278 297.46C464.526 297.156 476.078 298.37 487.022 294.425C490.366 293.21 495.23 291.693 493.102 297.46C491.886 300.192 489.454 303.227 487.934 305.959C484.894 311.726 475.166 315.368 468.782 316.886C464.222 318.1 459.054 317.189 454.19 318.404C451.454 319.011 441.726 320.225 441.422 322.956C447.198 325.081 455.102 322.653 461.182 323.26C470.302 324.474 478.51 326.599 487.934 325.992C486.544 327.425 484.735 328.381 482.766 328.724C479.118 329.634 475.47 331.152 471.822 331.759C463.809 333.27 455.651 333.88 447.502 333.58C435.038 333.58 422.878 340.561 410.414 338.133C408.59 337.829 407.07 336.312 404.942 336.615C403.726 336.919 401.902 338.133 400.382 338.74C397.213 340.151 393.813 340.974 390.35 341.168C388.526 349.06 396.734 348.757 400.686 349.364C406.462 350.274 411.934 353.613 417.71 353.613C422.572 353.97 427.458 353.869 432.302 353.31C437.47 352.399 442.334 350.274 447.502 349.364C450.542 348.757 453.582 348.453 456.622 347.542C467.262 344.507 477.902 340.865 488.542 338.74C496.135 337.589 503.648 335.967 511.038 333.884C520.158 330.848 528.67 327.813 537.79 323.867C546.027 320.266 554.574 317.421 563.327 315.368C565.77 314.777 568.122 313.858 570.319 312.636C570.927 312.333 573.663 311.422 574.271 311.119C579.439 307.173 581.263 297.46 581.263 291.389C580.351 285.015 579.135 281.373 573.967 277.73Z" fill="#2F1E00"/>
<path d="M588.559 413.712C590.079 408.856 589.167 406.731 584.303 404.91C581.345 403.819 578.292 403.006 575.183 402.482C571.839 402.482 568.495 401.267 565.151 401.571L564.239 406.731C561.807 406.731 560.287 407.642 557.855 407.642C555.466 407.999 553.122 408.61 550.862 409.463C547.258 411.086 543.8 413.015 540.526 415.23C538.094 416.747 532.014 418.265 532.926 421.908C533.23 424.032 537.182 426.764 538.702 427.978C539.664 428.773 540.788 429.348 541.996 429.663C543.204 429.978 544.467 430.024 545.694 429.799C552.383 429.799 558.767 428.282 565.151 427.675C568.495 427.371 571.535 426.764 574.879 426.764C578.069 426.461 581.168 425.533 583.999 424.032C585.987 423.495 587.848 422.567 589.471 421.3C590.253 420.449 590.964 419.535 591.599 418.569C590.991 415.837 587.343 417.962 588.559 413.712Z" fill="#4E2120"/>
<path d="M529.583 415.837C530.191 411.891 536.575 409.159 538.703 405.821C540.852 402.306 543.635 399.218 546.911 396.715C550.255 394.286 558.159 395.804 562.111 395.804C564.282 395.462 566.506 395.779 568.495 396.715C570.469 398.647 572.861 400.101 575.487 400.964C576.703 401.268 577.615 400.661 578.527 401.875C579.135 402.785 578.831 404.91 578.831 406.124C579.098 408.167 578.89 410.245 578.223 412.195C576.095 416.444 569.103 417.962 565.151 419.479C562.111 420.694 559.375 421.604 556.335 422.515C554.124 423.342 551.988 424.358 549.951 425.55C545.391 427.371 542.655 424.64 538.095 423.425C536.42 422.846 534.794 422.135 533.231 421.301C530.191 418.872 529.583 419.176 529.583 415.837Z" fill="#BC7A04"/>
<path d="M568.495 407.034C566.063 407.945 564.847 407.034 562.111 406.731C560.287 406.731 554.511 405.82 553.295 407.642C554.511 407.945 559.375 408.856 559.071 410.98C559.071 413.409 552.991 413.105 551.167 414.016C548.735 414.926 546.607 416.444 544.175 417.354C543.263 417.658 541.439 418.265 541.135 419.176C540.527 420.997 542.655 421.3 542.655 423.122C541.468 423.471 540.243 423.675 539.007 423.729C542.655 425.246 545.391 427.067 549.343 425.55C551.471 424.639 553.599 423.425 555.727 422.514C558.726 421.686 561.67 420.672 564.543 419.479C568.495 417.962 575.487 416.14 577.615 412.194C578.527 410.373 577.919 408.249 578.223 406.124C578.425 404.702 578.322 403.253 577.919 401.874L577.311 401.267C577.007 401.571 576.703 401.874 576.399 401.874C574.006 403.939 571.348 405.674 568.495 407.034V407.034Z" fill="#2F1E00"/>
<path d="M685.84 348.149V349.06C693.136 351.488 700.736 351.792 708.336 353.613C713.28 354.608 718.012 356.456 722.32 359.077C724.487 360.736 726.52 362.562 728.4 364.54C730.224 366.058 732.048 366.968 731.44 369.7C730.236 372.954 728.127 375.797 725.36 377.895C724.262 378.777 722.992 379.421 721.631 379.787C720.271 380.153 718.849 380.232 717.456 380.02C710.16 380.02 702.256 383.663 695.872 386.394C692.133 387.667 688.254 388.483 684.32 388.823C681.388 389.075 678.445 389.177 675.503 389.126C673.375 389.43 671.855 390.037 669.727 390.34C660.303 390.644 650.575 390.34 641.151 390.34C638.111 390.34 635.071 389.43 632.031 389.43C630.207 389.43 626.559 388.823 625.951 386.698C632.487 383.87 639.187 381.437 646.015 379.413C653.263 376.05 660.271 372.197 666.991 367.879C671.551 365.147 677.327 363.933 680.671 359.684C682.495 356.345 684.015 350.881 685.84 348.149Z" fill="#4E2120"/>
<path d="M620.783 374.253C620.753 371.07 621.386 367.915 622.642 364.989C623.898 362.063 625.75 359.429 628.079 357.255C630.207 355.434 632.639 356.041 635.071 355.131C639.935 353.31 644.495 351.185 649.055 349.06C651.971 347.634 655.027 346.515 658.175 345.721C659.391 345.418 660.911 346.025 662.431 345.418C663.647 345.114 664.559 343.597 665.471 342.686C668.626 340.185 672.415 338.608 676.415 338.133C679.151 337.526 682.191 336.312 684.927 337.83C686.447 338.74 687.359 340.561 688.575 341.775C689.791 342.99 691.615 344.204 692.831 345.418C695.871 347.543 699.519 347.543 702.255 349.364C708.336 353.31 702.256 360.898 700.127 365.451C698.63 367.883 697.309 370.419 696.175 373.039C694.655 377.896 692.831 378.503 688.271 379.717C682.276 381.555 676.188 383.075 670.031 384.27C664.255 385.484 658.783 386.091 653.007 387.002C650.575 387.305 648.447 387.305 646.319 387.609C644.466 387.868 642.636 388.274 640.847 388.823C639.27 388.994 637.678 388.676 636.287 387.912C634.434 387.219 632.487 386.81 630.511 386.698C627.689 386.212 624.935 385.397 622.303 384.27C621.391 383.966 618.959 383.359 618.655 382.752C618.822 379.811 619.544 376.927 620.783 374.253Z" fill="#BC7A04"/>
<path d="M692.224 361.201C688.272 363.022 683.104 362.112 678.848 362.112C675.504 362.112 672.159 361.808 668.511 362.112C665.601 362.639 662.749 363.452 659.999 364.54C663.275 365.764 666.626 366.778 670.031 367.575C673.687 368.906 677.45 369.922 681.28 370.611C680.368 372.128 676.112 372.432 674.288 373.343C672.708 374.358 670.957 375.078 669.119 375.467C667.197 375.619 665.266 375.619 663.343 375.467C661.735 374.702 659.949 374.387 658.175 374.557C654.223 375.164 650.575 378.503 646.623 378.806C643.887 379.11 642.671 377.288 640.239 376.378C637.807 375.164 635.071 376.378 632.639 375.467C634.767 372.432 640.543 373.039 643.279 370.611C639.935 370.914 637.199 371.218 633.855 371.825C631.727 372.128 629.599 373.039 627.471 373.343C625.343 373.646 623.215 373.342 621.087 373.646H620.175V374.253C618.047 379.413 617.743 382.448 618.351 383.055C618.655 383.359 621.391 383.966 621.999 384.573C624.563 385.877 627.345 386.7 630.207 387.001C632.183 387.113 634.13 387.522 635.983 388.216C637.374 388.979 638.966 389.297 640.543 389.126C642.367 388.823 643.887 388.216 646.015 387.912C648.262 388.026 650.514 387.821 652.703 387.305C658.479 386.091 663.951 385.787 669.728 384.573C675.884 383.378 681.972 381.858 687.968 380.02C692.528 378.806 694.352 377.895 695.872 373.343C696.883 370.665 698.21 368.118 699.824 365.754C701.648 362.112 705.6 356.952 704.384 352.702C701.092 356.49 696.915 359.41 692.224 361.201V361.201Z" fill="#2F1E00"/>
<path d="M508.606 403.696C507.39 401.874 505.87 401.571 503.438 400.964C502.222 400.66 501.006 400.964 499.79 400.66C498.732 400.179 497.603 399.871 496.446 399.75H486.718C483.07 399.75 480.03 400.357 476.382 400.66H464.83C463.384 400.563 461.935 400.77 460.574 401.267C457.976 401.947 455.335 402.454 452.67 402.785C450.542 403.089 439.598 403.999 440.206 407.642C440.51 408.856 445.374 410.07 446.286 410.373C449.326 410.98 452.366 410.98 455.406 411.891C467.566 415.23 481.246 413.712 494.014 413.712C498.474 413.948 502.932 413.223 507.086 411.587C508.606 410.98 511.646 410.373 511.038 408.249C511.342 407.035 509.214 404.91 508.606 403.696Z" fill="#4E2120"/>
<path d="M438.686 404.606C438.484 403.285 438.588 401.935 438.99 400.66C439.294 399.446 440.814 398.232 441.422 397.018C442.742 394.334 444.731 392.035 447.198 390.34C447.99 389.667 448.91 389.16 449.902 388.847C450.894 388.534 451.938 388.423 452.974 388.519H460.878C463.674 388.151 466.517 388.572 469.086 389.733C470.268 390.91 471.596 391.93 473.038 392.769C476.382 394.286 480.638 393.376 484.59 393.376C486.071 393.204 487.566 393.524 488.846 394.286C490.062 395.197 490.062 397.018 490.974 398.232C492.798 400.357 494.622 400.66 494.926 403.392C495.23 405.517 495.23 407.945 492.798 408.552C489.368 409.008 485.892 409.008 482.462 408.552C477.902 408.552 473.646 409.463 469.39 409.463H459.662C456.926 409.463 455.102 410.373 452.366 410.373C449.969 410.591 447.557 410.172 445.374 409.159C444.462 408.552 444.158 407.035 443.246 406.428C442.334 405.517 440.814 405.517 441.118 403.696C440.67 403.661 440.221 403.724 439.801 403.881C439.38 404.039 439 404.286 438.686 404.606V404.606Z" fill="#BC7A04"/>
<path d="M481.55 396.714C479.729 396.563 477.899 396.563 476.078 396.714C475.47 399.143 475.774 400.053 472.734 400.66C470.732 401.112 468.7 401.416 466.654 401.571C465.731 401.504 464.804 401.607 463.918 401.874C464.526 401.874 460.878 403.089 461.486 402.482C459.966 403.392 459.054 404.606 457.534 405.517C455.659 406.731 453.608 407.653 451.454 408.249C449.148 408.721 446.812 409.025 444.462 409.159C446.645 410.172 449.057 410.591 451.454 410.373C454.19 410.373 456.014 409.463 458.75 409.463H468.478C473.038 409.463 476.99 408.552 481.55 408.552C484.98 409.007 488.456 409.007 491.886 408.552C494.318 407.945 494.014 405.517 494.014 403.392C493.71 400.66 491.886 400.053 490.062 398.232C489.15 397.321 489.15 396.107 488.542 395.197C487.934 395.197 487.63 395.5 487.022 395.5C485.344 396.397 483.451 396.817 481.55 396.714Z" fill="#2F1E00"/>
<path d="M1037.87 270.142C1040.42 270.278 1042.96 270.582 1045.47 271.053C1048 270.749 1050.55 270.749 1053.07 271.053C1056 271.502 1058.74 272.764 1060.98 274.695C1061.7 275.741 1062.31 276.86 1062.8 278.034C1063.53 279.333 1064.73 280.309 1066.15 280.766C1068.27 281.98 1067.97 282.587 1066.45 284.105C1064.99 285.652 1063.23 286.891 1061.28 287.747C1057.6 289.512 1053.72 290.836 1049.73 291.693C1047.91 291.996 1046.08 292.907 1043.95 293.21C1042.13 293.514 1040 294.425 1038.18 294.728C1033.92 295.335 1029.97 295.335 1025.71 295.639C1022.98 295.639 1020.85 296.549 1018.11 296.549C1016 296.853 1013.85 296.853 1011.73 296.549C1012.64 294.425 1015.07 292.907 1016.59 291.389C1019.94 288.354 1022.67 285.015 1026.32 282.283C1028.54 281.04 1030.58 279.509 1032.4 277.73C1032.71 276.213 1033.01 274.999 1037.87 270.142Z" fill="#4E2120"/>
<path d="M1005.35 293.818C1005.14 287.111 1006.17 280.423 1008.39 274.088C1009.3 271.963 1010.51 269.535 1012.95 268.928C1014.74 268.477 1016.57 268.173 1018.42 268.018C1020.19 267.44 1021.92 266.73 1023.59 265.893C1026.63 264.375 1029.97 262.554 1033.01 261.34C1033.89 260.793 1034.91 260.529 1035.95 260.583C1036.98 260.638 1037.97 261.008 1038.79 261.643C1041.05 263.195 1043.18 264.92 1045.17 266.803C1046.87 268.067 1048.23 269.736 1049.12 271.66C1049.7 272.373 1050.11 273.207 1050.32 274.101C1050.53 274.994 1050.54 275.924 1050.34 276.82C1050.03 278.034 1049.12 278.034 1048.51 278.945C1047.93 279.983 1047.52 281.111 1047.3 282.283C1046.39 285.622 1046.08 288.354 1042.74 289.872C1039.39 291.389 1036.35 292.907 1033.01 294.425C1031.87 294.944 1030.61 295.153 1029.36 295.032C1027.84 295.335 1026.63 296.246 1025.11 296.549C1023.89 296.853 1022.98 296.549 1021.76 296.853C1020.78 297.2 1019.76 297.405 1018.72 297.46H1012.64C1010.51 296.853 1008.69 294.728 1005.35 293.818Z" fill="#BC7A04"/>
<path d="M1048.82 271.356C1048.52 270.684 1048.11 270.067 1047.6 269.535C1047.3 271.356 1046.69 271.963 1044.56 272.874C1042.43 273.785 1040.61 274.999 1038.48 275.909C1037.27 276.516 1033.31 277.427 1033.31 278.641C1034.83 278.945 1040.91 277.73 1040.91 280.462C1040.03 281.338 1039 282.057 1037.87 282.587C1037.03 283.024 1036.31 283.647 1035.75 284.408C1034.53 286.229 1037.87 287.443 1034.83 288.051C1032.51 288.354 1030.16 288.354 1027.84 288.051C1026.33 288.202 1024.8 288.202 1023.28 288.051C1022.67 287.747 1022.67 287.443 1021.76 287.14C1019.33 286.533 1017.81 288.05 1015.99 288.961C1013.53 290.318 1010.85 291.243 1008.08 291.693C1007.01 292.068 1005.88 292.273 1004.74 292.3V293.514C1008.08 294.728 1010.21 296.549 1012.34 296.549H1018.42C1019.46 296.494 1020.48 296.29 1021.46 295.942C1022.67 295.639 1023.59 295.942 1024.8 295.639C1026.32 295.335 1027.54 294.425 1029.06 294.121C1030.29 294.043 1031.51 293.84 1032.71 293.514C1036.05 291.996 1039.09 290.782 1042.43 288.961C1045.78 287.443 1046.08 284.712 1046.99 281.373C1047.21 280.201 1047.62 279.073 1048.21 278.034C1048.82 277.123 1049.73 277.123 1050.03 275.909C1050.64 274.088 1049.73 272.874 1048.82 271.356Z" fill="#2F1E00"/>
<path d="M359.949 337.526C362.5 337.661 365.039 337.966 367.549 338.436C370.074 338.133 372.625 338.133 375.149 338.436C378.074 338.885 380.814 340.148 383.054 342.079C383.777 343.125 384.388 344.244 384.878 345.418C385.607 346.717 386.801 347.693 388.222 348.149C390.35 349.364 390.046 349.971 388.526 351.488C387.065 353.036 385.307 354.274 383.358 355.131C379.676 356.895 375.798 358.22 371.805 359.077C369.981 359.38 368.157 360.291 366.029 360.594C364.205 360.898 362.077 361.808 360.253 362.112C355.997 362.719 352.045 362.719 347.789 363.022C345.053 363.022 342.925 363.933 340.189 363.933C338.072 364.237 335.922 364.237 333.805 363.933C334.717 361.808 337.149 360.291 338.669 358.773C342.013 355.738 344.749 352.399 348.397 349.667C350.616 348.423 352.66 346.892 354.477 345.114C354.781 343.293 355.085 342.079 359.949 337.526Z" fill="#4E2120"/>
<path d="M327.421 360.898C327.215 354.191 328.246 347.503 330.461 341.168C331.373 339.044 332.589 336.615 335.021 336.008C336.818 335.558 338.648 335.253 340.493 335.098C342.267 334.52 343.995 333.81 345.661 332.973C348.701 331.455 352.045 329.634 355.085 328.42C355.963 327.873 356.988 327.609 358.021 327.664C359.054 327.718 360.046 328.088 360.861 328.724C363.121 330.275 365.255 332 367.245 333.884C368.949 335.147 370.308 336.817 371.197 338.74C371.776 339.453 372.186 340.288 372.397 341.181C372.608 342.075 372.613 343.004 372.413 343.9C372.109 345.114 371.197 345.114 370.589 346.025C370.003 347.064 369.593 348.192 369.373 349.364C368.461 352.703 368.157 355.434 364.813 356.952C361.469 358.47 358.429 359.987 355.085 361.505C353.944 362.024 352.686 362.234 351.437 362.112C349.917 362.416 348.701 363.326 347.181 363.63C345.965 363.933 345.053 363.63 343.837 363.933C342.858 364.28 341.835 364.485 340.797 364.54H334.717C332.893 363.933 330.765 362.112 327.421 360.898Z" fill="#BC7A04"/>
<path d="M370.893 338.437C370.597 337.764 370.185 337.148 369.677 336.615C369.373 338.437 368.765 339.044 366.637 339.954C364.509 340.865 362.685 342.079 360.557 342.99C359.341 343.597 355.389 344.507 355.389 345.721C356.909 346.025 362.989 344.811 362.989 347.543C362.105 348.419 361.077 349.137 359.949 349.667C359.11 350.104 358.382 350.727 357.821 351.488C356.605 353.31 359.949 354.524 356.909 355.131C354.588 355.434 352.238 355.434 349.917 355.131C348.401 355.283 346.873 355.283 345.357 355.131C344.749 354.827 344.749 354.524 343.837 354.22C341.405 353.613 339.885 355.131 338.061 356.041C335.603 357.399 332.929 358.323 330.157 358.773C329.081 359.148 327.953 359.353 326.813 359.38V360.594C330.157 361.809 332.285 363.63 334.413 363.63H340.493C341.53 363.575 342.554 363.37 343.533 363.023C344.749 362.719 345.661 363.023 346.877 362.719C348.397 362.416 349.613 361.505 351.133 361.201C352.367 361.123 353.589 360.92 354.781 360.594C358.125 359.077 361.165 357.863 364.509 356.041C367.853 354.524 368.157 351.792 369.069 348.453C369.288 347.281 369.699 346.153 370.285 345.114C370.893 344.204 371.805 344.204 372.109 342.99C372.717 341.472 371.805 339.954 370.893 338.437Z" fill="#2F1E00"/>
<path d="M240.173 387.001C242.723 387.137 245.262 387.441 247.773 387.912C250.297 387.609 252.848 387.609 255.373 387.912C258.298 388.361 261.037 389.623 263.277 391.554C264 392.6 264.612 393.72 265.101 394.893C265.83 396.193 267.024 397.169 268.445 397.625C270.573 398.839 270.269 399.446 268.749 400.964C267.288 402.511 265.53 403.75 263.581 404.606C259.899 406.371 256.021 407.695 252.029 408.552C250.205 408.856 248.381 409.766 246.253 410.07C244.429 410.373 242.301 411.284 240.477 411.587C236.22 412.194 232.268 412.194 228.012 412.498C225.276 412.498 223.148 413.409 220.412 413.409C218.295 413.712 216.145 413.712 214.028 413.409C214.94 411.284 217.372 409.766 218.892 408.249C222.236 405.213 224.972 401.874 228.62 399.143C230.839 397.899 232.883 396.368 234.7 394.59C235.004 393.072 235.308 391.858 240.173 387.001Z" fill="#4E2120"/>
<path d="M207.644 410.677C207.438 403.97 208.469 397.282 210.684 390.947C211.596 388.823 212.812 386.395 215.244 385.787C217.041 385.337 218.871 385.032 220.716 384.877C222.49 384.299 224.218 383.589 225.884 382.752C228.924 381.235 232.268 379.413 235.308 378.199C236.186 377.653 237.211 377.388 238.244 377.443C239.277 377.497 240.269 377.867 241.084 378.503C243.344 380.054 245.478 381.779 247.468 383.663C249.172 384.926 250.531 386.596 251.42 388.519C251.999 389.232 252.409 390.067 252.62 390.96C252.831 391.854 252.836 392.783 252.636 393.679C252.332 394.893 251.42 394.893 250.812 395.804C250.227 396.843 249.816 397.971 249.596 399.143C248.684 402.482 248.38 405.213 245.036 406.731C241.692 408.249 238.652 409.766 235.308 411.284C234.167 411.803 232.909 412.013 231.66 411.891C230.14 412.195 228.924 413.105 227.404 413.409C226.188 413.712 225.276 413.409 224.06 413.712C223.081 414.06 222.058 414.264 221.02 414.319H214.94C212.605 412.922 210.166 411.704 207.644 410.677Z" fill="#BC7A04"/>
<path d="M251.116 388.216C250.82 387.543 250.408 386.927 249.9 386.395C249.596 388.216 248.988 388.823 246.86 389.733C244.732 390.644 242.908 391.858 240.78 392.769C239.564 393.376 235.612 394.286 235.612 395.5C237.132 395.804 243.212 394.59 243.212 397.322C242.328 398.198 241.3 398.916 240.172 399.446C239.333 399.883 238.605 400.506 238.044 401.268C236.828 403.089 240.172 404.303 237.132 404.91C234.812 405.213 232.461 405.213 230.14 404.91C228.624 405.062 227.096 405.062 225.58 404.91C224.972 404.606 224.972 404.303 224.06 403.999C221.628 403.392 220.108 404.91 218.284 405.82C215.826 407.178 213.152 408.102 210.38 408.552C209.304 408.928 208.176 409.132 207.036 409.159V410.373C210.38 411.588 212.508 413.409 214.636 413.409H220.716C221.754 413.353 222.777 413.149 223.756 412.802C224.972 412.498 225.884 412.802 227.1 412.498C228.62 412.195 229.836 411.284 231.356 410.98C232.59 410.902 233.812 410.699 235.004 410.373C238.348 408.856 241.388 407.642 244.732 405.82C248.076 404.303 248.38 401.571 249.292 398.232C249.512 397.06 249.922 395.932 250.508 394.893C251.116 393.983 252.028 393.983 252.332 392.769C252.94 391.251 252.028 389.733 251.116 388.216Z" fill="#2F1E00"/>
<path d="M1142.15 301.406C1150.75 300.191 1159.49 300.499 1167.99 302.316C1169.28 302.666 1170.6 302.87 1171.94 302.923C1172.66 302.852 1173.39 302.956 1174.07 303.227C1174.89 303.343 1175.68 303.651 1176.37 304.125C1177.05 304.599 1177.62 305.227 1178.02 305.959V308.083C1178.02 308.994 1178.63 310.208 1178.63 311.422V313.547C1178.93 315.065 1179.23 314.457 1180.15 315.672C1182.27 319.314 1165.86 321.439 1164.03 321.742C1157.35 322.349 1150.35 321.742 1143.67 321.742H1119.95C1116.91 321.944 1113.86 321.843 1110.83 321.439C1107.64 320.71 1104.5 319.797 1101.41 318.707C1099.82 318.285 1098.29 317.674 1096.85 316.886C1095.28 316.411 1093.76 315.801 1092.29 315.065C1092.59 314.154 1098.07 312.333 1098.98 312.029C1103.31 309.996 1107.78 308.272 1112.35 306.869C1117.73 304.956 1123.37 303.931 1129.07 303.834C1131.2 303.834 1132.11 303.227 1134.24 303.227C1135.76 303.834 1137.28 302.923 1142.15 301.406Z" fill="#4E2120"/>
<path d="M1083.78 308.994C1091.38 302.923 1098.07 295.942 1105.36 289.568C1106.6 288.097 1108.33 287.126 1110.23 286.836H1116.31C1122.39 286.836 1128.77 285.015 1135.15 285.926C1137.28 286.229 1139.11 287.747 1141.54 288.05C1144.58 288.657 1147.62 288.354 1150.66 288.961C1152.18 289.264 1151.57 288.961 1152.18 290.175L1153.09 292.907C1154.29 295.046 1155.3 297.279 1156.13 299.585C1156.48 301.59 1156.69 303.619 1156.74 305.655C1157.04 307.476 1158.56 311.422 1156.74 312.94C1154.61 314.761 1150.35 315.065 1147.62 315.672C1143.02 316.873 1138.35 317.786 1133.63 318.403C1129.38 318.707 1125.12 319.618 1120.87 319.921C1117.93 320.073 1114.99 320.073 1112.05 319.921H1099.28C1097.08 320.319 1094.8 319.887 1092.9 318.707C1092.06 317.823 1091.14 317.011 1090.16 316.279C1089.21 315.745 1088.18 315.337 1087.12 315.065C1084.69 315.065 1084.08 314.154 1083.78 308.994Z" fill="#BC7A04"/>
<path d="M1142.45 296.853C1140.67 297.276 1138.94 297.886 1137.28 298.674C1139.11 298.371 1139.11 298.674 1139.41 300.192C1139.71 301.406 1138.8 302.013 1138.8 302.924C1138.8 304.441 1140.02 304.441 1138.8 305.655C1138.17 305.897 1137.55 306.202 1136.98 306.566L1135.15 308.387C1132.95 309.302 1130.53 309.616 1128.16 309.298C1126.1 309.303 1124.05 309.609 1122.08 310.208C1120.56 310.512 1118.74 311.422 1117.22 311.726C1118.43 310.512 1122.08 309.298 1122.39 307.476C1120.87 306.869 1117.83 309.298 1116.61 309.905C1114.48 311.119 1112.05 312.333 1110.23 313.547C1108.91 314.072 1107.68 314.788 1106.58 315.672C1105.67 316.582 1105.36 318.404 1104.45 319.314C1102.63 321.135 1100.8 320.528 1098.67 320.832H1112.66C1115.6 320.984 1118.54 320.984 1121.47 320.832C1125.73 320.528 1129.99 319.618 1134.24 319.314C1138.96 318.726 1143.63 317.813 1148.23 316.582C1150.96 315.975 1155.22 315.975 1157.35 313.851C1159.17 312.333 1157.65 308.387 1157.35 306.566C1157.04 304.441 1157.04 302.62 1156.74 300.495C1155.91 298.19 1154.89 295.957 1153.7 293.818C1153.7 293.514 1153.39 293.211 1153.39 292.907C1152.72 293.377 1152.01 293.783 1151.27 294.121C1148.26 294.806 1145.32 295.719 1142.45 296.853V296.853Z" fill="#2F1E00"/>
<path d="M1075.57 325.992C1081.44 325.131 1087.41 325.337 1093.2 326.599C1094.09 326.849 1095.02 326.952 1095.94 326.902H1097.46C1098.37 327.206 1099.89 327.813 1100.19 328.723V330.241C1100.19 330.848 1100.5 331.759 1100.5 332.366V333.883C1100.8 335.098 1101.11 334.491 1101.41 335.401C1102.93 337.829 1091.68 339.347 1090.16 339.651C1085.51 339.954 1080.83 339.954 1076.18 339.651H1060.07C1058.04 339.803 1056.01 339.803 1053.99 339.651C1051.86 339.347 1049.73 338.436 1047.3 337.829C1046.14 337.56 1045.02 337.153 1043.95 336.615C1042.89 336.343 1041.87 335.935 1040.91 335.401C1040.91 334.794 1044.87 333.58 1045.47 333.276C1048.51 331.759 1051.55 330.848 1054.59 329.634C1058.31 328.316 1062.21 327.599 1066.15 327.509C1067.38 327.455 1068.61 327.252 1069.79 326.902C1071.31 327.509 1072.23 327.206 1075.57 325.992Z" fill="#4E2120"/>
<path d="M1035.44 331.455C1040.61 327.206 1045.17 322.653 1050.34 318.1C1051.55 317.189 1052.16 316.279 1053.68 316.279H1057.94C1062.17 315.774 1066.44 315.571 1070.71 315.672C1072.23 315.975 1073.44 316.886 1074.96 317.189C1077.09 317.493 1079.22 317.493 1081.35 317.797C1082.26 318.1 1081.95 317.797 1082.26 318.404C1082.5 319.1 1082.7 319.809 1082.87 320.528C1083.47 322.046 1084.39 323.564 1084.99 325.081C1085.3 326.599 1085.3 327.813 1085.6 329.331C1085.91 330.545 1086.82 333.277 1085.6 334.491C1083.74 335.55 1081.66 336.172 1079.52 336.312C1076.18 336.919 1073.14 337.829 1069.79 338.133C1066.75 338.437 1064.02 339.044 1060.98 339.347H1046.08C1044.5 339.639 1042.87 339.313 1041.52 338.437C1040.91 337.829 1040.61 337.222 1039.7 336.919C1039.1 336.443 1038.33 336.225 1037.57 336.312C1036.05 335.401 1035.75 334.794 1035.44 331.455Z" fill="#BC7A04"/>
<path d="M1075.87 322.956C1074.66 323.563 1073.44 323.563 1072.23 324.17C1073.44 323.867 1073.44 324.17 1073.75 325.081C1073.75 325.992 1073.44 326.295 1073.44 326.902C1073.44 327.813 1074.35 328.116 1073.44 328.723C1073.14 329.027 1072.53 329.027 1072.23 329.33C1071.62 329.634 1071.31 330.241 1071.01 330.545C1069.48 331.192 1067.79 331.402 1066.15 331.152C1064.71 331.205 1063.28 331.408 1061.89 331.759C1060.81 332.165 1059.69 332.47 1058.55 332.669C1059.46 331.759 1061.89 330.848 1062.19 329.634C1061.28 329.027 1059.15 330.848 1058.24 331.455C1056.72 332.366 1055.2 332.973 1053.68 333.883C1052.83 334.32 1052.02 334.828 1051.25 335.401C1050.64 336.008 1050.34 337.222 1049.73 337.829C1048.51 339.044 1047.3 338.74 1045.78 338.74H1055.51C1057.53 338.892 1059.56 338.892 1061.59 338.74C1064.32 338.436 1067.36 337.829 1070.4 337.526C1073.75 337.222 1076.79 336.312 1080.13 335.705C1082.28 335.609 1084.37 334.983 1086.21 333.883C1087.43 332.669 1086.51 330.241 1086.21 328.723C1086.16 327.29 1085.95 325.865 1085.6 324.474C1085.02 322.901 1084.31 321.378 1083.47 319.921C1083.44 319.691 1083.34 319.478 1083.17 319.314C1082.56 319.617 1082.26 319.921 1081.65 320.225C1079.82 321.323 1077.88 322.238 1075.87 322.956V322.956Z" fill="#2F1E00"/>
<path d="M1215.11 391.554C1217.79 392.695 1220.7 393.214 1223.62 393.072C1226.29 393.501 1228.93 394.11 1231.52 394.893C1232.79 395.268 1234.01 395.777 1235.17 396.411C1236.56 396.916 1237.98 397.321 1239.43 397.625C1241.25 398.232 1242.47 399.75 1244.6 400.66C1247.03 401.571 1249.16 402.178 1250.37 404.303C1251.53 406.435 1251.96 408.887 1251.59 411.284C1251.73 412.211 1251.6 413.159 1251.22 414.018C1250.85 414.877 1250.24 415.613 1249.46 416.14C1247.94 417.051 1246.42 417.658 1244.9 418.569C1242.62 419.986 1240.17 421.108 1237.6 421.908C1232.44 423.122 1227.27 424.032 1222.4 425.246C1217.24 426.764 1212.37 428.585 1207.2 430.406C1200.82 432.531 1194.44 435.566 1187.44 434.959C1185.08 434.495 1182.74 433.887 1180.45 433.138C1178.77 432.59 1177.04 432.184 1175.28 431.924C1172.85 431.621 1170.72 430.71 1168.29 430.406C1166.75 430.354 1165.23 430.15 1163.73 429.799C1161.97 429.178 1160.12 428.87 1158.26 428.889H1137.28C1133.83 429.302 1130.33 429.096 1126.95 428.282C1125.12 427.675 1123.6 426.764 1121.78 426.157C1119.95 425.246 1119.95 424.943 1119.95 423.122C1119.95 421.604 1119.65 420.997 1120.87 420.39C1121.47 419.783 1123.3 419.783 1124.21 419.783C1127.55 419.176 1130.9 417.962 1134.24 417.051C1143.67 414.016 1153.39 411.284 1163.12 408.552C1166.62 407.722 1170.07 406.709 1173.46 405.517C1177.71 403.999 1181.97 401.571 1186.23 400.357C1190.18 399.143 1193.83 398.536 1197.78 397.625C1200.82 397.018 1203.56 395.804 1206.6 394.893C1208.42 393.376 1211.76 393.072 1215.11 391.554Z" fill="#4E2120"/>
<path d="M1119.35 414.319C1116.91 412.194 1120.56 407.034 1121.78 405.213C1124.51 400.66 1126.03 395.197 1128.77 390.644C1130.02 387.991 1132.03 385.771 1134.55 384.27C1139.41 382.145 1143.97 380.02 1149.14 378.199C1154.82 375.786 1160.72 373.955 1166.77 372.735C1172.49 371.728 1178.3 371.321 1184.1 371.521C1188.49 371.727 1192.85 372.234 1197.17 373.039C1198.92 373.195 1200.65 373.499 1202.34 373.95C1203.86 374.253 1205.38 375.164 1206.9 375.467C1211.16 376.074 1216.63 375.467 1219.67 379.11C1222.4 382.145 1223.01 387.608 1223.92 391.554C1224.23 392.465 1224.53 393.072 1224.84 393.983C1224.79 394.41 1224.9 394.84 1225.14 395.197C1225.44 395.5 1226.05 395.5 1226.36 396.107C1227.27 397.321 1226.66 402.178 1226.66 403.696C1226.51 405.26 1225.92 406.749 1224.95 407.986C1223.98 409.223 1222.67 410.157 1221.19 410.677C1217.64 412.545 1214.62 415.255 1212.37 418.569C1208.42 423.122 1202.03 425.55 1196.87 427.978C1189.42 430.984 1181.49 432.629 1173.46 432.835C1170.49 433.151 1167.49 432.84 1164.64 431.924C1160.99 430.406 1158.56 427.675 1154.61 426.764C1150.9 426.108 1147.12 425.904 1143.36 426.157H1125.12C1124.01 426.309 1122.89 426.309 1121.78 426.157C1120.26 425.55 1119.35 423.729 1118.43 422.211C1117.85 420.937 1117.63 419.529 1117.79 418.138C1117.95 416.747 1118.49 415.427 1119.35 414.319V414.319Z" fill="#BC7A04"/>
<path d="M1207.81 387.912C1204.77 389.126 1205.99 390.037 1208.42 390.947C1209.64 391.244 1210.73 391.945 1211.5 392.937C1212.28 393.93 1212.69 395.154 1212.67 396.411C1212.67 397.625 1212.98 398.839 1212.07 399.75C1210.83 400.999 1209.39 402.025 1207.81 402.785C1205.07 404.303 1202.34 406.124 1199.6 407.338C1198.47 408.033 1197.2 408.45 1195.88 408.555C1194.55 408.661 1193.23 408.452 1192 407.945C1189.57 406.731 1190.48 404.91 1189.27 403.089C1187.75 400.964 1184.71 403.392 1182.88 404.303C1179.8 406.222 1176.54 407.848 1173.15 409.159C1171.33 409.766 1167.38 409.463 1167.99 412.195C1168.29 413.409 1171.03 415.837 1170.11 417.355C1169.51 418.569 1165.55 418.569 1164.64 418.265C1163.43 417.962 1163.12 417.355 1161.91 416.748C1161.02 416.444 1160.06 416.444 1159.17 416.748C1157.99 416.723 1156.83 417.04 1155.83 417.658C1154.93 418.275 1153.87 418.593 1152.79 418.569C1149.75 418.265 1148.23 415.23 1144.58 415.533C1141.03 416.261 1137.64 417.596 1134.55 419.479C1130.59 420.997 1126.03 420.086 1121.78 420.086H1117.83C1117.83 420.693 1118.13 420.997 1118.13 421.3C1118.88 422.882 1120.04 424.242 1121.47 425.246C1122.58 425.398 1123.71 425.398 1124.82 425.246H1143.06C1146.82 424.986 1150.6 425.19 1154.31 425.853C1158.26 427.068 1160.69 429.496 1164.34 431.013C1167.18 431.93 1170.18 432.24 1173.15 431.924C1181.2 431.805 1189.14 430.157 1196.56 427.068C1202.03 424.639 1208.11 422.211 1212.07 417.658C1214.4 414.42 1217.41 411.727 1220.88 409.766C1222.37 409.247 1223.67 408.313 1224.64 407.076C1225.61 405.838 1226.21 404.349 1226.36 402.785C1226.87 400.268 1226.76 397.665 1226.05 395.197C1225.75 394.893 1225.14 394.59 1224.84 394.286C1224.59 393.93 1224.49 393.5 1224.53 393.072C1224.23 392.162 1223.92 391.554 1223.62 390.644C1223.1 387.341 1222.28 384.091 1221.19 380.931C1219.36 382.145 1217.54 383.056 1215.71 384.27C1212.98 385.787 1210.24 386.698 1207.81 387.912Z" fill="#2F1E00"/>
<path d="M1670.81 293.514C1676.07 299.098 1682.11 303.902 1688.74 307.78C1698.47 313.243 1709.41 314.458 1720.36 315.975C1730.32 317.691 1740.17 320.023 1749.85 322.956C1761.7 325.688 1773.56 328.724 1785.42 330.241C1790.28 330.848 1794.84 332.062 1799.7 332.973C1805.78 334.187 1811.86 334.794 1817.64 336.008C1828.33 338.234 1839.25 339.253 1850.17 339.044C1859.12 339.052 1868.06 338.443 1876.92 337.222C1879.05 336.919 1883.91 336.919 1885.13 334.794C1885.83 332.637 1885.94 330.329 1885.43 328.116C1884.73 324.555 1883.61 321.091 1882.09 317.796C1880.3 310.194 1878.98 302.49 1878.14 294.728C1877.53 290.782 1878.44 284.105 1876.31 280.462C1872.97 274.999 1863.85 275.302 1858.68 274.695C1850.78 273.784 1842.57 273.784 1834.66 273.177C1826.76 272.57 1818.86 271.963 1810.95 271.963C1789.98 271.66 1768.39 270.749 1747.72 274.088C1741.33 274.999 1735.25 276.516 1728.87 277.73C1720.05 279.248 1711.54 281.373 1703.03 283.497C1694.44 285.632 1686.01 288.371 1677.8 291.693C1675.67 292.3 1673.85 292.907 1671.72 293.514C1670.2 293.817 1669.29 294.728 1670.81 293.514Z" fill="#4E2120"/>
<path d="M1851.99 65.8661C1846.82 65.2591 1841.66 70.1155 1836.79 71.9367C1827.67 75.5791 1818.55 79.525 1809.43 82.8638C1802.14 85.2921 1795.14 88.3274 1787.85 91.0592C1782.48 93.2938 1777.7 96.7194 1773.86 101.076C1771.59 103.18 1769.56 105.521 1767.78 108.057C1765.35 111.699 1763.83 116.252 1761.7 120.198C1756.53 130.518 1753.19 141.445 1747.41 151.462C1743.58 157.667 1738.75 163.203 1733.13 167.852C1729.41 171.304 1726.23 175.295 1723.7 179.69C1719.75 186.368 1717.93 194.867 1712.76 200.634C1708.66 205.489 1703.84 209.686 1698.47 213.078C1693 216.721 1688.13 220.667 1682.66 224.309C1678.34 226.685 1674.52 229.881 1671.41 233.719C1667.77 239.182 1666.85 245.253 1664.73 251.323C1663.13 255.791 1661.81 260.353 1660.77 264.982C1659.86 268.625 1658.04 271.963 1657.43 275.302C1657.03 278.523 1656.92 281.775 1657.13 285.015C1657.13 288.658 1658.95 291.996 1659.25 295.639C1671.11 298.674 1683.27 300.495 1694.82 303.531C1706.98 306.566 1718.53 310.512 1731 312.333C1743.16 313.851 1755.93 313.244 1768.09 314.154C1787.85 315.368 1807.91 314.154 1827.67 315.368C1832.61 316.004 1837.63 315.377 1842.26 313.547C1848.34 310.815 1851.69 304.138 1854.42 298.371C1862.33 283.498 1866.28 267.107 1869.93 250.716C1872.29 239.646 1875.54 228.784 1879.66 218.238C1882.09 212.168 1885.43 206.401 1887.26 200.33C1889.38 193.652 1889.38 185.457 1889.99 178.476C1890.7 170.807 1890.8 163.093 1890.3 155.408C1889.08 142.052 1883.91 129.608 1881.78 116.556C1880.14 107.995 1877.27 99.7154 1873.27 91.9697C1870.53 86.7559 1866.56 82.279 1861.72 78.9179C1858.96 77.1688 1856.32 75.2424 1853.82 73.1508C1853.01 72.1337 1852.44 70.9588 1852.12 69.7033C1851.81 68.4478 1851.76 67.1401 1851.99 65.8661V65.8661Z" fill="#BC7A04"/>
<path d="M1891.21 155.711C1889.99 142.356 1884.82 129.911 1882.7 116.859C1881.05 108.299 1878.19 100.019 1874.18 92.2733C1873.58 91.3628 1872.97 90.1486 1872.36 89.238C1872.97 95.6122 1872.97 101.986 1872.97 108.36C1872.97 112.61 1873.27 118.984 1870.84 122.626C1868.48 126.432 1865.5 129.818 1862.02 132.643C1858.54 135.092 1854.62 136.845 1850.47 137.803C1846.33 139.243 1842.05 140.26 1837.7 140.838C1835.68 140.686 1833.65 140.686 1831.62 140.838C1829.35 141.191 1827.17 142.018 1825.24 143.266C1821.59 144.481 1817.34 144.481 1815.82 149.034C1815.06 151.731 1814.45 154.467 1813.99 157.229C1812.58 161.616 1809.82 165.442 1806.09 168.156C1799.1 174.53 1792.1 180.904 1784.81 187.278C1780.85 190.617 1776.29 193.956 1772.34 196.991C1770.21 198.813 1766.57 203.366 1764.13 203.973C1769.68 203.43 1775.18 202.415 1780.55 200.937C1783.32 200.475 1786.06 199.867 1788.76 199.116C1790.39 198.283 1791.92 197.264 1793.32 196.081C1793.62 199.723 1790.28 204.276 1789.37 207.918C1788.82 210.013 1788.41 212.143 1788.15 214.293C1786.24 214.596 1784.29 214.596 1782.37 214.293C1779.92 214.549 1777.48 214.955 1775.08 215.507C1770.93 216.013 1766.73 215.91 1762.61 215.203C1758.97 214.293 1758.97 214.596 1756.53 217.631C1753.85 220.65 1750.79 223.303 1747.41 225.523C1743.34 229.488 1738.97 233.141 1734.34 236.45C1731.5 238.641 1728.85 241.078 1726.44 243.735C1724.61 245.556 1724.01 247.985 1721.88 249.502C1718.66 252.372 1715.08 254.82 1711.24 256.787C1714.28 256.483 1717.93 257.394 1720.97 256.787C1724.61 256.18 1727.05 252.537 1730.69 251.627C1732.59 251.224 1734.54 251.121 1736.47 251.323C1737.99 251.93 1737.38 252.234 1738.6 253.145C1740.45 254.288 1742.18 255.609 1743.77 257.09C1745.59 259.215 1745.29 262.858 1747.41 265.286C1751.67 270.142 1758.66 270.446 1762.92 275.606C1764.96 279.194 1765.71 283.371 1765.05 287.443C1765.11 287.868 1765.09 288.301 1764.98 288.718C1764.88 289.135 1764.7 289.527 1764.44 289.872C1763.22 291.693 1758.97 291.996 1756.84 292.3C1751.37 292.907 1746.2 291.086 1740.73 291.389C1737.08 291.693 1732.21 294.121 1728.87 293.514C1724.31 292.603 1724.61 286.533 1719.14 286.229C1714.38 286.505 1709.73 287.744 1705.46 289.872C1700.02 291.849 1694.43 293.372 1688.74 294.425C1682.66 295.942 1676.58 297.764 1670.5 298.674C1678.71 300.495 1687.22 302.013 1695.43 303.834C1707.59 306.869 1719.14 310.815 1731.61 312.637C1743.77 314.154 1756.53 313.547 1768.69 314.458C1788.46 315.672 1808.52 314.458 1828.28 315.672C1833.22 316.308 1838.24 315.681 1842.87 313.851C1848.95 311.119 1852.3 304.441 1855.03 298.674C1862.94 283.801 1866.89 267.41 1870.54 251.02C1872.89 239.949 1876.15 229.088 1880.26 218.542C1882.7 212.471 1886.04 206.704 1887.86 200.634C1889.99 193.956 1889.99 185.761 1890.6 178.78C1891.86 171.154 1892.07 163.392 1891.21 155.711V155.711Z" fill="#2F1E00"/>
<path d="M1530.36 371.825C1543.43 371.521 1556.5 375.164 1569.27 377.289C1573.43 377.975 1577.5 379.094 1581.43 380.627C1583.3 381.346 1584.83 382.759 1585.69 384.573C1586.9 387.912 1582.95 388.823 1582.65 391.554C1582.34 393.376 1584.17 395.5 1583.56 397.625C1582.95 399.75 1581.13 399.446 1579.61 400.66C1577.61 402.446 1575.48 404.07 1573.22 405.517C1568.24 408.792 1562.66 411.06 1556.81 412.195C1551.03 413.105 1545.25 414.319 1539.48 415.533C1533.09 416.747 1526.41 415.533 1520.02 416.747C1513.94 417.658 1507.86 419.176 1501.48 419.783C1495.4 420.39 1489.01 420.39 1482.93 421.3C1476.85 422.211 1470.77 420.693 1465 420.693C1459.22 420.693 1452.23 421.604 1446.45 420.086C1440.68 418.569 1435.51 415.837 1430.04 414.623C1428.21 414.319 1426.69 413.712 1424.87 413.409C1423.65 413.105 1420.61 413.409 1420 411.891C1421.98 410.83 1424.15 410.209 1426.39 410.07C1431.56 409.159 1437.03 408.249 1442.2 407.338C1456.78 404.49 1470.97 399.905 1484.45 393.679C1492.99 390.123 1501.32 386.069 1509.38 381.538C1516.04 377.62 1523.06 374.366 1530.36 371.825Z" fill="#4E2120"/>
<path d="M1406.63 412.802C1406.69 409.211 1407.2 405.641 1408.15 402.178C1409.06 397.625 1409.36 393.072 1409.97 388.823C1410.58 384.573 1410.58 380.02 1411.19 375.771C1412.3 372.632 1414.45 369.959 1417.27 368.183C1423.35 363.63 1429.12 359.077 1435.51 354.524C1444.02 348.453 1454.66 345.418 1464.08 341.168C1467.12 339.954 1470.16 338.133 1473.2 337.223C1476.03 336.091 1478.77 334.773 1481.41 333.277C1486 331.274 1491.01 330.439 1496.01 330.848C1502.4 330.591 1508.8 330.794 1515.16 331.455C1517.12 331.461 1519.07 331.768 1520.93 332.366C1523.3 333.369 1525.32 335.061 1526.71 337.223C1528.53 339.954 1529.45 343.293 1531.57 346.025C1533.7 349.06 1536.74 350.274 1539.17 352.703C1542.21 355.434 1542.52 358.166 1544.04 361.505C1544.66 362.834 1544.97 364.287 1544.95 365.754C1544.95 369.093 1543.43 370.307 1542.21 373.039C1541.39 375.806 1540.88 378.657 1540.69 381.538C1540.21 384.21 1539.06 386.716 1537.35 388.823C1535.41 390.419 1533.26 391.747 1530.97 392.769C1527.01 394.893 1522.76 397.018 1518.81 399.446C1516.37 400.683 1514.03 402.103 1511.81 403.696C1509.91 405.261 1507.75 406.492 1505.43 407.338C1499.94 409.554 1494.24 411.182 1488.41 412.195C1478.98 414.016 1470.16 417.658 1460.74 419.176C1454.29 419.94 1447.78 420.245 1441.28 420.086C1435.26 420.488 1429.22 419.976 1423.35 418.569C1418.18 417.051 1412.71 417.051 1407.24 415.533C1407.3 414.584 1407.09 413.636 1406.63 412.802V412.802Z" fill="#BC7A04"/>
<path d="M1544.04 361.505C1542.52 358.166 1542.21 355.434 1539.17 352.703C1536.37 350.807 1533.81 348.563 1531.57 346.025V346.025L1530.66 347.846C1529.75 349.364 1529.45 351.185 1528.53 352.703C1527.56 354.574 1526.22 356.226 1524.58 357.559C1522.76 359.077 1521.24 360.898 1519.41 362.416C1518.81 363.023 1518.2 363.326 1518.2 364.237C1520.63 364.844 1522.45 363.933 1524.89 365.451C1525.69 365.788 1526.4 366.33 1526.93 367.022C1527.46 367.713 1527.81 368.532 1527.93 369.397C1527.93 371.825 1522.15 373.646 1520.33 374.253C1516.93 375.722 1513.35 376.742 1509.69 377.289C1508.62 377.51 1507.52 377.489 1506.47 377.226C1505.42 376.963 1504.44 376.466 1503.61 375.771C1502.39 374.86 1501.78 373.646 1500.57 373.039C1498.77 372.627 1496.92 372.525 1495.09 372.736C1493.15 372.684 1491.22 372.481 1489.32 372.129C1487.19 371.825 1484.45 370.004 1482.33 370.611C1481.41 372.736 1483.24 374.86 1484.15 376.681C1485.16 378.536 1485.58 380.652 1485.37 382.752C1485.06 384.573 1484.15 384.877 1482.02 385.787C1480.02 386.412 1478.09 387.225 1476.24 388.216C1475.33 388.823 1471.68 390.34 1471.68 391.555C1471.38 393.376 1474.72 392.465 1475.94 392.465H1487.19C1488.41 392.515 1489.64 392.413 1490.84 392.162C1491.76 391.643 1492.82 391.43 1493.88 391.555C1493.88 391.858 1487.8 395.5 1487.19 396.107C1485.87 396.995 1484.44 397.709 1482.93 398.232C1481.72 399.118 1480.39 399.833 1478.98 400.357C1475.03 401.875 1470.47 402.178 1466.52 403.392C1463.68 404.362 1460.7 404.875 1457.7 404.91C1456.18 405.062 1454.66 405.062 1453.14 404.91C1450.4 403.999 1450.1 400.053 1447.36 398.536C1443.72 396.715 1436.42 398.232 1435.81 393.072C1435.51 390.037 1436.42 388.216 1433.68 386.394C1429.78 384.267 1425.71 382.44 1421.52 380.931C1419.91 380.457 1418.21 380.32 1416.53 380.529C1414.86 380.738 1413.25 381.288 1411.8 382.145C1411.12 382.441 1410.51 382.852 1409.97 383.359C1409.92 384.993 1409.72 386.619 1409.36 388.216C1409.08 392.705 1408.47 397.168 1407.54 401.571C1406.59 405.034 1406.08 408.604 1406.02 412.195C1406.63 413.409 1406.63 414.016 1406.93 414.319C1412.1 415.837 1417.57 415.837 1423.04 417.355C1428.91 418.762 1434.96 419.273 1440.98 418.872C1447.48 419.023 1453.98 418.719 1460.44 417.962C1469.86 416.444 1478.68 412.802 1488.1 410.98C1493.93 409.968 1499.64 408.34 1505.13 406.124C1507.38 405.142 1509.52 403.921 1511.51 402.482C1513.64 400.964 1516.07 399.75 1518.5 398.232C1522.45 396.107 1526.41 393.983 1530.66 391.555C1532.96 390.533 1535.11 389.205 1537.05 387.609C1538.76 385.502 1539.91 382.996 1540.39 380.324C1540.57 377.443 1541.08 374.592 1541.91 371.825C1543.13 369.093 1544.65 367.879 1544.65 364.54C1544.95 363.933 1544.65 363.023 1544.04 361.505Z" fill="#2F1E00"/>
<path d="M1369.24 260.429C1370.88 260.528 1372.53 260.322 1374.1 259.822C1376.53 259.519 1379.27 259.519 1381.7 259.215C1386.35 258.811 1391.02 258.709 1395.68 258.912C1403.59 258.912 1412.1 258.001 1420 260.429C1421.83 261.036 1425.48 261.643 1426.08 263.465C1426.23 264.336 1426.17 265.231 1425.91 266.075C1425.64 266.919 1425.18 267.689 1424.56 268.321C1423.65 269.232 1422.44 269.535 1421.52 270.446C1420.92 271.053 1420.61 271.963 1420 272.267C1418.12 273.386 1416.06 274.205 1413.92 274.695C1411.29 275.638 1408.52 276.151 1405.72 276.213C1401.78 276.553 1397.9 277.368 1394.16 278.641C1392.08 279.637 1390.05 280.751 1388.08 281.98C1384.41 283.961 1380.38 285.199 1376.23 285.622C1366.2 287.14 1356.77 290.175 1346.74 290.479C1343.51 290.717 1340.33 291.433 1337.32 292.604C1332.71 293.52 1328.01 293.826 1323.33 293.514C1311.78 293.514 1299.62 295.942 1288.07 293.514C1283.2 292.604 1278.95 290.479 1274.08 289.872C1272.26 289.568 1265.57 290.479 1264.66 288.354C1267.88 287.237 1271.28 286.722 1274.69 286.836C1280 286.347 1285.28 285.536 1290.5 284.408C1304.79 281.373 1318.77 277.123 1333.06 274.392C1337.32 273.481 1341.57 272.571 1346.13 271.356C1349.78 270.446 1352.82 268.625 1356.47 268.018C1358.29 267.714 1359.81 267.41 1361.33 267.107C1362.55 267.107 1363.76 266.5 1369.24 260.429Z" fill="#4E2120"/>
<path d="M1256.76 274.088C1256.76 268.928 1256.45 263.464 1256.76 258.304C1257.08 256.109 1257.69 253.965 1258.58 251.93C1259.36 249.308 1260.6 246.843 1262.23 244.646C1264.96 240.093 1270.13 237.057 1274.39 234.022C1279.56 230.076 1285.33 226.434 1290.5 221.881C1292.93 219.756 1295.67 218.238 1298.1 216.417C1299.29 215.337 1300.62 214.418 1302.05 213.685C1304.44 212.266 1306.99 211.145 1309.65 210.347C1313.12 209.88 1316.65 210.191 1319.99 211.257C1323.34 213.102 1326.59 215.128 1329.72 217.328C1333.36 219.452 1337.01 221.274 1340.66 223.398C1343.99 224.927 1347.45 226.147 1351 227.041C1354.04 228.255 1356.47 230.076 1359.51 230.987C1362.79 231.886 1366.15 232.496 1369.54 232.808C1370.89 232.905 1372.21 233.279 1373.41 233.905C1374.62 234.532 1375.68 235.398 1376.53 236.45C1377.35 238.893 1377.56 241.497 1377.14 244.038C1377.29 246.885 1377.6 249.722 1378.05 252.537C1378.42 254.745 1378.62 256.977 1378.66 259.215C1378.31 261.678 1377.49 264.049 1376.23 266.196C1375.32 268.624 1375.32 270.749 1373.19 272.267C1367.72 275.909 1361.33 277.123 1355.56 279.552C1351.5 281.335 1347.34 282.856 1343.09 284.104C1339.61 285.103 1336.05 285.814 1332.45 286.229C1325.76 287.443 1318.77 288.354 1312.08 289.568C1307.77 290.324 1303.39 290.629 1299.01 290.479C1294.45 290.479 1289.89 291.389 1285.33 291.389H1275.91C1273.37 291.591 1270.82 291.489 1268.31 291.086C1264.36 290.175 1260.71 285.319 1258.88 281.98L1257.06 279.248C1255.54 278.034 1256.15 278.034 1256.76 274.088Z" fill="#BC7A04"/>
<path d="M1377.75 252.234C1377.14 249.441 1376.84 246.592 1376.84 243.735V240.396C1377.01 238.918 1376.69 237.425 1375.92 236.147C1374.5 234.485 1372.58 233.316 1370.45 232.808C1369.84 232.808 1369.54 232.504 1368.93 232.504C1365.54 232.192 1362.18 231.583 1358.9 230.683C1355.86 229.773 1353.12 227.648 1350.39 226.737C1346.88 225.707 1343.43 224.491 1340.05 223.095C1336.4 220.97 1332.76 219.149 1329.11 217.024C1326.13 214.613 1322.86 212.574 1319.38 210.954C1316.04 209.888 1312.51 209.577 1309.04 210.043C1306.4 210.899 1303.86 212.018 1301.44 213.382C1300.84 213.685 1300.53 213.989 1299.92 214.293C1300.47 214.527 1300.98 214.833 1301.44 215.203C1303.05 216.167 1304.79 216.883 1306.61 217.328C1308.77 217.924 1310.82 218.845 1312.69 220.06C1314.52 221.881 1313.91 223.095 1316.95 222.791C1319.38 222.791 1323.94 221.881 1326.07 223.398C1329.11 225.523 1329.41 229.773 1329.41 233.111C1329.26 235.537 1329.26 237.97 1329.41 240.396C1331.94 240.7 1334.49 240.7 1337.01 240.396H1345.52C1346.84 240.548 1348.16 240.548 1349.48 240.396C1349 240.84 1348.59 241.351 1348.26 241.914C1345.86 244.863 1343.22 247.604 1340.36 250.109C1339.14 251.02 1336.4 252.841 1336.4 254.662C1337.62 255.269 1338.23 254.359 1339.44 254.055C1339.99 253.88 1340.57 253.816 1341.15 253.868C1341.72 253.92 1342.28 254.087 1342.79 254.359C1344.92 254.966 1346.74 256.787 1348.87 257.09C1355.86 258.304 1355.86 249.502 1357.08 244.949C1359.2 244.342 1361.33 245.86 1363.16 247.074C1364.07 247.681 1366.8 248.288 1366.8 249.502C1367.11 250.413 1366.2 251.02 1365.89 251.93C1364.68 254.966 1366.2 258.001 1365.28 261.036C1364.47 263.019 1362.95 264.637 1361.03 265.589C1356.47 268.625 1351 269.232 1346.13 271.356C1341.57 273.481 1336.71 274.695 1332.15 276.82C1327.65 279.061 1322.83 280.597 1317.86 281.373C1315.34 281.879 1312.73 281.775 1310.26 281.069C1308.51 280.013 1306.53 279.389 1304.48 279.248C1300.23 279.188 1296.01 279.908 1292.02 281.373C1290.5 281.676 1286.85 283.194 1285.03 282.283C1286.07 281.283 1287.18 280.37 1288.37 279.552C1289.45 279.062 1290.57 278.656 1291.72 278.337C1293.71 277.233 1295.64 276.017 1297.49 274.695C1301 273.033 1305 272.709 1308.74 273.785C1310.26 274.392 1311.48 275.909 1313 276.213C1315.04 276.479 1317.12 276.272 1319.08 275.606C1322.2 275.018 1325.26 274.102 1328.2 272.874C1330.32 271.963 1333.67 271.356 1335.19 269.535C1333.36 269.535 1331.54 270.142 1329.72 270.142C1327.98 270.194 1326.25 270.398 1324.55 270.749C1321.83 271.159 1319.08 271.261 1316.34 271.053C1314.49 271.303 1312.61 271.095 1310.87 270.446C1309.04 269.535 1308.44 268.017 1306 268.017C1302.36 267.714 1298.7 267.714 1295.06 268.017C1289.42 268.53 1284.04 270.635 1279.56 274.088C1277.03 276.647 1274.03 278.706 1270.74 280.159C1267.8 281.387 1264.75 282.303 1261.62 282.89C1260.51 283.042 1259.38 283.042 1258.28 282.89C1260.1 286.229 1263.75 290.479 1267.4 291.086C1269.91 291.49 1272.46 291.592 1275 291.389H1284.42C1288.98 291.389 1293.54 290.782 1298.1 290.479C1302.48 290.629 1306.86 290.324 1311.17 289.568C1317.86 288.354 1324.85 287.443 1331.54 286.229C1335.14 285.814 1338.7 285.103 1342.18 284.105C1346.44 282.587 1350.39 281.373 1354.64 279.552C1360.42 276.82 1366.8 275.909 1372.28 272.267C1374.71 270.749 1374.4 268.625 1375.32 266.196C1376.44 263.991 1377.26 261.642 1377.75 259.215C1378.2 256.91 1378.2 254.539 1377.75 252.234V252.234Z" fill="#2F1E00"/>
<path d="M338.061 402.785C343.082 401.78 348.157 401.07 353.261 400.66C356.903 400.357 360.564 400.357 364.205 400.66C366.333 400.964 368.461 402.178 370.893 402.785C372.105 402.937 373.33 402.937 374.541 402.785C375.698 402.906 376.827 403.214 377.885 403.696C381.229 404.606 390.654 405.213 385.789 410.98C384.608 412.157 383.279 413.177 381.837 414.016C379.709 415.533 377.581 417.051 375.149 418.569C372.109 420.693 369.069 422.211 366.029 424.032C363.597 425.55 361.469 426.764 362.989 429.799C364.205 432.531 365.117 432.531 362.381 434.656C359.575 437.162 356.255 439.026 352.653 440.119C348.701 441.637 345.053 443.458 341.101 444.672C335.178 446.392 329.029 447.21 322.861 447.1C315.433 446.959 308.021 446.35 300.669 445.279L290.637 444.369C286.685 443.762 283.037 442.244 279.085 441.637C276.323 441.278 273.584 440.772 270.877 440.119C268.36 439.084 265.689 438.469 262.973 438.298C260.638 438.348 258.302 438.247 255.981 437.995C253.449 437.053 250.777 436.54 248.077 436.477C251.725 435.263 255.677 435.263 259.325 434.352C264.797 432.835 270.573 431.317 276.045 429.496C289.117 425.55 299.757 416.14 312.221 410.677C317.881 408.337 323.666 406.311 329.549 404.606C331.677 403.999 333.805 402.785 335.933 402.178C337.149 401.267 338.973 400.357 338.061 402.785Z" fill="#4E2120"/>
<path d="M243.82 413.712C244.089 410.196 244.804 406.728 245.948 403.392C247.253 400.138 248.991 397.075 251.116 394.286C252.949 391.697 255.211 389.439 257.805 387.609C260.237 385.484 262.669 383.056 265.101 381.234C266.996 379.549 269.03 378.026 271.181 376.681C274.252 375.867 277.454 375.66 280.605 376.074H289.421C292.461 376.074 296.413 375.164 299.149 376.378C301.277 376.985 301.885 379.11 303.709 380.324C305.685 382.007 308.12 383.064 310.701 383.359C317.085 383.663 323.165 380.02 329.549 380.324C336.541 380.324 343.229 380.02 350.221 380.324C353.261 380.324 355.997 381.234 356.301 384.27C356.453 385.885 356.453 387.511 356.301 389.126C356.281 390.888 356.591 392.638 357.213 394.286C357.937 396.547 358.347 398.896 358.429 401.267C358.429 403.696 358.125 403.392 356.301 404.606C353.266 406.043 350.321 407.665 347.485 409.463C340.978 413.78 334.781 418.547 328.941 423.729C323.165 428.889 315.869 432.228 309.181 436.477C301.885 441.03 290.637 444.369 282.125 441.637C278.655 440.733 275.057 440.425 271.485 440.726C267.392 440.417 263.328 439.808 259.325 438.905C254.439 438.406 249.637 437.284 245.036 435.566C243.103 434.818 241.345 433.681 239.868 432.228C238.652 430.71 239.26 428.282 239.26 426.46C239.26 424.336 240.476 423.425 240.172 421.604C240.172 420.997 239.26 420.39 239.26 419.479C238.652 417.962 241.692 416.747 243.82 413.712Z" fill="#BC7A04"/>
<path d="M357.213 394.59C356.591 392.941 356.282 391.191 356.301 389.43C356.453 387.815 356.453 386.189 356.301 384.573C356.265 383.717 355.948 382.897 355.399 382.238C354.849 381.58 354.098 381.121 353.261 380.931C351.934 384.118 349.718 386.857 346.877 388.823C342.982 391.147 338.917 393.176 334.717 394.893C334.083 395.497 333.367 396.008 332.589 396.411C331.909 396.66 331.184 396.763 330.461 396.714C329.213 396.874 327.989 397.18 326.813 397.625C324.884 398.392 322.803 398.704 320.733 398.536C317.935 398.819 315.18 399.43 312.525 400.357C309.465 401.277 306.586 402.715 304.013 404.606C308.269 404.606 312.525 404.303 316.781 404.606C317.997 404.606 320.429 404.303 319.821 406.427C319.517 407.338 317.693 407.945 317.389 408.552C321.645 412.195 315.565 414.016 312.829 416.444C311.005 417.962 309.789 419.479 307.357 419.783C304.897 419.786 302.446 420.092 300.061 420.693C297.021 421.604 293.981 422.818 290.941 423.425C289.352 423.88 287.666 423.88 286.077 423.425C282.733 420.997 291.549 417.962 291.549 416.444C289.725 416.14 287.597 418.265 286.077 419.176C284.26 420.466 282.326 421.584 280.301 422.515C277.586 423.84 274.731 424.859 271.789 425.55C268.711 426.448 265.556 427.058 262.365 427.371C263.922 427.158 265.507 427.263 267.023 427.681C268.538 428.098 269.953 428.819 271.181 429.799C272.397 430.406 275.133 431.013 275.437 431.924C271.755 433.552 267.869 434.675 263.885 435.263C262.1 434.999 260.36 434.488 258.717 433.745C255.831 433.033 252.828 432.93 249.901 433.442C247.491 433.845 245.04 433.947 242.604 433.745C243.284 434.199 243.996 434.605 244.733 434.959C249.289 436.819 254.111 437.945 259.021 438.298C263.024 439.201 267.088 439.81 271.181 440.119C274.753 439.818 278.351 440.126 281.821 441.03C290.333 443.762 301.581 440.423 308.877 435.87C315.565 431.621 322.861 428.282 328.637 423.122C334.477 417.94 340.674 413.173 347.181 408.856C350.017 407.058 352.962 405.436 355.997 403.999C357.821 402.785 358.125 403.089 358.125 400.66C358.229 398.596 357.919 396.533 357.213 394.59V394.59Z" fill="#2F1E00"/>
</g>
</svg>
