<svg width="47" height="71" viewBox="0 0 47 71" fill="none" xmlns="http://www.w3.org/2000/svg">
<g opacity="0.7">
<path opacity="0.7" d="M12.4612 28.9628C12.4551 26.5996 12.8942 24.2698 13.7406 22.1734C14.1425 21.1889 14.509 20.5769 14.7943 20.2015C14.9018 20.0545 15.0423 19.9545 15.1962 19.9153C15.35 19.8762 15.5094 19.9 15.6523 19.9833C15.7664 20.0352 15.8695 20.1209 15.9533 20.2335C16.3349 20.7428 16.6796 21.4159 16.9806 22.1326C17.8711 24.278 18.3333 26.6753 18.3255 29.1083V30.569H19.0525V13.5954C19.0525 10.0378 19.6704 6.52765 20.8806 3.41131C21.4541 1.93606 21.9772 1.01949 22.3798 0.455969C22.4774 0.312714 22.5975 0.197937 22.7322 0.119306C22.867 0.0406747 23.0131 0 23.161 0C23.3089 0 23.4551 0.0406747 23.5898 0.119306C23.7246 0.197937 23.8447 0.312714 23.9422 0.455969C24.4871 1.21929 24.9786 2.22801 25.4083 3.30074C26.681 6.48109 27.3275 10.0902 27.3275 13.7535V30.569H27.9559V29.0385C27.9481 26.6054 28.4103 24.2082 29.3008 22.0628C29.6019 21.347 29.9466 20.6739 30.3281 20.1637C30.438 20.0146 30.5817 19.9144 30.7386 19.8774C30.8955 19.8405 31.0575 19.8687 31.2012 19.9581L31.1748 19.9765C31.267 20.029 31.3503 20.1041 31.4202 20.1977C31.7024 20.573 32.0689 21.185 32.4738 22.1695C33.3203 24.2659 33.7593 26.5957 33.7533 28.9589V54.3358H31.5105L31.7551 56.4221V62.6597H29.9217V56.4221L30.1663 54.3358H27.9559V31.2256H27.3275V54.232H25.5363L25.7937 56.4211V62.6597H23.9596V56.4221L24.217 54.233H21.8033L22.0607 56.4221V62.6597H20.2266V56.4221L20.484 54.233H19.0541V31.2256H18.327V54.3707H17.7377V54.3358H15.7892L16.0338 56.4221V62.6597H14.1997V56.4221L14.4443 54.3358H12.4612V28.9628Z" fill="url(#paint0_linear)"/>
</g>
<path d="M29.5567 55.2058H31.293L30.9829 52.489H29.8668L29.5567 55.2058Z" fill="#535461"/>
<g opacity="0.1">
<path opacity="0.1" d="M31.0695 53.5676H29.7803L29.8668 52.8081H30.9829L31.0695 53.5676Z" fill="black"/>
</g>
<path d="M14.6731 55.2058H16.4094L16.0993 52.489H14.9832L14.6731 55.2058Z" fill="#535461"/>
<g opacity="0.1">
<path opacity="0.1" d="M16.1859 53.5676H14.8967L14.9832 52.8081H16.0993L16.1859 53.5676Z" fill="black"/>
</g>
<path d="M23.9129 55.2058H25.6499L25.3399 52.489H24.223L23.9129 55.2058Z" fill="#535461"/>
<g opacity="0.1">
<path opacity="0.1" d="M25.4264 53.5676H24.1364L24.223 52.8081H25.3398L25.4264 53.5676Z" fill="black"/>
</g>
<path d="M20.3787 55.2058H22.1149L21.8049 52.489H20.6887L20.3787 55.2058Z" fill="#535461"/>
<g opacity="0.1">
<path opacity="0.1" d="M21.8914 53.5676H20.6014L20.6887 52.8081H21.8048L21.8914 53.5676Z" fill="black"/>
</g>
<path d="M17.1537 30.0308H29.5567V30.6699H17.1537V30.0308Z" fill="#535461"/>
<path d="M15.2361 19.9309C15.3016 19.8376 15.3816 19.7631 15.4709 19.7121C15.5601 19.6611 15.6566 19.6348 15.7543 19.6348C15.8519 19.6348 15.9484 19.6611 16.0377 19.7121C16.1269 19.7631 16.2069 19.8376 16.2724 19.9309C16.6337 20.4265 16.9596 21.0822 17.2448 21.7795C18.0889 23.8767 18.5256 26.2065 18.5175 28.569V53.1748H13.0287V28.4671C13.0218 26.1694 13.4373 23.9023 14.2411 21.8513C14.622 20.893 14.9689 20.2965 15.2361 19.9309Z" fill="#DFAC87"/>
<path d="M30.9754 19.9309C30.9099 19.8376 30.8299 19.7631 30.7406 19.7121C30.6514 19.6611 30.5548 19.6348 30.4572 19.6348C30.3596 19.6348 30.2631 19.6611 30.1738 19.7121C30.0846 19.7631 30.0046 19.8376 29.9391 19.9309C29.5778 20.4265 29.2519 21.0822 28.9667 21.7795C28.1226 23.8767 27.6859 26.2065 27.694 28.569V53.1748H33.1843V28.4671C33.1912 26.1694 32.7757 23.9023 31.9718 21.8513C31.5918 20.893 31.2448 20.2965 30.9754 19.9309Z" fill="#DFAC87"/>
<path d="M33.1534 28.9919L31.8514 28.9997V31.0695H33.1534V28.9919Z" fill="#535461"/>
<path d="M28.9983 28.9919L27.6963 28.9997V31.0695H28.9983V28.9919Z" fill="#535461"/>
<path d="M18.5182 28.9919L17.2154 28.9997V31.0695H18.5182V28.9919Z" fill="#535461"/>
<path d="M14.363 28.9919L13.0603 28.9997V31.0695H14.363V28.9919Z" fill="#535461"/>
<g opacity="0.1">
<path opacity="0.1" d="M28.9689 21.7475C29.2534 21.0501 29.58 20.3945 29.9413 19.8988C30.0434 19.7535 30.1796 19.6553 30.329 19.619C30.4785 19.5828 30.6331 19.6105 30.7692 19.6981C30.6907 19.7485 30.6199 19.8165 30.5599 19.8988C30.1987 20.3945 29.8728 21.0501 29.5876 21.7475C28.7435 23.8447 28.3068 26.1744 28.3149 28.5369V53.1408H27.6948V28.5398C27.6867 26.1762 28.124 23.8454 28.9689 21.7475V21.7475Z" fill="black"/>
</g>
<g opacity="0.1">
<path opacity="0.1" d="M16.7511 21.8155C16.4666 21.1181 16.14 20.4625 15.7787 19.9668C15.7111 19.873 15.6294 19.7978 15.5386 19.7457C15.6728 19.67 15.822 19.6506 15.9652 19.6903C16.1084 19.73 16.2383 19.8267 16.3364 19.9668C16.6976 20.4625 17.0235 21.1181 17.3088 21.8155C18.1528 23.9127 18.5896 26.2424 18.5814 28.6049V53.2088H18.023V28.6088C18.0318 26.2451 17.5954 23.9139 16.7511 21.8155V21.8155Z" fill="black"/>
</g>
<path d="M29.5567 55.2058H31.293V61.2794H29.5567V55.2058Z" fill="url(#paint1_linear)"/>
<path d="M23.9137 55.2058H25.6499V61.2794H23.9137V55.2058Z" fill="url(#paint2_linear)"/>
<path d="M20.3787 55.2058H22.1149V61.2794H20.3787V55.2058Z" fill="url(#paint3_linear)"/>
<path d="M14.6731 55.2058H16.4094V61.2794H14.6731V55.2058Z" fill="url(#paint4_linear)"/>
<path d="M22.4182 0.639392C22.5089 0.500454 22.6221 0.388759 22.7499 0.312132C22.8776 0.235505 23.0168 0.195801 23.1577 0.195801C23.2986 0.195801 23.4377 0.235505 23.5655 0.312132C23.6932 0.388759 23.8064 0.500454 23.8971 0.639392C24.4126 1.38235 24.8755 2.36488 25.2849 3.41045C26.4891 6.50836 27.1017 10.0243 27.1017 13.5897V53.0741H19.2678V13.4307C19.2678 9.96611 19.8526 6.54425 20.9988 3.51714C21.5414 2.08069 22.0367 1.18837 22.4182 0.639392Z" fill="#F5C8A7"/>
<path d="M22.0231 5.02539H24.4548C24.912 5.02539 25.2827 5.50306 25.2827 6.0923V6.37261C25.2827 6.96184 24.912 7.43951 24.4548 7.43951H22.0231C21.5659 7.43951 21.1952 6.96184 21.1952 6.37261V6.0923C21.1952 5.50306 21.5659 5.02539 22.0231 5.02539Z" fill="#6C63FF"/>
<g opacity="0.1">
<path opacity="0.1" d="M19.31 14.9397H27.0618V15.3277H19.31V14.9397Z" fill="black"/>
</g>
<defs>
<linearGradient id="paint0_linear" x1="23.1069" y1="62.6597" x2="23.1069" y2="0.00301758" gradientUnits="userSpaceOnUse">
<stop stop-color="#808080" stop-opacity="0.25"/>
<stop offset="0.54" stop-color="#808080" stop-opacity="0.12"/>
<stop offset="1" stop-color="#808080" stop-opacity="0.1"/>
</linearGradient>
<linearGradient id="paint1_linear" x1="30.4252" y1="55.2058" x2="30.4252" y2="61.2804" gradientUnits="userSpaceOnUse">
<stop stop-color="#E0E0E0"/>
<stop offset="0.31" stop-color="#FCCC63"/>
<stop offset="0.77" stop-color="#F55F44"/>
</linearGradient>
<linearGradient id="paint2_linear" x1="-705.129" y1="3803.84" x2="-705.129" y2="4184.23" gradientUnits="userSpaceOnUse">
<stop stop-color="#E0E0E0"/>
<stop offset="0.31" stop-color="#FCCC63"/>
<stop offset="0.77" stop-color="#F55F44"/>
</linearGradient>
<linearGradient id="paint3_linear" x1="-790.216" y1="3803.84" x2="-790.216" y2="4184.23" gradientUnits="userSpaceOnUse">
<stop stop-color="#E0E0E0"/>
<stop offset="0.31" stop-color="#FCCC63"/>
<stop offset="0.77" stop-color="#F55F44"/>
</linearGradient>
<linearGradient id="paint4_linear" x1="-927.549" y1="3803.84" x2="-927.549" y2="4184.23" gradientUnits="userSpaceOnUse">
<stop stop-color="#E0E0E0"/>
<stop offset="0.31" stop-color="#FCCC63"/>
<stop offset="0.77" stop-color="#F55F44"/>
</linearGradient>
</defs>
</svg>
