<svg width="32" height="41" viewBox="0 0 32 41" fill="none" xmlns="http://www.w3.org/2000/svg">
<g clip-path="url(#clip0)">
<path d="M4.33909 33.7429H3.20899V31.5336C3.2087 31.4263 3.239 31.3212 3.29637 31.2304C3.35374 31.1395 3.43582 31.0668 3.53306 31.0206L8.07841 28.9106L8.55206 29.9284L4.33078 31.8811V33.7429H4.33909Z" fill="#764940"/>
<path d="M28.5449 35.2902H27.4148V31.5833L23.7419 29.945L24.2073 28.9189L28.2125 30.7062C28.3114 30.7511 28.3953 30.8233 28.4542 30.9142C28.5131 31.0051 28.5446 31.111 28.5449 31.2192V35.2902Z" fill="#764940"/>
<path d="M27.98 31.2441H4.02344V32.2453H27.98V31.2441Z" fill="#764940"/>
<path d="M16.5708 31.7405H15.4324V35.4888H16.5708V31.7405Z" fill="#764940"/>
<path d="M4.02181 41C6.24299 41 8.04362 39.207 8.04362 36.9952C8.04362 34.7835 6.24299 32.9905 4.02181 32.9905C1.80063 32.9905 0 34.7835 0 36.9952C0 39.207 1.80063 41 4.02181 41Z" fill="#36231D"/>
<path d="M4.02331 39.8577C3.45467 39.8577 2.89879 39.6898 2.42598 39.3752C1.95317 39.0606 1.58466 38.6135 1.36705 38.0904C1.14944 37.5672 1.0925 36.9916 1.20344 36.4362C1.31438 35.8809 1.5882 35.3708 1.9903 34.9704C2.39239 34.57 2.90469 34.2973 3.46241 34.1868C4.02012 34.0764 4.59821 34.1331 5.12357 34.3498C5.64893 34.5665 6.09797 34.9334 6.41389 35.4042C6.72981 35.875 6.89843 36.4285 6.89843 36.9948C6.89818 37.754 6.59518 38.482 6.05605 39.0189C5.51691 39.5557 4.78576 39.8574 4.02331 39.8577V39.8577ZM4.02331 34.5704C3.54177 34.5704 3.07105 34.7126 2.67066 34.979C2.27027 35.2454 1.95821 35.624 1.77393 36.067C1.58966 36.51 1.54144 36.9975 1.63539 37.4677C1.72933 37.938 1.96121 38.37 2.30171 38.7091C2.64221 39.0481 3.07604 39.279 3.54833 39.3726C4.02061 39.4661 4.51015 39.4181 4.95504 39.2346C5.39992 39.0511 5.78017 38.7404 6.0477 38.3417C6.31523 37.943 6.45802 37.4743 6.45802 36.9948C6.45712 36.3521 6.20032 35.7359 5.74392 35.2815C5.28751 34.827 4.66876 34.5713 4.02331 34.5704V34.5704Z" fill="#691413"/>
<path d="M4.0233 38.6993C4.96869 38.6993 5.73508 37.9362 5.73508 36.9948C5.73508 36.0534 4.96869 35.2903 4.0233 35.2903C3.07791 35.2903 2.31152 36.0534 2.31152 36.9948C2.31152 37.9362 3.07791 38.6993 4.0233 38.6993Z" fill="#644001"/>
<path d="M4.33757 37.7456C4.75309 37.5743 4.95041 37.0999 4.77829 36.6861C4.60617 36.2724 4.1298 36.0759 3.71428 36.2473C3.29876 36.4187 3.10144 36.893 3.27356 37.3068C3.44568 37.7205 3.92205 37.917 4.33757 37.7456Z" fill="#5B342B"/>
<path d="M16.003 40.9973C18.2242 40.9973 20.0248 39.2043 20.0248 36.9925C20.0248 34.7808 18.2242 32.9878 16.003 32.9878C13.7818 32.9878 11.9812 34.7808 11.9812 36.9925C11.9812 39.2043 13.7818 40.9973 16.003 40.9973Z" fill="#36231D"/>
<path d="M16.0057 39.8577C15.4371 39.8577 14.8812 39.6898 14.4084 39.3752C13.9356 39.0606 13.5671 38.6135 13.3495 38.0904C13.1319 37.5672 13.0749 36.9916 13.1859 36.4362C13.2968 35.8809 13.5706 35.3708 13.9727 34.9704C14.3748 34.57 14.8871 34.2973 15.4448 34.1868C16.0025 34.0764 16.5806 34.1331 17.106 34.3498C17.6314 34.5665 18.0804 34.9334 18.3963 35.4042C18.7122 35.875 18.8808 36.4285 18.8808 36.9948C18.8806 37.754 18.5776 38.482 18.0385 39.0189C17.4993 39.5557 16.7682 39.8574 16.0057 39.8577V39.8577ZM16.0057 34.5704C15.5242 34.5704 15.0535 34.7126 14.6531 34.979C14.2527 35.2454 13.9406 35.624 13.7564 36.067C13.5721 36.51 13.5239 36.9975 13.6178 37.4677C13.7118 37.938 13.9436 38.37 14.2841 38.7091C14.6246 39.0481 15.0585 39.279 15.5307 39.3726C16.003 39.4661 16.4926 39.4181 16.9375 39.2346C17.3823 39.0511 17.7626 38.7404 18.0301 38.3417C18.2976 37.943 18.4404 37.4743 18.4404 36.9948C18.4395 36.3521 18.1827 35.7359 17.7263 35.2815C17.2699 34.827 16.6512 34.5713 16.0057 34.5704V34.5704Z" fill="#691413"/>
<path d="M16.0057 38.6993C16.9511 38.6993 17.7175 37.9362 17.7175 36.9948C17.7175 36.0534 16.9511 35.2903 16.0057 35.2903C15.0603 35.2903 14.2939 36.0534 14.2939 36.9948C14.2939 37.9362 15.0603 38.6993 16.0057 38.6993Z" fill="#644001"/>
<path d="M23.6174 30.2264L16.0142 26.8339L8.70171 30.2182L7.96216 28.6295L15.6402 25.0715C15.7547 25.0191 15.879 24.9912 16.005 24.9898C16.131 24.9884 16.2558 25.0134 16.3715 25.0632L24.3404 28.6212L23.6174 30.2264Z" fill="#36231D"/>
<path d="M27.9781 41.0002C30.1993 41.0002 31.9999 39.2072 31.9999 36.9955C31.9999 34.7837 30.1993 32.9907 27.9781 32.9907C25.7569 32.9907 23.9563 34.7837 23.9563 36.9955C23.9563 39.2072 25.7569 41.0002 27.9781 41.0002Z" fill="#36231D"/>
<path d="M27.9799 39.8577C27.4112 39.8577 26.8553 39.6898 26.3825 39.3752C25.9097 39.0606 25.5412 38.6135 25.3236 38.0904C25.106 37.5672 25.049 36.9916 25.16 36.4362C25.2709 35.8809 25.5447 35.3708 25.9468 34.9704C26.3489 34.57 26.8612 34.2973 27.4189 34.1868C27.9767 34.0764 28.5548 34.1331 29.0801 34.3498C29.6055 34.5665 30.0545 34.9334 30.3704 35.4042C30.6864 35.875 30.855 36.4285 30.855 36.9948C30.8547 37.754 30.5517 38.482 30.0126 39.0189C29.4735 39.5557 28.7423 39.8574 27.9799 39.8577V39.8577ZM27.9799 34.5704C27.4983 34.5704 27.0276 34.7126 26.6272 34.979C26.2268 35.2454 25.9148 35.624 25.7305 36.067C25.5462 36.51 25.498 36.9975 25.5919 37.4677C25.6859 37.938 25.9178 38.37 26.2583 38.7091C26.5988 39.0481 27.0326 39.279 27.5049 39.3726C27.9772 39.4661 28.4667 39.4181 28.9116 39.2346C29.3565 39.0511 29.7367 38.7404 30.0042 38.3417C30.2718 37.943 30.4146 37.4743 30.4146 36.9948C30.4137 36.3521 30.1569 35.7359 29.7005 35.2815C29.2441 34.827 28.6253 34.5713 27.9799 34.5704V34.5704Z" fill="#691413"/>
<path d="M27.9798 38.6993C28.9252 38.6993 29.6916 37.9362 29.6916 36.9948C29.6916 36.0534 28.9252 35.2903 27.9798 35.2903C27.0345 35.2903 26.2681 36.0534 26.2681 36.9948C26.2681 37.9362 27.0345 38.6993 27.9798 38.6993Z" fill="#644001"/>
<path d="M30.7637 24.9971H1.23968C1.1339 24.9971 1.03247 24.9552 0.957671 24.8807C0.882875 24.8062 0.840845 24.7052 0.84082 24.5999V22.7216C0.840845 22.6163 0.882875 22.5153 0.957671 22.4408C1.03247 22.3663 1.1339 22.3245 1.23968 22.3245H30.7637C30.8694 22.3245 30.9709 22.3663 31.0457 22.4408C31.1205 22.5153 31.1625 22.6163 31.1625 22.7216V24.5999C31.1611 24.7048 31.1186 24.805 31.0441 24.8792C30.9696 24.9533 30.869 24.9956 30.7637 24.9971V24.9971Z" fill="#36231D"/>
<path d="M16.5788 37.5658C16.8968 37.2491 16.8968 36.7357 16.5788 36.4191C16.2608 36.1024 15.7452 36.1024 15.4271 36.4191C15.1091 36.7357 15.1091 37.2491 15.4271 37.5658C15.7452 37.8825 16.2608 37.8825 16.5788 37.5658Z" fill="#5B342B"/>
<path d="M28.5541 37.5687C28.8721 37.2521 28.8721 36.7387 28.5541 36.422C28.2361 36.1053 27.7205 36.1053 27.4025 36.422C27.0845 36.7387 27.0845 37.2521 27.4025 37.5687C27.7205 37.8854 28.2361 37.8854 28.5541 37.5687Z" fill="#5B342B"/>
<path d="M16.8284 12.271H15.8313V16.8881H16.8284V12.271Z" fill="#A9744A"/>
<path d="M16.6623 8.19995H15.9976V12.2709H16.6623V8.19995Z" fill="#764940"/>
<path d="M17.136 13.9424H15.5488V16.8881H17.136V13.9424Z" fill="#36231D"/>
<path d="M17.2688 13.9424H15.4075C15.3505 13.9414 15.2961 13.9184 15.2558 13.8783C15.2155 13.8381 15.1924 13.784 15.1914 13.7273V13.7024C15.1924 13.6457 15.2155 13.5916 15.2558 13.5514C15.2961 13.5113 15.3505 13.4883 15.4075 13.4873H17.2688C17.3258 13.4883 17.3802 13.5113 17.4205 13.5514C17.4608 13.5916 17.4838 13.6457 17.4849 13.7024V13.7273C17.4851 13.7556 17.4796 13.7836 17.4688 13.8098C17.458 13.836 17.4421 13.8598 17.422 13.8798C17.4019 13.8999 17.378 13.9157 17.3517 13.9264C17.3254 13.9372 17.2972 13.9426 17.2688 13.9424V13.9424Z" fill="#36231D"/>
<path d="M16.6291 8.0264H16.0142L16.1887 6.08193C16.1927 6.04899 16.2082 6.01851 16.2325 5.99582C16.2568 5.97313 16.2884 5.95968 16.3216 5.95781V5.95781C16.3557 5.95686 16.3889 5.96937 16.4138 5.99262C16.4387 6.01586 16.4533 6.04796 16.4546 6.08193L16.6291 8.0264Z" fill="#764940"/>
<path d="M16.7536 8.20005H15.8811C15.8725 8.19947 15.8644 8.1958 15.8583 8.18971C15.8522 8.18362 15.8485 8.17554 15.8479 8.16695V8.03456C15.8485 8.02598 15.8522 8.01789 15.8583 8.01181C15.8644 8.00572 15.8725 8.00205 15.8811 8.00146H16.7453C16.754 8.00205 16.7621 8.00572 16.7682 8.01181C16.7743 8.01789 16.778 8.02598 16.7786 8.03456V8.16695C16.7869 8.1835 16.7703 8.20005 16.7536 8.20005Z" fill="#A9744A"/>
<path d="M27.4896 14.3728H26.2764V17.5336H27.4896V14.3728Z" fill="#36231D"/>
<path d="M28.9105 14.0584L25.0964 16.0525C24.9156 16.1465 24.7048 16.1653 24.5101 16.1048C24.3154 16.0443 24.1528 15.9095 24.0577 15.7298C23.9633 15.5498 23.9445 15.3399 24.0052 15.146C24.0659 14.9521 24.2014 14.7902 24.3818 14.6955L28.1959 12.7014C28.3767 12.6074 28.5875 12.5886 28.7822 12.6491C28.9769 12.7096 29.1395 12.8444 29.2346 13.0241V13.0241C29.327 13.2045 29.3448 13.4137 29.2842 13.607C29.2237 13.8003 29.0895 13.9623 28.9105 14.0584V14.0584Z" fill="#764940"/>
<path d="M11.1613 16.888H4.08154V16.3998C4.08136 16.2259 4.11562 16.0537 4.18237 15.893C4.24911 15.7323 4.34704 15.5862 4.47054 15.4633C4.59403 15.3403 4.74067 15.2428 4.90206 15.1763C5.06346 15.1099 5.23643 15.0757 5.41108 15.0759H9.84009C10.0147 15.0757 10.1877 15.1099 10.3491 15.1763C10.5105 15.2428 10.6571 15.3403 10.7806 15.4633C10.9041 15.5862 11.0021 15.7323 11.0688 15.893C11.1355 16.0537 11.1698 16.2259 11.1696 16.3998V16.888H11.1613Z" fill="#36231D"/>
<path d="M9.09222 3.46729H6.15894V15.0845H9.09222V3.46729Z" fill="#764940"/>
<path d="M9.31652 15.0842H5.93451C5.82658 15.084 5.72312 15.0412 5.6468 14.9652C5.57047 14.8892 5.52752 14.7862 5.52734 14.6787V13.7934C5.52752 13.6859 5.57047 13.5829 5.6468 13.5069C5.72312 13.4309 5.82658 13.3881 5.93451 13.3879H9.31652C9.42445 13.3881 9.52792 13.4309 9.60424 13.5069C9.68056 13.5829 9.72351 13.6859 9.72369 13.7934V14.687C9.72041 14.7927 9.6762 14.8931 9.60032 14.9671C9.52443 15.0412 9.42274 15.0831 9.31652 15.0842V15.0842Z" fill="#A9744A"/>
<path d="M11.2526 1.52271H3.98169V3.59957H11.2526V1.52271Z" fill="#764940"/>
<path d="M3.99841 0.413818H3.65771V1.58878H3.99841V0.413818Z" fill="#764940"/>
<path d="M11.7679 0.413818H11.4272V1.58878H11.7679V0.413818Z" fill="#764940"/>
<path d="M3.85716 3.93882C3.74059 3.93806 3.62901 3.89161 3.54659 3.80954C3.46416 3.72746 3.41751 3.61636 3.41675 3.50028V1.58063C3.41751 1.46456 3.46416 1.35346 3.54659 1.27138C3.62902 1.1893 3.74059 1.14285 3.85716 1.14209V1.14209C3.97373 1.14285 4.0853 1.1893 4.16773 1.27137C4.25016 1.35345 4.2968 1.46456 4.29757 1.58063V3.50028C4.2954 3.61592 4.2483 3.72621 4.16618 3.80799C4.08405 3.88977 3.97328 3.93667 3.85716 3.93882V3.93882Z" fill="#A9744A"/>
<path d="M11.6018 3.93882C11.4852 3.93806 11.3736 3.89162 11.2912 3.80954C11.2088 3.72746 11.1621 3.61636 11.1614 3.50028V1.58063C11.1621 1.46456 11.2088 1.35345 11.2912 1.27138C11.3736 1.1893 11.4852 1.14285 11.6018 1.14209V1.14209C11.7184 1.14285 11.8299 1.1893 11.9124 1.27137C11.9948 1.35345 12.0414 1.46456 12.0422 1.58063V3.50028C12.04 3.61592 11.9929 3.72621 11.9108 3.80799C11.8287 3.88977 11.7179 3.93667 11.6018 3.93882V3.93882Z" fill="#A9744A"/>
<path d="M9.15047 6.99199H6.07592C6.04643 6.99211 6.0172 6.98641 5.98992 6.97523C5.96264 6.96405 5.93786 6.94759 5.917 6.92682C5.89614 6.90605 5.87962 6.88138 5.86839 6.85422C5.85716 6.82706 5.85144 6.79795 5.85156 6.76858V6.76858C5.85144 6.7392 5.85716 6.7101 5.86839 6.68294C5.87962 6.65578 5.89614 6.6311 5.917 6.61033C5.93786 6.58956 5.96264 6.57311 5.98992 6.56192C6.0172 6.55074 6.04643 6.54505 6.07592 6.54517H9.15047C9.17997 6.54505 9.2092 6.55074 9.23648 6.56193C9.26375 6.57311 9.28853 6.58956 9.30939 6.61033C9.33025 6.6311 9.34677 6.65578 9.358 6.68294C9.36923 6.7101 9.37495 6.7392 9.37483 6.76858V6.76858C9.3723 6.82702 9.34784 6.88239 9.30631 6.92375C9.26477 6.96511 9.20916 6.98946 9.15047 6.99199Z" fill="#36231D"/>
<path d="M11.5768 0.860559H3.84886C3.82365 0.860973 3.79861 0.856333 3.77523 0.846916C3.75186 0.837498 3.73062 0.823496 3.71279 0.80574C3.69496 0.787985 3.6809 0.766841 3.67144 0.743564C3.66198 0.720288 3.65732 0.695355 3.65774 0.670249V0.190336C3.65732 0.16523 3.66198 0.140297 3.67144 0.11702C3.6809 0.0937438 3.69496 0.0725991 3.71279 0.054844C3.73062 0.037089 3.75186 0.0230862 3.77523 0.0136688C3.79861 0.00425137 3.82365 -0.000388362 3.84886 2.55894e-05H11.5768C11.602 -0.000389514 11.627 0.00424943 11.6504 0.0136664C11.6738 0.0230835 11.695 0.0370862 11.7129 0.0548415C11.7307 0.0725968 11.7447 0.0937419 11.7542 0.117019C11.7637 0.140296 11.7683 0.165229 11.7679 0.190336V0.670249C11.7683 0.695355 11.7637 0.720288 11.7542 0.743565C11.7447 0.766842 11.7307 0.787988 11.7129 0.805743C11.695 0.823498 11.6738 0.837501 11.6504 0.846918C11.627 0.856335 11.602 0.860974 11.5768 0.860559V0.860559Z" fill="#36231D"/>
<path d="M30.7138 30.2264H29.592C29.4755 30.2257 29.3639 30.1792 29.2814 30.0971C29.199 30.0151 29.1524 29.904 29.1516 29.7879V23.1519H31.1625V29.7879C31.1613 29.9052 31.1134 30.0173 31.0292 30.0995C30.9451 30.1817 30.8317 30.2274 30.7138 30.2264V30.2264Z" fill="#36231D"/>
<path d="M31.1625 24.5999H0.849121V20.6779L2.33654 16.7559H29.6668L31.1625 20.6779V24.5999Z" fill="#36231D"/>
<path d="M21.191 18.9734C21.12 18.9735 21.0497 18.9597 20.9841 18.9327C20.9185 18.9058 20.8589 18.8661 20.8088 18.8162C20.7586 18.7662 20.7188 18.7069 20.6917 18.6415C20.6646 18.5762 20.6507 18.5062 20.6509 18.4355V16.7559H21.7228V18.4355C21.7246 18.506 21.7121 18.576 21.6861 18.6415C21.6601 18.707 21.6212 18.7667 21.5715 18.8168C21.5219 18.867 21.4626 18.9068 21.3973 18.9337C21.3319 18.9605 21.2617 18.9741 21.191 18.9734V18.9734Z" fill="#442A23"/>
<path d="M23.0108 18.9734C22.9399 18.9735 22.8696 18.9597 22.804 18.9327C22.7384 18.9057 22.6788 18.8661 22.6286 18.8162C22.5784 18.7662 22.5386 18.7069 22.5115 18.6415C22.4844 18.5762 22.4706 18.5062 22.4707 18.4355V16.7559H23.5426V18.4355C23.5444 18.506 23.5319 18.576 23.506 18.6415C23.48 18.707 23.441 18.7667 23.3914 18.8168C23.3417 18.867 23.2825 18.9068 23.2171 18.9337C23.1517 18.9605 23.0816 18.9741 23.0108 18.9734V18.9734Z" fill="#442A23"/>
<path d="M24.8307 18.9734C24.7597 18.9735 24.6894 18.9597 24.6238 18.9327C24.5582 18.9058 24.4986 18.8661 24.4484 18.8162C24.3982 18.7662 24.3584 18.7069 24.3314 18.6415C24.3043 18.5762 24.2904 18.5062 24.2905 18.4355V16.7559H25.3625V18.4355C25.3642 18.506 25.3518 18.576 25.3258 18.6415C25.2998 18.707 25.2608 18.7667 25.2112 18.8168C25.1616 18.867 25.1023 18.9068 25.0369 18.9337C24.9715 18.9605 24.9014 18.9741 24.8307 18.9734V18.9734Z" fill="#442A23"/>
<path d="M26.6502 18.9734C26.5793 18.9735 26.509 18.9597 26.4434 18.9327C26.3778 18.9058 26.3182 18.8661 26.268 18.8162C26.2178 18.7662 26.178 18.7069 26.1509 18.6415C26.1238 18.5762 26.11 18.5062 26.1101 18.4355V16.7559H27.1821V18.4355C27.1838 18.506 27.1714 18.576 27.1454 18.6415C27.1194 18.707 27.0804 18.7667 27.0308 18.8168C26.9811 18.867 26.9219 18.9068 26.8565 18.9337C26.7911 18.9606 26.721 18.9741 26.6502 18.9734V18.9734Z" fill="#442A23"/>
<path d="M12.2664 21.8527H2.9015C2.74522 21.8521 2.5955 21.79 2.48498 21.68C2.37447 21.5699 2.31212 21.4208 2.31152 21.2652V21.2652C2.31212 21.1096 2.37447 20.9605 2.48498 20.8505C2.5955 20.7404 2.74522 20.6783 2.9015 20.6777H12.2664C12.4227 20.6783 12.5724 20.7404 12.6829 20.8505C12.7934 20.9605 12.8558 21.1096 12.8564 21.2652V21.2652C12.8558 21.4208 12.7934 21.5699 12.6829 21.68C12.5724 21.79 12.4227 21.8521 12.2664 21.8527Z" fill="#442A23"/>
<path d="M15.4656 21.2652C15.4656 21.3814 15.431 21.495 15.3662 21.5916C15.3014 21.6882 15.2092 21.7635 15.1014 21.808C14.9936 21.8524 14.875 21.8641 14.7605 21.8414C14.6461 21.8187 14.541 21.7628 14.4584 21.6806C14.3759 21.5985 14.3197 21.4938 14.297 21.3798C14.2742 21.2659 14.2859 21.1477 14.3306 21.0404C14.3752 20.933 14.4508 20.8413 14.5479 20.7767C14.6449 20.7122 14.7589 20.6777 14.8756 20.6777C15.0319 20.6783 15.1816 20.7404 15.2921 20.8505C15.4027 20.9605 15.465 21.1096 15.4656 21.2652V21.2652Z" fill="#442A23"/>
<path d="M17.7259 21.2652C17.7259 21.3814 17.6913 21.495 17.6264 21.5916C17.5616 21.6882 17.4695 21.7635 17.3617 21.808C17.2539 21.8524 17.1352 21.8641 17.0208 21.8414C16.9063 21.8187 16.8012 21.7628 16.7187 21.6806C16.6362 21.5985 16.58 21.4938 16.5572 21.3798C16.5345 21.2659 16.5462 21.1477 16.5908 21.0404C16.6355 20.933 16.7111 20.8413 16.8081 20.7767C16.9051 20.7122 17.0192 20.6777 17.1359 20.6777C17.2922 20.6783 17.4419 20.7404 17.5524 20.8505C17.6629 20.9605 17.7253 21.1096 17.7259 21.2652V21.2652Z" fill="#442A23"/>
</g>
<defs>
<clipPath id="clip0">
<rect width="32" height="41" fill="white"/>
</clipPath>
</defs>
</svg>
