<svg width="32" height="41" viewBox="0 0 32 41" fill="none" xmlns="http://www.w3.org/2000/svg">
<g clip-path="url(#clip0)">
<path d="M4.33909 33.7429H3.20899V31.5336C3.2087 31.4263 3.239 31.3212 3.29637 31.2304C3.35374 31.1395 3.43582 31.0668 3.53306 31.0206L8.07841 28.9106L8.55206 29.9284L4.33078 31.8811V33.7429H4.33909Z" fill="#CCA9A2"/>
<path d="M28.5449 35.2902H27.4148V31.5833L23.742 29.945L24.2073 28.9189L28.2126 30.7062C28.3115 30.7511 28.3954 30.8233 28.4543 30.9142C28.5132 31.0051 28.5447 31.111 28.5449 31.2192V35.2902Z" fill="#CCA9A2"/>
<path d="M27.9799 31.2441H4.02335V32.2453H27.9799V31.2441Z" fill="#CCA9A2"/>
<path d="M16.5708 31.7405H15.4324V35.4888H16.5708V31.7405Z" fill="#CCA9A2"/>
<path d="M4.02181 41C6.24299 41 8.04362 39.207 8.04362 36.9952C8.04362 34.7835 6.24299 32.9905 4.02181 32.9905C1.80063 32.9905 0 34.7835 0 36.9952C0 39.207 1.80063 41 4.02181 41Z" fill="#6C463B"/>
<path d="M4.02333 39.8577C3.45468 39.8577 2.89881 39.6898 2.426 39.3752C1.95319 39.0606 1.58468 38.6135 1.36707 38.0904C1.14945 37.5672 1.09252 36.9916 1.20345 36.4362C1.31439 35.8809 1.58822 35.3708 1.99031 34.9704C2.39241 34.57 2.9047 34.2973 3.46242 34.1868C4.02014 34.0764 4.59823 34.1331 5.12359 34.3498C5.64895 34.5665 6.09798 34.9334 6.4139 35.4042C6.72982 35.875 6.89845 36.4285 6.89845 36.9948C6.89819 37.754 6.5952 38.482 6.05606 39.0189C5.51693 39.5557 4.78578 39.8574 4.02333 39.8577V39.8577ZM4.02333 34.5704C3.54179 34.5704 3.07106 34.7126 2.67068 34.979C2.27029 35.2454 1.95823 35.624 1.77395 36.067C1.58967 36.51 1.54146 36.9975 1.6354 37.4677C1.72934 37.938 1.96123 38.37 2.30173 38.7091C2.64223 39.0481 3.07605 39.279 3.54834 39.3726C4.02063 39.4661 4.51017 39.4181 4.95505 39.2346C5.39994 39.0511 5.78019 38.7404 6.04772 38.3417C6.31525 37.943 6.45804 37.4743 6.45804 36.9948C6.45714 36.3521 6.20033 35.7359 5.74393 35.2815C5.28753 34.827 4.66878 34.5713 4.02333 34.5704V34.5704Z" fill="#D32A26"/>
<path d="M4.02333 38.6993C4.96872 38.6993 5.73511 37.9362 5.73511 36.9948C5.73511 36.0534 4.96872 35.2903 4.02333 35.2903C3.07794 35.2903 2.31155 36.0534 2.31155 36.9948C2.31155 37.9362 3.07794 38.6993 4.02333 38.6993Z" fill="#FDD99B"/>
<path d="M4.33756 37.7456C4.75308 37.5743 4.95039 37.0999 4.77828 36.6861C4.60616 36.2724 4.12978 36.0759 3.71426 36.2473C3.29874 36.4187 3.10143 36.893 3.27354 37.3068C3.44566 37.7205 3.92204 37.917 4.33756 37.7456Z" fill="#5B342B"/>
<path d="M16.003 40.9973C18.2241 40.9973 20.0248 39.2043 20.0248 36.9925C20.0248 34.7808 18.2241 32.9878 16.003 32.9878C13.7818 32.9878 11.9812 34.7808 11.9812 36.9925C11.9812 39.2043 13.7818 40.9973 16.003 40.9973Z" fill="#6C463B"/>
<path d="M16.0058 39.8577C15.4371 39.8577 14.8812 39.6898 14.4084 39.3752C13.9356 39.0606 13.5671 38.6135 13.3495 38.0904C13.1319 37.5672 13.075 36.9916 13.1859 36.4362C13.2968 35.8809 13.5707 35.3708 13.9727 34.9704C14.3748 34.57 14.8871 34.2973 15.4449 34.1868C16.0026 34.0764 16.5807 34.1331 17.106 34.3498C17.6314 34.5665 18.0804 34.9334 18.3963 35.4042C18.7123 35.875 18.8809 36.4285 18.8809 36.9948C18.8806 37.754 18.5776 38.482 18.0385 39.0189C17.4994 39.5557 16.7682 39.8574 16.0058 39.8577V39.8577ZM16.0058 34.5704C15.5242 34.5704 15.0535 34.7126 14.6531 34.979C14.2527 35.2454 13.9407 35.624 13.7564 36.067C13.5721 36.51 13.5239 36.9975 13.6178 37.4677C13.7118 37.938 13.9437 38.37 14.2842 38.7091C14.6247 39.0481 15.0585 39.279 15.5308 39.3726C16.0031 39.4661 16.4926 39.4181 16.9375 39.2346C17.3824 39.0511 17.7626 38.7404 18.0301 38.3417C18.2977 37.943 18.4405 37.4743 18.4405 36.9948C18.4396 36.3521 18.1828 35.7359 17.7264 35.2815C17.27 34.827 16.6512 34.5713 16.0058 34.5704V34.5704Z" fill="#D32A26"/>
<path d="M16.0058 38.6993C16.9512 38.6993 17.7176 37.9362 17.7176 36.9948C17.7176 36.0534 16.9512 35.2903 16.0058 35.2903C15.0604 35.2903 14.294 36.0534 14.294 36.9948C14.294 37.9362 15.0604 38.6993 16.0058 38.6993Z" fill="#FDD99B"/>
<path d="M23.6174 30.2264L16.0141 26.8339L8.70165 30.2182L7.9621 28.6295L15.6402 25.0715C15.7546 25.0191 15.8789 24.9912 16.0049 24.9898C16.1309 24.9884 16.2558 25.0134 16.3714 25.0632L24.3403 28.6212L23.6174 30.2264Z" fill="#6C463B"/>
<path d="M27.9782 41.0002C30.1994 41.0002 32 39.2072 32 36.9955C32 34.7837 30.1994 32.9907 27.9782 32.9907C25.757 32.9907 23.9564 34.7837 23.9564 36.9955C23.9564 39.2072 25.757 41.0002 27.9782 41.0002Z" fill="#6C463B"/>
<path d="M27.9799 39.8577C27.4112 39.8577 26.8554 39.6898 26.3825 39.3752C25.9097 39.0606 25.5412 38.6135 25.3236 38.0904C25.106 37.5672 25.0491 36.9916 25.16 36.4362C25.2709 35.8809 25.5448 35.3708 25.9469 34.9704C26.3489 34.57 26.8612 34.2973 27.419 34.1868C27.9767 34.0764 28.5548 34.1331 29.0801 34.3498C29.6055 34.5665 30.0545 34.9334 30.3704 35.4042C30.6864 35.875 30.855 36.4285 30.855 36.9948C30.8547 37.754 30.5517 38.482 30.0126 39.0189C29.4735 39.5557 28.7423 39.8574 27.9799 39.8577V39.8577ZM27.9799 34.5704C27.4983 34.5704 27.0276 34.7126 26.6272 34.979C26.2268 35.2454 25.9148 35.624 25.7305 36.067C25.5462 36.51 25.498 36.9975 25.5919 37.4677C25.6859 37.938 25.9178 38.37 26.2583 38.7091C26.5988 39.0481 27.0326 39.279 27.5049 39.3726C27.9772 39.4661 28.4667 39.4181 28.9116 39.2346C29.3565 39.0511 29.7367 38.7404 30.0043 38.3417C30.2718 37.943 30.4146 37.4743 30.4146 36.9948C30.4137 36.3521 30.1569 35.7359 29.7005 35.2815C29.2441 34.827 28.6253 34.5713 27.9799 34.5704V34.5704Z" fill="#D32A26"/>
<path d="M27.9799 38.6993C28.9253 38.6993 29.6917 37.9362 29.6917 36.9948C29.6917 36.0534 28.9253 35.2903 27.9799 35.2903C27.0345 35.2903 26.2681 36.0534 26.2681 36.9948C26.2681 37.9362 27.0345 38.6993 27.9799 38.6993Z" fill="#FDD99B"/>
<path d="M30.7636 24.9971H1.23964C1.13386 24.9971 1.03242 24.9552 0.957625 24.8807C0.882829 24.8062 0.840799 24.7052 0.840775 24.5999V22.7216C0.840799 22.6163 0.882829 22.5153 0.957625 22.4408C1.03242 22.3663 1.13386 22.3245 1.23964 22.3245H30.7636C30.8694 22.3245 30.9708 22.3663 31.0456 22.4408C31.1204 22.5153 31.1625 22.6163 31.1625 22.7216V24.5999C31.161 24.7048 31.1186 24.805 31.0441 24.8792C30.9696 24.9533 30.869 24.9956 30.7636 24.9971V24.9971Z" fill="#6C463B"/>
<path d="M16.5788 37.5658C16.8968 37.2491 16.8968 36.7357 16.5788 36.4191C16.2608 36.1024 15.7452 36.1024 15.4271 36.4191C15.1091 36.7357 15.1091 37.2491 15.4271 37.5658C15.7452 37.8825 16.2608 37.8825 16.5788 37.5658Z" fill="#5B342B"/>
<path d="M28.554 37.5687C28.872 37.2521 28.872 36.7387 28.554 36.422C28.236 36.1053 27.7204 36.1053 27.4024 36.422C27.0844 36.7387 27.0844 37.2521 27.4024 37.5687C27.7204 37.8854 28.236 37.8854 28.554 37.5687Z" fill="#5B342B"/>
<path d="M16.8284 12.271H15.8313V16.8881H16.8284V12.271Z" fill="#F8F3EF"/>
<path d="M16.6622 8.19995H15.9975V12.2709H16.6622V8.19995Z" fill="#CCA9A2"/>
<path d="M17.1359 13.9424H15.5488V16.8881H17.1359V13.9424Z" fill="#6C463B"/>
<path d="M17.2688 13.9424H15.4075C15.3505 13.9414 15.2961 13.9184 15.2558 13.8783C15.2155 13.8381 15.1924 13.784 15.1914 13.7273V13.7024C15.1924 13.6457 15.2155 13.5916 15.2558 13.5514C15.2961 13.5113 15.3505 13.4883 15.4075 13.4873H17.2688C17.3258 13.4883 17.3802 13.5113 17.4205 13.5514C17.4608 13.5916 17.4839 13.6457 17.4849 13.7024V13.7273C17.4851 13.7556 17.4796 13.7836 17.4688 13.8098C17.4581 13.836 17.4422 13.8598 17.4221 13.8798C17.402 13.8999 17.3781 13.9157 17.3518 13.9264C17.3254 13.9372 17.2973 13.9426 17.2688 13.9424V13.9424Z" fill="#6C463B"/>
<path d="M16.629 8.0264H16.0141L16.1886 6.08193C16.1926 6.04899 16.2081 6.01851 16.2324 5.99582C16.2567 5.97313 16.2883 5.95968 16.3215 5.95781V5.95781C16.3556 5.95686 16.3888 5.96937 16.4137 5.99262C16.4386 6.01586 16.4532 6.04796 16.4545 6.08193L16.629 8.0264Z" fill="#CCA9A2"/>
<path d="M16.7536 8.20005H15.8811C15.8725 8.19947 15.8644 8.1958 15.8583 8.18971C15.8521 8.18362 15.8485 8.17554 15.8479 8.16695V8.03456C15.8485 8.02598 15.8521 8.01789 15.8583 8.01181C15.8644 8.00572 15.8725 8.00205 15.8811 8.00146H16.7453C16.7539 8.00205 16.762 8.00572 16.7682 8.01181C16.7743 8.01789 16.778 8.02598 16.7785 8.03456V8.16695C16.7869 8.1835 16.7702 8.20005 16.7536 8.20005Z" fill="#F8F3EF"/>
<path d="M27.4896 14.3728H26.2764V17.5336H27.4896V14.3728Z" fill="#6C463B"/>
<path d="M28.9106 14.0584L25.0965 16.0525C24.9157 16.1465 24.7049 16.1653 24.5102 16.1048C24.3155 16.0443 24.1528 15.9095 24.0578 15.7298C23.9634 15.5498 23.9445 15.3399 24.0053 15.146C24.066 14.9521 24.2014 14.7902 24.3818 14.6955L28.1959 12.7014C28.3767 12.6074 28.5876 12.5886 28.7822 12.6491C28.9769 12.7096 29.1396 12.8444 29.2346 13.0241V13.0241C29.327 13.2045 29.3449 13.4137 29.2843 13.607C29.2237 13.8003 29.0896 13.9623 28.9106 14.0584V14.0584Z" fill="#CCA9A2"/>
<path d="M11.1613 16.888H4.08151V16.3998C4.08133 16.2259 4.11559 16.0537 4.18233 15.893C4.24908 15.7323 4.34701 15.5862 4.47051 15.4633C4.594 15.3403 4.74064 15.2428 4.90203 15.1763C5.06343 15.1099 5.2364 15.0757 5.41105 15.0759H9.84006C10.0147 15.0757 10.1877 15.1099 10.3491 15.1763C10.5105 15.2428 10.6571 15.3403 10.7806 15.4633C10.9041 15.5862 11.002 15.7323 11.0688 15.893C11.1355 16.0537 11.1698 16.2259 11.1696 16.3998V16.888H11.1613Z" fill="#6C463B"/>
<path d="M9.09218 3.46729H6.15889V15.0845H9.09218V3.46729Z" fill="#CCA9A2"/>
<path d="M9.31655 15.0842H5.93454C5.82661 15.084 5.72315 15.0412 5.64683 14.9652C5.5705 14.8892 5.52755 14.7862 5.52737 14.6787V13.7934C5.52755 13.6859 5.5705 13.5829 5.64683 13.5069C5.72315 13.4309 5.82661 13.3881 5.93454 13.3879H9.31655C9.42448 13.3881 9.52795 13.4309 9.60427 13.5069C9.68059 13.5829 9.72354 13.6859 9.72372 13.7934V14.687C9.72044 14.7927 9.67623 14.8931 9.60035 14.9671C9.52446 15.0412 9.42277 15.0831 9.31655 15.0842V15.0842Z" fill="#F8F3EF"/>
<path d="M11.2527 1.52271H3.9818V3.59957H11.2527V1.52271Z" fill="#CCA9A2"/>
<path d="M3.99841 0.413818H3.65771V1.58878H3.99841V0.413818Z" fill="#CCA9A2"/>
<path d="M11.7679 0.413818H11.4272V1.58878H11.7679V0.413818Z" fill="#CCA9A2"/>
<path d="M3.85716 3.93882C3.74059 3.93806 3.62901 3.89161 3.54659 3.80954C3.46416 3.72746 3.41751 3.61636 3.41675 3.50028V1.58063C3.41751 1.46456 3.46416 1.35346 3.54659 1.27138C3.62902 1.1893 3.74059 1.14285 3.85716 1.14209V1.14209C3.97373 1.14285 4.0853 1.1893 4.16773 1.27137C4.25016 1.35345 4.2968 1.46456 4.29757 1.58063V3.50028C4.2954 3.61592 4.2483 3.72621 4.16618 3.80799C4.08405 3.88977 3.97328 3.93667 3.85716 3.93882V3.93882Z" fill="#F8F3EF"/>
<path d="M11.6017 3.93882C11.4851 3.93806 11.3735 3.89162 11.2911 3.80954C11.2087 3.72746 11.162 3.61636 11.1613 3.50028V1.58063C11.162 1.46456 11.2087 1.35345 11.2911 1.27138C11.3736 1.1893 11.4851 1.14285 11.6017 1.14209V1.14209C11.7183 1.14285 11.8298 1.1893 11.9123 1.27137C11.9947 1.35345 12.0413 1.46456 12.0421 1.58063V3.50028C12.0399 3.61592 11.9928 3.72621 11.9107 3.80799C11.8286 3.88977 11.7178 3.93667 11.6017 3.93882V3.93882Z" fill="#F8F3EF"/>
<path d="M9.15037 6.99199H6.07582C6.04632 6.99211 6.01709 6.98641 5.98981 6.97523C5.96254 6.96405 5.93775 6.94759 5.9169 6.92682C5.89604 6.90605 5.87952 6.88138 5.86829 6.85422C5.85705 6.82706 5.85133 6.79795 5.85146 6.76858V6.76858C5.85133 6.7392 5.85705 6.7101 5.86829 6.68294C5.87952 6.65578 5.89604 6.6311 5.9169 6.61033C5.93775 6.58956 5.96254 6.57311 5.98981 6.56192C6.01709 6.55074 6.04632 6.54505 6.07582 6.54517H9.15037C9.17986 6.54505 9.20909 6.55074 9.23637 6.56193C9.26364 6.57311 9.28843 6.58956 9.30928 6.61033C9.33014 6.6311 9.34666 6.65578 9.3579 6.68294C9.36913 6.7101 9.37485 6.7392 9.37473 6.76858V6.76858C9.37219 6.82702 9.34774 6.88239 9.3062 6.92375C9.26466 6.96511 9.20906 6.98946 9.15037 6.99199Z" fill="#6C463B"/>
<path d="M11.5768 0.860559H3.84885C3.82363 0.860973 3.79859 0.856333 3.77522 0.846916C3.75184 0.837498 3.73061 0.823496 3.71278 0.80574C3.69495 0.787985 3.68088 0.766841 3.67143 0.743564C3.66197 0.720288 3.65731 0.695355 3.65773 0.670249V0.190336C3.65731 0.16523 3.66197 0.140297 3.67143 0.11702C3.68088 0.0937438 3.69495 0.0725991 3.71278 0.054844C3.73061 0.037089 3.75184 0.0230862 3.77522 0.0136688C3.79859 0.00425137 3.82363 -0.000388362 3.84885 2.55894e-05H11.5768C11.602 -0.000389514 11.627 0.00424943 11.6504 0.0136664C11.6738 0.0230835 11.695 0.0370862 11.7128 0.0548415C11.7307 0.0725968 11.7447 0.0937419 11.7542 0.117019C11.7636 0.140296 11.7683 0.165229 11.7679 0.190336V0.670249C11.7683 0.695355 11.7636 0.720288 11.7542 0.743565C11.7447 0.766842 11.7307 0.787988 11.7128 0.805743C11.695 0.823498 11.6738 0.837501 11.6504 0.846918C11.627 0.856335 11.602 0.860974 11.5768 0.860559V0.860559Z" fill="#6C463B"/>
<path d="M30.7138 30.2264H29.592C29.4754 30.2257 29.3638 30.1792 29.2814 30.0971C29.199 30.0151 29.1523 29.904 29.1516 29.7879V23.1519H31.1625V29.7879C31.1612 29.9052 31.1133 30.0173 31.0292 30.0995C30.9451 30.1817 30.8316 30.2274 30.7138 30.2264V30.2264Z" fill="#6C463B"/>
<path d="M31.1624 24.5999H0.84906V20.6779L2.33648 16.7559H29.6667L31.1624 20.6779V24.5999Z" fill="#6C463B"/>
<path d="M21.191 18.9734C21.12 18.9735 21.0497 18.9597 20.9841 18.9327C20.9185 18.9058 20.8589 18.8661 20.8087 18.8162C20.7585 18.7662 20.7188 18.7069 20.6917 18.6415C20.6646 18.5762 20.6507 18.5062 20.6508 18.4355V16.7559H21.7228V18.4355C21.7246 18.506 21.7121 18.576 21.6861 18.6415C21.6601 18.707 21.6211 18.7667 21.5715 18.8168C21.5219 18.867 21.4626 18.9068 21.3972 18.9337C21.3318 18.9605 21.2617 18.9741 21.191 18.9734V18.9734Z" fill="#895447"/>
<path d="M23.0108 18.9734C22.9398 18.9735 22.8695 18.9597 22.8039 18.9327C22.7383 18.9057 22.6787 18.8661 22.6285 18.8162C22.5783 18.7662 22.5386 18.7069 22.5115 18.6415C22.4844 18.5762 22.4705 18.5062 22.4706 18.4355V16.7559H23.5426V18.4355C23.5444 18.506 23.5319 18.576 23.5059 18.6415C23.4799 18.707 23.4409 18.7667 23.3913 18.8168C23.3417 18.867 23.2824 18.9068 23.217 18.9337C23.1516 18.9605 23.0815 18.9741 23.0108 18.9734V18.9734Z" fill="#895447"/>
<path d="M24.8306 18.9734C24.7596 18.9735 24.6893 18.9597 24.6237 18.9327C24.5581 18.9058 24.4985 18.8661 24.4483 18.8162C24.3981 18.7662 24.3584 18.7069 24.3313 18.6415C24.3042 18.5762 24.2903 18.5062 24.2905 18.4355V16.7559H25.3624V18.4355C25.3642 18.506 25.3517 18.576 25.3257 18.6415C25.2997 18.707 25.2607 18.7667 25.2111 18.8168C25.1615 18.867 25.1022 18.9068 25.0368 18.9337C24.9715 18.9605 24.9013 18.9741 24.8306 18.9734V18.9734Z" fill="#895447"/>
<path d="M26.6504 18.9734C26.5794 18.9735 26.5091 18.9597 26.4435 18.9327C26.3779 18.9058 26.3183 18.8661 26.2681 18.8162C26.2179 18.7662 26.1781 18.7069 26.1511 18.6415C26.124 18.5762 26.1101 18.5062 26.1102 18.4355V16.7559H27.1822V18.4355C27.184 18.506 27.1715 18.576 27.1455 18.6415C27.1195 18.707 27.0805 18.7667 27.0309 18.8168C26.9813 18.867 26.922 18.9068 26.8566 18.9337C26.7912 18.9606 26.7211 18.9741 26.6504 18.9734V18.9734Z" fill="#895447"/>
<path d="M12.2664 21.8527H2.90153C2.74525 21.8521 2.59553 21.79 2.48502 21.68C2.3745 21.5699 2.31215 21.4208 2.31155 21.2652V21.2652C2.31215 21.1096 2.3745 20.9605 2.48502 20.8505C2.59553 20.7404 2.74525 20.6783 2.90153 20.6777H12.2664C12.4227 20.6783 12.5724 20.7404 12.683 20.8505C12.7935 20.9605 12.8558 21.1096 12.8564 21.2652V21.2652C12.8558 21.4208 12.7935 21.5699 12.683 21.68C12.5724 21.79 12.4227 21.8521 12.2664 21.8527Z" fill="#895447"/>
<path d="M15.4656 21.2652C15.4656 21.3814 15.431 21.495 15.3662 21.5916C15.3014 21.6882 15.2092 21.7635 15.1014 21.808C14.9936 21.8524 14.875 21.8641 14.7606 21.8414C14.6461 21.8187 14.541 21.7628 14.4585 21.6806C14.376 21.5985 14.3198 21.4938 14.297 21.3798C14.2742 21.2659 14.2859 21.1477 14.3306 21.0404C14.3752 20.933 14.4509 20.8413 14.5479 20.7767C14.6449 20.7122 14.759 20.6777 14.8757 20.6777C15.0319 20.6783 15.1817 20.7404 15.2922 20.8505C15.4027 20.9605 15.465 21.1096 15.4656 21.2652V21.2652Z" fill="#895447"/>
<path d="M17.7259 21.2652C17.7259 21.3814 17.6913 21.495 17.6264 21.5916C17.5616 21.6882 17.4695 21.7635 17.3617 21.808C17.2539 21.8524 17.1352 21.8641 17.0208 21.8414C16.9064 21.8187 16.8012 21.7628 16.7187 21.6806C16.6362 21.5985 16.58 21.4938 16.5573 21.3798C16.5345 21.2659 16.5462 21.1477 16.5908 21.0404C16.6355 20.933 16.7111 20.8413 16.8081 20.7767C16.9051 20.7122 17.0192 20.6777 17.1359 20.6777C17.2922 20.6783 17.4419 20.7404 17.5524 20.8505C17.6629 20.9605 17.7253 21.1096 17.7259 21.2652V21.2652Z" fill="#895447"/>
</g>
<defs>
<clipPath id="clip0">
<rect width="32" height="41" fill="white"/>
</clipPath>
</defs>
</svg>
