<svg width="218" height="218" viewBox="0 0 218 218" fill="none" xmlns="http://www.w3.org/2000/svg">
<circle cx="109" cy="109" r="106.5" stroke="#8B724A" stroke-width="5" stroke-dasharray="10 10"/>
<circle cx="109" cy="109" r="90.5" stroke="#8B724A" stroke-width="5"/>
<circle cx="109" cy="109" r="72.5" stroke="#8B724A" stroke-width="5"/>
<path d="M160.5 109C160.5 136.847 137.487 159.5 109 159.5C80.5131 159.5 57.5 136.847 57.5 109C57.5 81.1535 80.5131 58.5 109 58.5C137.487 58.5 160.5 81.1535 160.5 109Z" stroke="#8B724A" stroke-width="5"/>
<path d="M151.5 109C151.5 131.867 132.525 150.5 109 150.5C85.4746 150.5 66.5 131.867 66.5 109C66.5 86.1328 85.4746 67.5 109 67.5C132.525 67.5 151.5 86.1328 151.5 109Z" stroke="#8B724A" stroke-width="5"/>
<g filter="url(#filter0_d)">
<circle cx="109" cy="109" r="33" fill="#FFD143"/>
</g>
<defs>
<filter id="filter0_d" x="69" y="69" width="80" height="80" filterUnits="userSpaceOnUse" color-interpolation-filters="sRGB">
<feFlood flood-opacity="0" result="BackgroundImageFix"/>
<feColorMatrix in="SourceAlpha" type="matrix" values="0 0 0 0 0 0 0 0 0 0 0 0 0 0 0 0 0 0 127 0"/>
<feMorphology radius="3" operator="dilate" in="SourceAlpha" result="effect1_dropShadow"/>
<feOffset/>
<feGaussianBlur stdDeviation="2"/>
<feColorMatrix type="matrix" values="0 0 0 0 0.917647 0 0 0 0 0.662745 0 0 0 0 0.266667 0 0 0 1 0"/>
<feBlend mode="normal" in2="BackgroundImageFix" result="effect1_dropShadow"/>
<feBlend mode="normal" in="SourceGraphic" in2="effect1_dropShadow" result="shape"/>
</filter>
</defs>
</svg>
