<svg width="139" height="134" viewBox="0 0 139 134" fill="none" xmlns="http://www.w3.org/2000/svg">
<g clip-path="url(#clip0)">
<path d="M116.791 120.345H91.5686L95.633 31.4246H112.727L116.791 120.345Z" fill="#77583D"/>
<path d="M112.727 31.4246H108.473L112.538 120.345H116.791L112.727 31.4246Z" fill="#98603B"/>
<path d="M121.99 20.9786C134.165 35.6359 141.246 49.8605 132.095 57.5474C122.944 65.2343 101.027 63.4727 88.8517 48.8154C76.6769 34.1581 78.8549 12.1556 88.0058 4.46862C97.1567 -3.21832 109.815 6.32128 121.99 20.9786Z" fill="#7D441A"/>
<path d="M132.843 56.919C142.556 48.7601 140.56 30.2639 128.385 15.6066C116.21 0.949304 98.4669 -4.31867 88.7541 3.84025C79.0413 11.9992 81.0372 30.4954 93.2121 45.1527C105.387 59.81 123.131 65.078 132.843 56.919Z" fill="#98603B"/>
<path opacity="0.8" d="M132.843 56.919C142.556 48.7601 140.56 30.2639 128.385 15.6066C116.21 0.949304 98.4669 -4.31867 88.7541 3.84025C79.0413 11.9992 81.0372 30.4954 93.2121 45.1527C105.387 59.81 123.131 65.078 132.843 56.919Z" fill="#7F7F7F"/>
<path d="M132.537 54.0826C141.583 46.4838 139.724 29.2574 128.385 15.6065C117.046 1.95547 100.521 -2.95082 91.4749 4.64795C82.4289 12.2467 84.2878 29.4731 95.6269 43.124C106.966 56.775 123.491 61.6813 132.537 54.0826Z" fill="#98603B"/>
<path opacity="0.08" d="M91.475 4.64799C82.429 12.2467 84.2879 29.4731 95.6269 43.1241C96.3422 43.9851 97.0772 44.8111 97.8316 45.6019C90.3444 35.059 89.5235 22.6717 96.2936 16.9846C103.574 10.8693 116.873 14.8178 125.998 25.8038C134.485 36.0204 136.371 48.7241 130.739 55.372C131.37 54.9889 131.971 54.5579 132.537 54.0827C141.583 46.4839 139.724 29.2575 128.385 15.6065C117.046 1.95556 100.521 -2.95069 91.475 4.64799Z" fill="#522205"/>
<path opacity="0.34" d="M115.762 33.8876C117.339 32.5634 117.173 29.7517 115.392 27.6075C113.611 25.4633 110.889 24.7986 109.313 26.1228C107.736 27.447 107.902 30.2587 109.683 32.4029C111.464 34.5471 114.186 35.2118 115.762 33.8876Z" fill="#522205"/>
<path d="M124.898 20.9114L123.643 19.4004C123.643 19.4004 113.421 24.7067 110.907 27.5339C110.324 28.1888 110.732 29.4032 111.772 30.655C112.812 31.9069 114.009 32.4275 114.672 32.0668C117.989 30.2611 124.898 20.9114 124.898 20.9114Z" fill="#7F7F7F"/>
<path d="M125.812 22.4512C127.764 22.4512 129.347 20.8595 129.347 18.896C129.347 16.9325 127.764 15.3408 125.812 15.3408C123.859 15.3408 122.277 16.9325 122.277 18.896C122.277 20.8595 123.859 22.4512 125.812 22.4512Z" fill="#7F7F7F"/>
<g opacity="0.34">
<path opacity="0.34" d="M119.436 61.8765L119.44 61.96C119.62 61.9486 119.796 61.9304 119.975 61.9159C119.795 61.9021 119.616 61.8931 119.436 61.8765Z" fill="#522205"/>
<path opacity="0.34" d="M94.1688 48.8152C81.9939 34.1579 84.1721 12.1554 93.3231 4.46847C93.4787 4.33776 93.6356 4.21305 93.7931 4.09223C93.8872 4.0093 93.9749 3.92096 94.0711 3.84005C96.5321 1.77275 99.5093 0.569011 102.78 0.160076C97.4314 -0.451939 92.4964 0.696419 88.754 3.84016C88.6577 3.92103 88.5699 4.00942 88.4759 4.09234C88.3183 4.21317 88.1615 4.33787 88.0059 4.46858C78.8549 12.1554 76.6768 34.1579 88.8518 48.8152C90.5512 50.8574 92.4752 52.6994 94.5871 54.3059L91.5687 120.344H96.8858L99.9042 54.3059C97.7923 52.6994 95.8682 50.8574 94.1688 48.8152V48.8152Z" fill="#522205"/>
</g>
<path d="M132.581 127.649H3.73682V91.7631C3.73682 89.4048 4.6684 87.1431 6.32664 85.4755C7.98488 83.8079 10.2339 82.8711 12.579 82.8711H70.388C76.2914 82.8711 82.0059 84.9631 86.5277 88.7795L132.581 127.649Z" fill="#98603B"/>
<path d="M86.5277 88.7795C82.006 84.9631 76.2914 82.8711 70.3881 82.8711H64.0723C69.9756 82.8711 75.6901 84.9631 80.2119 88.7795L126.265 127.649H132.581L86.5277 88.7795Z" fill="#7F7F7F"/>
<path d="M5.2576 127.649H131.376C132.77 127.649 134.108 128.206 135.094 129.197C136.079 130.189 136.633 131.534 136.633 132.936V134H4.51907e-10V132.936C-9.05174e-06 132.242 0.135976 131.554 0.400191 130.913C0.664407 130.271 1.05168 129.688 1.53989 129.197C2.02811 128.706 2.6077 128.317 3.24559 128.051C3.88348 127.785 4.56716 127.649 5.2576 127.649V127.649Z" fill="#13151D"/>
<path d="M27.9548 95.7793H32.6224C34.562 95.7793 36.4222 96.5541 37.7938 97.9334C39.1653 99.3126 39.9358 101.183 39.9358 103.134V133.371H20.6414V103.134C20.6414 101.183 21.4119 99.3126 22.7834 97.9334C24.1549 96.5541 26.0151 95.7793 27.9548 95.7793V95.7793Z" fill="#98603B"/>
<path d="M40.5612 134H20.0161V102.037C20.0182 100.211 20.7403 98.4609 22.0242 97.1698C23.308 95.8787 25.0487 95.1525 26.8644 95.1504H33.7129C35.5285 95.1525 37.2692 95.8787 38.5531 97.1698C39.8369 98.4609 40.5591 100.211 40.5611 102.037L40.5612 134ZM21.2667 132.742H39.3105V102.037C39.3088 100.545 38.7185 99.114 37.6691 98.0587C36.6197 97.0033 35.1969 96.4097 33.7127 96.408H26.8644C25.3803 96.4097 23.9575 97.0033 22.908 98.0586C21.8586 99.114 21.2683 100.545 21.2667 102.037V132.742Z" fill="#7D441A"/>
<path d="M30.2887 113.004C33.2395 113.004 35.6315 110.599 35.6315 107.631C35.6315 104.664 33.2395 102.258 30.2887 102.258C27.3379 102.258 24.9458 104.664 24.9458 107.631C24.9458 110.599 27.3379 113.004 30.2887 113.004Z" fill="#13151D"/>
<path d="M30.2887 113.364C29.1613 113.364 28.0592 113.027 27.1218 112.398C26.1844 111.768 25.4538 110.872 25.0223 109.825C24.5909 108.778 24.478 107.625 24.6979 106.513C24.9178 105.401 25.4607 104.38 26.2579 103.578C27.055 102.776 28.0707 102.23 29.1764 102.009C30.2822 101.788 31.4283 101.901 32.4699 102.335C33.5115 102.769 34.4017 103.504 35.0281 104.446C35.6545 105.389 35.9888 106.497 35.9888 107.631C35.9871 109.151 35.386 110.608 34.3174 111.683C33.2488 112.757 31.8 113.362 30.2887 113.364V113.364ZM30.2887 102.618C29.3027 102.618 28.3387 102.912 27.5188 103.462C26.6989 104.013 26.0599 104.796 25.6825 105.713C25.3052 106.629 25.2064 107.637 25.3988 108.609C25.5912 109.582 26.066 110.475 26.7633 111.176C27.4605 111.878 28.3489 112.355 29.316 112.549C30.2831 112.742 31.2856 112.643 32.1966 112.263C33.1076 111.884 33.8862 111.241 34.434 110.417C34.9819 109.592 35.2742 108.623 35.2742 107.631C35.2727 106.302 34.7469 105.028 33.8123 104.088C32.8777 103.148 31.6105 102.619 30.2887 102.618Z" fill="#7D441A"/>
<path d="M59.5521 113.004C62.5029 113.004 64.895 110.599 64.895 107.631C64.895 104.664 62.5029 102.258 59.5521 102.258C56.6013 102.258 54.2092 104.664 54.2092 107.631C54.2092 110.599 56.6013 113.004 59.5521 113.004Z" fill="#13151D"/>
<path d="M59.5523 113.364C58.4249 113.364 57.3229 113.027 56.3855 112.398C55.4481 111.768 54.7174 110.872 54.286 109.825C53.8545 108.778 53.7416 107.625 53.9616 106.513C54.1815 105.401 54.7244 104.38 55.5215 103.578C56.3187 102.776 57.3344 102.23 58.4401 102.009C59.5458 101.788 60.692 101.901 61.7335 102.335C62.7751 102.769 63.6654 103.504 64.2918 104.446C64.9181 105.389 65.2524 106.497 65.2525 107.631C65.2508 109.151 64.6497 110.608 63.5811 111.683C62.5125 112.757 61.0636 113.362 59.5523 113.364V113.364ZM59.5523 102.618C58.5663 102.618 57.6023 102.912 56.7825 103.462C55.9626 104.013 55.3235 104.796 54.9462 105.713C54.5688 106.629 54.4701 107.637 54.6624 108.609C54.8548 109.582 55.3296 110.475 56.0269 111.176C56.7241 111.878 57.6125 112.355 58.5796 112.549C59.5467 112.742 60.5491 112.643 61.4602 112.263C62.3712 111.884 63.1498 111.241 63.6976 110.417C64.2455 109.592 64.5379 108.623 64.5379 107.631C64.5363 106.302 64.0106 105.028 63.076 104.088C62.1413 103.148 60.8741 102.619 59.5523 102.618V102.618Z" fill="#7D441A"/>
<path d="M78.2892 113.004C81.2399 113.004 83.632 110.599 83.632 107.631C83.632 104.664 81.2399 102.258 78.2892 102.258C75.3384 102.258 72.9463 104.664 72.9463 107.631C72.9463 110.599 75.3384 113.004 78.2892 113.004Z" fill="#13151D"/>
<path d="M78.2892 113.364C77.1618 113.364 76.0597 113.027 75.1223 112.398C74.1849 111.768 73.4543 110.872 73.0228 109.825C72.5914 108.778 72.4785 107.625 72.6984 106.513C72.9183 105.401 73.4612 104.38 74.2584 103.578C75.0556 102.776 76.0713 102.23 77.177 102.009C78.2827 101.788 79.4289 101.901 80.4704 102.335C81.512 102.769 82.4023 103.504 83.0286 104.447C83.655 105.389 83.9893 106.497 83.9893 107.631C83.9876 109.151 83.3865 110.608 82.3179 111.683C81.2493 112.757 79.8004 113.362 78.2892 113.364V113.364ZM78.2892 102.618C77.3031 102.618 76.3392 102.912 75.5193 103.463C74.6994 104.013 74.0604 104.796 73.6831 105.713C73.3057 106.629 73.207 107.637 73.3993 108.609C73.5917 109.582 74.0666 110.475 74.7638 111.176C75.4611 111.878 76.3494 112.355 77.3166 112.549C78.2837 112.742 79.2861 112.643 80.1971 112.263C81.1081 111.884 81.8868 111.241 82.4346 110.417C82.9824 109.592 83.2748 108.623 83.2748 107.631C83.2732 106.302 82.7474 105.028 81.8128 104.088C80.8782 103.148 79.611 102.619 78.2892 102.618V102.618Z" fill="#7D441A"/>
<path d="M132.581 127.649H3.73682V91.7631C3.73682 89.4048 4.6684 87.1431 6.32664 85.4755C7.98488 83.8079 10.2339 82.8711 12.579 82.8711H70.388C76.2914 82.8711 82.0059 84.9631 86.5277 88.7795L132.581 127.649Z" fill="#77583D"/>
<path d="M86.5277 88.7795C82.006 84.9631 76.2914 82.8711 70.3881 82.8711H64.0723C69.9756 82.8711 75.6901 84.9631 80.2119 88.7795L126.265 127.649H132.581L86.5277 88.7795Z" fill="#7F7F7F"/>
<path d="M5.2576 127.649H131.376C132.77 127.649 134.108 128.206 135.094 129.197C136.079 130.189 136.633 131.534 136.633 132.936V134H4.51907e-10V132.936C-9.05174e-06 132.242 0.135976 131.554 0.400191 130.913C0.664407 130.271 1.05168 129.688 1.53989 129.197C2.02811 128.706 2.6077 128.317 3.24559 128.051C3.88348 127.785 4.56716 127.649 5.2576 127.649V127.649Z" fill="#13151D"/>
<path d="M27.9548 95.7793H32.6224C34.562 95.7793 36.4222 96.5541 37.7938 97.9334C39.1653 99.3126 39.9358 101.183 39.9358 103.134V133.371H20.6414V103.134C20.6414 101.183 21.4119 99.3126 22.7834 97.9334C24.1549 96.5541 26.0151 95.7793 27.9548 95.7793V95.7793Z" fill="#98603B"/>
<path d="M40.5612 134H20.0161V102.037C20.0182 100.211 20.7403 98.4609 22.0242 97.1698C23.308 95.8787 25.0487 95.1525 26.8644 95.1504H33.7129C35.5285 95.1525 37.2692 95.8787 38.5531 97.1698C39.8369 98.4609 40.5591 100.211 40.5611 102.037L40.5612 134ZM21.2667 132.742H39.3105V102.037C39.3088 100.545 38.7185 99.114 37.6691 98.0587C36.6197 97.0033 35.1969 96.4097 33.7127 96.408H26.8644C25.3803 96.4097 23.9575 97.0033 22.908 98.0586C21.8586 99.114 21.2683 100.545 21.2667 102.037V132.742Z" fill="#7D441A"/>
<path d="M30.2887 113.004C33.2395 113.004 35.6315 110.599 35.6315 107.631C35.6315 104.664 33.2395 102.258 30.2887 102.258C27.3379 102.258 24.9458 104.664 24.9458 107.631C24.9458 110.599 27.3379 113.004 30.2887 113.004Z" fill="#13151D"/>
<path d="M30.2887 113.364C29.1613 113.364 28.0592 113.027 27.1218 112.398C26.1844 111.768 25.4538 110.872 25.0223 109.825C24.5909 108.778 24.478 107.625 24.6979 106.513C24.9178 105.401 25.4607 104.38 26.2579 103.578C27.055 102.776 28.0707 102.23 29.1764 102.009C30.2822 101.788 31.4283 101.901 32.4699 102.335C33.5115 102.769 34.4017 103.504 35.0281 104.446C35.6545 105.389 35.9888 106.497 35.9888 107.631C35.9871 109.151 35.386 110.608 34.3174 111.683C33.2488 112.757 31.8 113.362 30.2887 113.364V113.364ZM30.2887 102.618C29.3027 102.618 28.3387 102.912 27.5188 103.462C26.6989 104.013 26.0599 104.796 25.6825 105.713C25.3052 106.629 25.2064 107.637 25.3988 108.609C25.5912 109.582 26.066 110.475 26.7633 111.176C27.4605 111.878 28.3489 112.355 29.316 112.549C30.2831 112.742 31.2856 112.643 32.1966 112.263C33.1076 111.884 33.8862 111.241 34.434 110.417C34.9819 109.592 35.2742 108.623 35.2742 107.631C35.2727 106.302 34.7469 105.028 33.8123 104.088C32.8777 103.148 31.6105 102.619 30.2887 102.618Z" fill="#7D441A"/>
<path d="M59.5521 113.004C62.5029 113.004 64.895 110.599 64.895 107.631C64.895 104.664 62.5029 102.258 59.5521 102.258C56.6013 102.258 54.2092 104.664 54.2092 107.631C54.2092 110.599 56.6013 113.004 59.5521 113.004Z" fill="#13151D"/>
<path d="M59.5523 113.364C58.4249 113.364 57.3229 113.027 56.3855 112.398C55.4481 111.768 54.7174 110.872 54.286 109.825C53.8545 108.778 53.7416 107.625 53.9616 106.513C54.1815 105.401 54.7244 104.38 55.5215 103.578C56.3187 102.776 57.3344 102.23 58.4401 102.009C59.5458 101.788 60.692 101.901 61.7335 102.335C62.7751 102.769 63.6654 103.504 64.2918 104.446C64.9181 105.389 65.2524 106.497 65.2525 107.631C65.2508 109.151 64.6497 110.608 63.5811 111.683C62.5125 112.757 61.0636 113.362 59.5523 113.364V113.364ZM59.5523 102.618C58.5663 102.618 57.6023 102.912 56.7825 103.462C55.9626 104.013 55.3235 104.796 54.9462 105.713C54.5688 106.629 54.4701 107.637 54.6624 108.609C54.8548 109.582 55.3296 110.475 56.0269 111.176C56.7241 111.878 57.6125 112.355 58.5796 112.549C59.5467 112.742 60.5491 112.643 61.4602 112.263C62.3712 111.884 63.1498 111.241 63.6976 110.417C64.2455 109.592 64.5379 108.623 64.5379 107.631C64.5363 106.302 64.0106 105.028 63.076 104.088C62.1413 103.148 60.8741 102.619 59.5523 102.618V102.618Z" fill="#7D441A"/>
<path d="M78.2892 113.004C81.2399 113.004 83.632 110.599 83.632 107.631C83.632 104.664 81.2399 102.258 78.2892 102.258C75.3384 102.258 72.9463 104.664 72.9463 107.631C72.9463 110.599 75.3384 113.004 78.2892 113.004Z" fill="#13151D"/>
<path d="M78.2892 113.364C77.1618 113.364 76.0597 113.027 75.1223 112.398C74.1849 111.768 73.4543 110.872 73.0228 109.825C72.5914 108.778 72.4785 107.625 72.6984 106.513C72.9183 105.401 73.4612 104.38 74.2584 103.578C75.0556 102.776 76.0713 102.23 77.177 102.009C78.2827 101.788 79.4289 101.901 80.4704 102.335C81.512 102.769 82.4023 103.504 83.0286 104.447C83.655 105.389 83.9893 106.497 83.9893 107.631C83.9876 109.151 83.3865 110.608 82.3179 111.683C81.2493 112.757 79.8004 113.362 78.2892 113.364V113.364ZM78.2892 102.618C77.3031 102.618 76.3392 102.912 75.5193 103.463C74.6994 104.013 74.0604 104.796 73.6831 105.713C73.3057 106.629 73.207 107.637 73.3993 108.609C73.5917 109.582 74.0666 110.475 74.7638 111.176C75.4611 111.878 76.3494 112.355 77.3166 112.549C78.2837 112.742 79.2861 112.643 80.1971 112.263C81.1081 111.884 81.8868 111.241 82.4346 110.417C82.9824 109.592 83.2748 108.623 83.2748 107.631C83.2732 106.302 82.7474 105.028 81.8128 104.088C80.8782 103.148 79.611 102.619 78.2892 102.618V102.618Z" fill="#7D441A"/>
<path opacity="0.34" d="M11.779 127.649H11.0422V91.7631C11.0422 89.4048 11.9738 87.1431 13.632 85.4755C15.2902 83.8079 17.5393 82.8711 19.8844 82.8711H12.5791C10.234 82.8711 7.98496 83.8079 6.32672 85.4755C4.66849 87.1431 3.7369 89.4048 3.7369 91.7631V127.649H4.47372C3.88622 127.649 3.30448 127.765 2.7617 127.991C2.21892 128.217 1.72574 128.549 1.31031 128.966C0.894891 129.384 0.565359 129.88 0.340535 130.426C0.115711 130.972 -3.01732e-06 131.557 0 132.148L0 134H7.30528V132.148C7.30526 131.557 7.42095 130.972 7.64577 130.426C7.87058 129.88 8.20011 129.384 8.61553 128.966C9.03096 128.549 9.52414 128.217 10.0669 127.991C10.6097 127.765 11.1915 127.649 11.779 127.649V127.649Z" fill="#522205"/>
</g>
<defs>
<clipPath id="clip0">
<rect width="139" height="134" fill="white"/>
</clipPath>
</defs>
</svg>
